<?xml version="1.0" standalone="no"?>
<!DOCTYPE svg PUBLIC "-//W3C//DTD SVG 1.1//EN" "http://www.w3.org/Graphics/SVG/1.1/DTD/svg11.dtd" >
<svg>
<metadata>
Created by FontForge 20090622 at Thu Apr 27 12:37:45 2017
 By deploy user
&#194;&#169; 2015 Apple Inc. All rights reserved.
</metadata>
<defs>
<font id="SFUIText-BoldItalic" horiz-adv-x="0" >
  <font-face 
    font-family="SF UI Text"
    font-weight="325"
    font-style="italic"
    font-stretch="normal"
    units-per-em="2048"
    panose-1="0 0 4 0 0 0 0 0 0 0"
    ascent="1638"
    descent="-410"
    x-height="1103"
    cap-height="1443"
    bbox="-599 -570 3006 2229"
    underline-thickness="50"
    underline-position="-25"
    slope="-12"
    unicode-range="U+0020-U+FB02"
  />
<missing-glyph horiz-adv-x="1293" 
d="M45 0l290 1365h1053l-290 -1365h-1053zM504 303q0 -44 31 -72t80 -28q52 0 84.5 28.5t32.5 74.5t-31.5 74.5t-82.5 28.5q-50 0 -82 -29.5t-32 -76.5zM459 908h152q9 57 49.5 90t100.5 33q62 0 101 -31t39 -80q0 -37 -28.5 -65t-121.5 -81q-93 -52 -131 -99.5t-49 -121.5
l-6 -42h150l7 39q7 43 33.5 68.5t118.5 78.5q100 56 144.5 110.5t44.5 121.5q0 106 -81.5 170.5t-215.5 64.5q-132 0 -215 -69t-92 -187z" />
    <glyph glyph-name=".notdef" horiz-adv-x="1293" 
d="M45 0l290 1365h1053l-290 -1365h-1053zM504 303q0 -44 31 -72t80 -28q52 0 84.5 28.5t32.5 74.5t-31.5 74.5t-82.5 28.5q-50 0 -82 -29.5t-32 -76.5zM459 908h152q9 57 49.5 90t100.5 33q62 0 101 -31t39 -80q0 -37 -28.5 -65t-121.5 -81q-93 -52 -131 -99.5t-49 -121.5
l-6 -42h150l7 39q7 43 33.5 68.5t118.5 78.5q100 56 144.5 110.5t44.5 121.5q0 106 -81.5 170.5t-215.5 64.5q-132 0 -215 -69t-92 -187z" />
    <glyph glyph-name=".null" 
 />
    <glyph glyph-name="nonmarkingreturn" 
 />
    <glyph glyph-name="space" unicode=" " horiz-adv-x="528" 
 />
    <glyph glyph-name="exclam" unicode="!" horiz-adv-x="729" 
d="M440 1443h320l-233 -968h-267zM318 -30q-82 0 -131.5 47.5t-49.5 117.5q0 77 49 126.5t132 49.5q82 0 131.5 -48t49.5 -118q0 -77 -49.5 -126t-131.5 -49z" />
    <glyph glyph-name="quotedbl" unicode="&#x22;" horiz-adv-x="1016" 
d="M505 831h-250l129 612h250zM967 831h-250l129 612h250z" />
    <glyph glyph-name="numbersign" unicode="#" horiz-adv-x="1360" 
d="M1361 857h-207l-108 -252h204l-86 -223h-206l-159 -382h-228l159 382h-230l-159 -382h-227l159 382h-202l88 223h202l108 252h-200l86 221h202l153 366h227l-152 -366h229l153 366h228l-152 -366h205zM689 876l-122 -291h257l124 291h-259z" />
    <glyph glyph-name="dollar" unicode="$" horiz-adv-x="1415" 
d="M825 571l-74 -348q108 4 170.5 54.5t62.5 129.5q0 55 -36.5 92.5t-122.5 71.5zM752 886l71 334q-97 -4 -157 -52t-60 -121q0 -100 146 -161zM882 842l48 -16q177 -60 263.5 -153.5t86.5 -229.5q0 -209 -155 -332t-409 -123h-15l-27 -126h-140l30 140
q-180 35 -289.5 145.5t-114.5 269.5h284q7 -65 51.5 -111.5t118.5 -67.5l80 378l-60 20q-156 52 -241 153t-85 231q0 194 148.5 314.5t391.5 120.5h25l28 133h140l-32 -151q163 -39 261 -149t100 -257h-277q-7 59 -42.5 102t-92.5 66z" />
    <glyph glyph-name="percent" unicode="%" horiz-adv-x="1806" 
d="M616 1285q-60 0 -103.5 -65t-43.5 -154q0 -61 25 -96t69 -35q59 0 102 65t43 156q0 61 -24.5 95t-67.5 34zM490 0h-314l731 761l579 682h314l-744 -770zM554 742q-140 0 -223 87.5t-83 234.5q0 174 108 293t266 119q140 0 223.5 -87t83.5 -234q0 -174 -108.5 -293.5
t-266.5 -119.5zM1412 509q-60 0 -103.5 -65t-43.5 -154q0 -61 25 -95.5t68 -34.5q60 0 103 65t43 155q0 61 -24.5 95t-67.5 34zM1349 -34q-140 0 -223 87.5t-83 235.5q0 174 108.5 293t266.5 119q140 0 223.5 -87.5t83.5 -234.5q0 -173 -109 -293t-267 -120z" />
    <glyph glyph-name="ampersand" unicode="&#x26;" horiz-adv-x="1525" 
d="M663 1089q0 -40 21 -84.5t70 -107.5q236 80 236 236q0 59 -41 94.5t-107 35.5q-74 0 -126.5 -51t-52.5 -123zM633 189q148 0 261 68l-262 387q-4 -1 -24.5 -8.5t-22.5 -7.5q-104 -39 -159 -100t-55 -136q0 -89 72 -146t190 -57zM1060 0l-51 76q-179 -104 -400 -104
q-219 0 -365 112.5t-146 282.5q0 283 357 422l72 29q-116 166 -116 294q0 150 123 251.5t306 101.5q172 0 286 -87t114 -219q0 -131 -94 -237.5t-285 -179.5l218 -311q101 133 113 298l3 33h244l-3 -38q-26 -280 -227 -492l155 -232h-304z" />
    <glyph glyph-name="quotesingle" unicode="'" horiz-adv-x="553" 
d="M505 831h-250l129 612h250z" />
    <glyph glyph-name="parenleft" unicode="(" horiz-adv-x="803" 
d="M569 -277h-270q-53 106 -85.5 264t-32.5 312q0 322 123.5 623.5t347.5 519.5h308q-220 -216 -349.5 -523t-129.5 -645q0 -286 88 -551z" />
    <glyph glyph-name="parenright" unicode=")" horiz-adv-x="802" 
d="M312 1442h270q53 -106 85.5 -264t32.5 -312q0 -322 -123.5 -623.5t-347.5 -519.5h-308q219 216 349 523t130 645q0 286 -88 551z" />
    <glyph glyph-name="asterisk" unicode="*" horiz-adv-x="1032" 
d="M901 700l-202 211l-26 -296l-202 5l103 304l-281 -165l-64 195l307 88l-257 142l140 174l202 -215l26 303l202 -5l-105 -310l283 167l64 -194l-307 -87l256 -143z" />
    <glyph glyph-name="plus" unicode="+" horiz-adv-x="1415" 
d="M857 455l-87 -409h-261l87 409h-405l53 258h405l87 408h261l-87 -408h413l-53 -258h-413z" />
    <glyph glyph-name="comma" unicode="," horiz-adv-x="722" 
d="M266 -388h-234l213 635h288z" />
    <glyph glyph-name="hyphen" unicode="-" horiz-adv-x="992" 
d="M845 446h-657l57 273h657z" />
    <glyph glyph-name="period" unicode="." horiz-adv-x="712" 
d="M299 -27q-78 0 -127.5 49.5t-49.5 118.5q0 78 49 128.5t128 50.5t128 -49t49 -119q0 -77 -49 -128t-128 -51z" />
    <glyph glyph-name="slash" unicode="/" horiz-adv-x="772" 
d="M174 -288h-269l783 1731h275z" />
    <glyph glyph-name="zero" unicode="0" horiz-adv-x="1401" 
d="M684 -37q-231 0 -366 151t-135 408q0 204 54 382.5t146.5 304.5t221.5 198.5t275 72.5q232 0 367.5 -150.5t135.5 -408.5q0 -205 -54 -383.5t-147 -304.5t-222 -198t-276 -72zM487 506q0 -139 54.5 -217t151.5 -78q101 0 190 100t142.5 268.5t53.5 358.5
q0 138 -54.5 215.5t-151.5 77.5q-101 0 -190 -99.5t-142.5 -267.5t-53.5 -358z" />
    <glyph glyph-name="one" unicode="1" horiz-adv-x="1051" 
d="M420 0l243 1134h-18l-406 -242l60 294l429 257h301l-307 -1443h-302z" />
    <glyph glyph-name="two" unicode="2" horiz-adv-x="1318" 
d="M270 1021q17 201 174 330t384 129q209 0 347 -111.5t138 -281.5q0 -93 -42.5 -173t-132 -167.5t-267.5 -229.5l-316 -250l-4 -18h630l-51 -249h-1049l47 224l556 448q203 164 266.5 237.5t63.5 149.5q0 78 -59.5 127.5t-152.5 49.5q-95 0 -164 -57.5t-88 -152.5l-1 -5
h-279z" />
    <glyph glyph-name="three" unicode="3" horiz-adv-x="1366" 
d="M555 629l46 226h192q117 0 189 58t72 152q0 78 -62 126t-162 48q-87 0 -154.5 -47.5t-92.5 -124.5h-279q39 189 188.5 301t363.5 112t352 -106.5t138 -271.5q0 -140 -96 -243t-243 -122l-3 -18q121 -28 186 -105t65 -194q0 -199 -162 -328t-413 -129q-238 0 -388.5 116.5
t-151.5 301.5q0 20 5 60h284v-3q-9 -96 63.5 -159.5t191.5 -63.5q121 0 196 64t75 168q0 81 -67 131.5t-174 50.5h-159z" />
    <glyph glyph-name="four" unicode="4" horiz-adv-x="1413" 
d="M749 0l55 252h-709l49 279q234 313 761 912h439l-201 -940h189l-52 -251h-188l-55 -252h-288zM419 510l-3 -16h444l154 714h-16q-334 -378 -579 -698z" />
    <glyph glyph-name="five" unicode="5" horiz-adv-x="1361" 
d="M693 -37q-225 0 -374 121.5t-149 304.5q0 2 2 38h279v-3q3 -95 74 -154t183 -59q126 0 207.5 84t81.5 212q0 106 -67 169.5t-174 63.5q-69 0 -133 -29.5t-105 -77.5h-277l242 810h899l-53 -251h-656l-111 -347l17 -1q114 114 289 114q176 0 296 -119t120 -299
q0 -166 -73.5 -297.5t-208.5 -205.5t-309 -74z" />
    <glyph glyph-name="six" unicode="6" horiz-adv-x="1406" 
d="M1315 523q0 -156 -77 -284.5t-211 -202t-296 -73.5q-252 0 -396.5 154.5t-144.5 424.5q0 186 50 355t141 299q96 137 231 210.5t294 73.5q216 0 358 -120.5t146 -307.5h-294q-11 83 -72 131t-154 48q-139 0 -242.5 -124t-142.5 -338l18 -1q64 87 157.5 133.5t204.5 46.5
q188 0 309 -119t121 -306zM781 723q-123 0 -208.5 -82t-85.5 -201q0 -101 69.5 -166t178.5 -65q121 0 203 82.5t82 204.5q0 100 -67 163.5t-172 63.5z" />
    <glyph glyph-name="seven" unicode="7" horiz-adv-x="1239" 
d="M120 0l868 1176l4 19h-703l52 248h1017l-52 -251l-858 -1192h-328z" />
    <glyph glyph-name="eight" unicode="8" horiz-adv-x="1416" 
d="M1298 411q0 -129 -77.5 -231.5t-215.5 -159.5t-311 -57q-247 0 -403.5 112.5t-156.5 290.5q0 158 111 273t289 141l4 17q-91 37 -144 110t-53 159q0 179 154 296.5t388 117.5q213 0 358.5 -107.5t145.5 -265.5q0 -138 -90.5 -237t-239.5 -124l-4 -18q115 -40 180 -124.5
t65 -192.5zM734 638q-122 0 -202.5 -69t-80.5 -173q0 -92 70 -147.5t186 -55.5q123 0 203.5 68t80.5 172q0 91 -71.5 148t-185.5 57zM629 1035q0 -78 60.5 -128t154.5 -50q102 0 172.5 63.5t70.5 155.5q0 78 -60.5 128t-154.5 50q-104 0 -173.5 -62.5t-69.5 -156.5z" />
    <glyph glyph-name="nine" unicode="9" horiz-adv-x="1404" 
d="M782 717q123 0 207.5 82t84.5 201q0 102 -67.5 166t-176.5 64q-121 0 -203.5 -82.5t-82.5 -203.5q0 -100 67 -163.5t171 -63.5zM248 918q0 241 168 401.5t419 160.5t393.5 -155t142.5 -428q0 -183 -50 -352t-141 -298q-96 -137 -230 -210.5t-290 -73.5q-213 0 -357 117.5
t-152 298.5h295q8 -77 70.5 -122.5t160.5 -45.5q144 0 248 124.5t139 335.5l-17 1q-64 -88 -157 -134t-203 -46q-191 0 -315 120.5t-124 305.5z" />
    <glyph glyph-name="colon" unicode=":" horiz-adv-x="712" 
d="M299 -27q-78 0 -127.5 49.5t-49.5 118.5q0 78 49 128.5t128 50.5t128 -49t49 -119q0 -77 -49 -128t-128 -51zM455 711q-78 0 -127.5 49t-49.5 119q0 77 49 128t128 51t128 -49t49 -119q0 -77 -48.5 -128t-128.5 -51z" />
    <glyph glyph-name="semicolon" unicode=";" horiz-adv-x="712" 
d="M220 -388h-234l213 635h288zM456 711q-78 0 -127.5 49t-49.5 119q0 77 49 128t128 51q78 0 127.5 -49t49.5 -119q0 -77 -49 -128t-128 -51z" />
    <glyph glyph-name="less" unicode="&#x3c;" horiz-adv-x="1415" 
d="M1165 253l-59 -292l-848 530l48 235l1059 461l-63 -306l-723 -278l-3 -19z" />
    <glyph glyph-name="equal" unicode="=" horiz-adv-x="1416" 
d="M1217 216h-1073l53 259h1073zM1317 695h-1073l53 259h1073z" />
    <glyph glyph-name="greater" unicode="&#x3e;" horiz-adv-x="1415" 
d="M344 896l60 291l848 -530l-48 -234l-1060 -462l63 307l723 278l4 18z" />
    <glyph glyph-name="question" unicode="?" horiz-adv-x="1141" 
d="M232 1053q25 181 159 292t341 111q210 0 339 -101.5t129 -258.5q0 -127 -75 -232t-209 -165q-113 -49 -159 -92t-60 -114l-8 -42h-271l12 63q23 132 78.5 201.5t173.5 121.5q119 55 168.5 109t49.5 126q0 62 -49 103t-134 41q-77 0 -134.5 -44t-77.5 -119h-273zM494 -29
q-82 0 -133.5 45t-51.5 118q0 78 52 129t133 51q79 0 131.5 -45.5t52.5 -117.5q0 -76 -51.5 -128t-132.5 -52z" />
    <glyph glyph-name="at" unicode="@" horiz-adv-x="1899" 
d="M1136 1444q216 0 387.5 -86t267.5 -240.5t96 -349.5q0 -175 -62 -319.5t-170.5 -226.5t-241.5 -82q-106 0 -173.5 45.5t-67.5 117.5q0 5 0.5 13.5t0.5 11.5l-18 -3q-81 -142 -236 -142q-136 0 -218 93.5t-82 249.5q0 206 116 348.5t283 142.5q88 0 153.5 -44t81.5 -116
l18 -1l25 125h207l-121 -557q-5 -24 -5 -38q0 -39 22.5 -60t63.5 -21q61 0 117 64t90 170t34 222q0 230 -162.5 375t-418.5 145q-153 0 -290 -59t-235.5 -160t-156.5 -241.5t-58 -296.5q0 -273 186.5 -435.5t499.5 -161.5q103 0 153 15l-34 -163q-88 -16 -176 -16
q-237 0 -421.5 94t-286.5 264.5t-102 389.5q0 196 71.5 369.5t195 297t297 195t370.5 71.5zM1203 649q0 80 -40 127.5t-108 47.5q-87 0 -148 -84.5t-61 -203.5q0 -78 39.5 -123.5t107.5 -45.5q88 0 149 82t61 200z" />
    <glyph glyph-name="A" unicode="A" horiz-adv-x="1501" 
d="M1042 0l-35 344h-509l-186 -344h-315l820 1443h349l187 -1443h-311zM916 1142l-304 -565h381l-58 565h-19z" />
    <glyph glyph-name="B" unicode="B" horiz-adv-x="1420" 
d="M791 0h-691l307 1443h589q186 0 299.5 -85.5t113.5 -225.5q0 -142 -91.5 -245.5t-234.5 -123.5l-2 -19q119 -22 188.5 -99t69.5 -189q0 -200 -154 -328t-394 -128zM664 1219l-80 -368h240q124 0 202.5 60t78.5 154q0 75 -55.5 114.5t-160.5 39.5h-225zM452 237h287
q129 0 212 66t83 169q0 84 -60.5 129.5t-173.5 45.5h-259z" />
    <glyph glyph-name="C" unicode="C" horiz-adv-x="1532" 
d="M1259 932v14q-5 120 -88.5 193t-216.5 73q-129 0 -236 -81t-168 -224t-61 -318q0 -166 84.5 -262.5t230.5 -96.5q123 0 220 64t132 170h299q-47 -228 -231 -364.5t-446 -136.5q-272 0 -435 165t-163 440q0 263 102 471.5t283 324.5t408 116q163 0 296.5 -66t209.5 -182
t76 -257q0 -28 -2 -43h-294z" />
    <glyph glyph-name="D" unicode="D" horiz-adv-x="1535" 
d="M407 1443h511q276 0 433.5 -155.5t157.5 -431.5q0 -245 -96.5 -440.5t-268.5 -305.5t-388 -110h-655zM660 1187l-201 -930h270q205 0 337 157t132 408q0 170 -92 267.5t-255 97.5h-191z" />
    <glyph glyph-name="E" unicode="E" horiz-adv-x="1273" 
d="M1109 258l-52 -258h-957l307 1443h956l-53 -258h-652l-75 -337h616l-50 -239h-615l-78 -351h653z" />
    <glyph glyph-name="F" unicode="F" horiz-adv-x="1235" 
d="M404 0h-304l307 1443h945l-53 -258h-641l-83 -376h585l-51 -247h-585z" />
    <glyph glyph-name="G" unicode="G" horiz-adv-x="1566" 
d="M1534 760l-37 -184q-58 -299 -240 -456t-467 -157q-275 0 -441.5 167.5t-166.5 443.5q0 263 101 469.5t281 321.5t408 115q158 0 290 -62t210.5 -169.5t82.5 -238.5v-33h-294q-6 104 -92 169t-216 65q-198 0 -330 -175t-132 -441q0 -168 88 -265.5t239 -97.5
q141 0 242 75.5t127 201.5l5 25h-307l47 226h602z" />
    <glyph glyph-name="H" unicode="H" horiz-adv-x="1605" 
d="M1356 0h-305l129 603h-648l-129 -603h-303l307 1443h304l-125 -582h648l125 582h304z" />
    <glyph glyph-name="I" unicode="I" horiz-adv-x="653" 
d="M404 0h-304l307 1443h304z" />
    <glyph glyph-name="J" unicode="J" horiz-adv-x="1229" 
d="M86 413h293v-9q1 -77 49.5 -122t130.5 -45q167 0 212 209l213 997h302l-222 -1042q-44 -213 -176.5 -325.5t-341.5 -112.5q-210 0 -338 116.5t-123 302.5q0 21 1 31z" />
    <glyph glyph-name="K" unicode="K" horiz-adv-x="1454" 
d="M402 0h-302l307 1443h301l-136 -635h18l659 635h358l-670 -653l382 -790h-340l-293 606l-192 -182z" />
    <glyph glyph-name="L" unicode="L" horiz-adv-x="1219" 
d="M1098 263l-54 -263h-944l307 1443h303l-253 -1180h641z" />
    <glyph glyph-name="M" unicode="M" horiz-adv-x="1879" 
d="M382 0h-282l307 1443h347l188 -970h18l608 970h368l-307 -1443h-281l207 965h-16l-558 -882h-201l-175 882h-16z" />
    <glyph glyph-name="N" unicode="N" horiz-adv-x="1573" 
d="M393 0h-293l307 1443h231l479 -929h18l202 929h293l-307 -1443h-229l-483 922h-18z" />
    <glyph glyph-name="O" unicode="O" horiz-adv-x="1617" 
d="M805 -37q-185 0 -328 80t-219.5 219.5t-76.5 313.5q0 157 39 297.5t110.5 250.5t168.5 190.5t218 123t254 42.5q282 0 452 -173t170 -440q0 -197 -60.5 -366t-165 -287t-250 -184.5t-312.5 -66.5zM1283 844q0 165 -89 265t-235 100q-129 0 -236.5 -80.5t-169.5 -221
t-62 -309.5q0 -165 89.5 -265t236.5 -100q129 0 236 79.5t168.5 220t61.5 311.5z" />
    <glyph glyph-name="P" unicode="P" horiz-adv-x="1368" 
d="M407 1443h527q214 0 343.5 -115.5t129.5 -306.5q0 -263 -172.5 -418t-451.5 -155h-282l-97 -448h-303zM660 1195l-110 -502h229q145 0 233 81.5t88 217.5q0 99 -62.5 151t-175.5 52h-202z" />
    <glyph glyph-name="Q" unicode="Q" horiz-adv-x="1617" 
d="M1362 -141h-288l-63 130q-95 -26 -206 -26q-185 0 -328 80t-219.5 219t-76.5 314q0 196 60.5 365t166 287t251.5 185t312 67q141 0 258.5 -46.5t196.5 -128.5t123 -194.5t44 -243.5q0 -244 -91.5 -441.5t-255.5 -315.5zM816 228q49 0 90 10l-113 243h274l48 -84
q81 78 126 194.5t45 253.5q0 167 -89.5 267.5t-236.5 100.5q-130 0 -238 -81t-171 -222.5t-63 -312.5q0 -167 90.5 -268t237.5 -101z" />
    <glyph glyph-name="R" unicode="R" horiz-adv-x="1418" 
d="M100 0l307 1443h571q200 0 326 -114.5t126 -294.5q0 -161 -97 -292t-260 -184l198 -558h-325l-172 523h-258l-112 -523h-304zM661 1199l-98 -444h264q132 0 213.5 70t81.5 182q0 91 -56 141.5t-157 50.5h-248z" />
    <glyph glyph-name="S" unicode="S" horiz-adv-x="1362" 
d="M107 412h292q16 -92 99 -148t201 -56q122 0 198 52t76 137q0 63 -49.5 105.5t-166.5 79.5l-150 47q-160 50 -247.5 152.5t-87.5 241.5q0 130 73.5 234.5t203.5 163.5t291 59q237 0 389.5 -124.5t159.5 -322.5h-285q-14 91 -89.5 146.5t-186.5 55.5q-106 0 -177.5 -50
t-71.5 -126q0 -61 46.5 -105.5t147.5 -76.5l148 -46q184 -58 270 -152t86 -240q0 -214 -165.5 -345t-434.5 -131q-248 0 -402.5 120t-167.5 329z" />
    <glyph glyph-name="T" unicode="T" horiz-adv-x="1349" 
d="M752 0h-304l254 1185h-432l53 258h1168l-53 -258h-432z" />
    <glyph glyph-name="U" unicode="U" horiz-adv-x="1564" 
d="M776 -37q-261 0 -413 131t-153 339q0 64 13 126l187 884h305l-186 -877q-12 -56 -11 -102q2 -108 75 -169t201 -61q127 0 214 72.5t116 206.5l198 930h304l-211 -997q-48 -229 -215 -356t-424 -127z" />
    <glyph glyph-name="V" unicode="V" horiz-adv-x="1477" 
d="M851 0h-365l-182 1443h321l101 -1101h18l554 1101h340z" />
    <glyph glyph-name="W" unicode="W" horiz-adv-x="2067" 
d="M1150 955l-469 -955h-285l-76 1443h302l16 -1017h16l482 1017h245l59 -1017h16l445 1017h311l-685 -1443h-291l-70 955h-16z" />
    <glyph glyph-name="X" unicode="X" horiz-adv-x="1494" 
d="M14 0l628 744l-309 699h340l211 -494h18l399 494h338l-635 -732l322 -711h-333l-221 485h-18l-409 -485h-331z" />
    <glyph glyph-name="Y" unicode="Y" horiz-adv-x="1451" 
d="M804 0h-304l114 531l-310 912h316l196 -607h18l447 607h330l-697 -924z" />
    <glyph glyph-name="Z" unicode="Z" horiz-adv-x="1384" 
d="M61 0l42 204l915 963l2 18h-689l53 258h1076l-42 -203l-913 -964l-2 -18h724l-53 -258h-1113z" />
    <glyph glyph-name="bracketleft" unicode="[" horiz-adv-x="848" 
d="M424 1444h575l-46 -223h-294l-267 -1239h307l-46 -222h-587z" />
    <glyph glyph-name="backslash" unicode="\" horiz-adv-x="771" 
d="M317 -288l-33 1731h267l32 -1731h-266z" />
    <glyph glyph-name="bracketright" unicode="]" horiz-adv-x="848" 
d="M888 1444l-358 -1684h-581l45 223h301l267 1239h-300l46 222h580z" />
    <glyph glyph-name="asciicircum" unicode="^" horiz-adv-x="988" 
d="M674 1196l-252 -373h-266l438 602h256l181 -602h-250l-89 373h-18z" />
    <glyph glyph-name="underscore" unicode="_" horiz-adv-x="945" 
d="M803 -334h-949l46 227h949z" />
    <glyph glyph-name="grave" unicode="`" horiz-adv-x="1071" 
d="M1008 1281h-265l-250 353h303z" />
    <glyph glyph-name="a" unicode="a" horiz-adv-x="1202" 
d="M534 202q93 0 165 52t90 132l21 95l-228 -8q-100 -4 -156.5 -43t-56.5 -104q0 -55 46 -89.5t119 -34.5zM411 -17q-140 0 -234 86t-94 215q0 168 129.5 266.5t361.5 105.5l274 9l15 68q5 25 5 40q0 57 -49 90.5t-133 33.5q-147 0 -192 -98h-275q35 151 167.5 239.5
t320.5 88.5q202 0 325 -89.5t123 -235.5q0 -50 -9 -89l-151 -713h-283l29 136h-18q-47 -71 -131 -112t-181 -41z" />
    <glyph glyph-name="b" unicode="b" horiz-adv-x="1340" 
d="M747 -17q-117 0 -208.5 60t-119.5 157h-18l-43 -200h-283l324 1524h291l-122 -575l19 1q117 171 332 171q167 0 272 -115.5t105 -306.5q0 -202 -72.5 -366.5t-198.5 -257t-278 -92.5zM683 230q131 0 221 120.5t90 298.5q0 111 -56 171t-150 60q-131 0 -223.5 -122.5
t-92.5 -292.5q0 -111 58 -173t153 -62z" />
    <glyph glyph-name="c" unicode="c" horiz-adv-x="1208" 
d="M1198 723h-276q-4 76 -59.5 120.5t-139.5 44.5q-131 0 -215 -122t-84 -303q0 -120 58 -183t150 -63q82 0 141 40.5t84 115.5h279q-29 -172 -169.5 -284.5t-351.5 -112.5q-220 0 -351 126.5t-131 338.5q0 195 76 351t215.5 245.5t317.5 89.5q193 0 317 -107t137 -254
q2 -13 2 -43z" />
    <glyph glyph-name="d" unicode="d" horiz-adv-x="1342" 
d="M511 -17q-168 0 -275 116t-107 314q0 201 74 364t202 253.5t283 90.5q119 0 202.5 -57.5t110.5 -148.5h18l130 609h292l-323 -1524h-283l32 153h-18q-59 -80 -145 -125t-193 -45zM641 223q131 0 223 122.5t92 293.5q0 111 -58.5 173t-153.5 62q-132 0 -222.5 -117.5
t-90.5 -293.5q0 -110 59.5 -175t150.5 -65z" />
    <glyph glyph-name="e" unicode="e" horiz-adv-x="1251" 
d="M624 -24q-218 0 -353 127t-135 347q0 302 166 489.5t431 187.5q201 0 333 -127t132 -335q0 -82 -17 -180h-770q0 -4 -0.5 -15.5t-0.5 -15.5q0 -122 66 -186.5t166 -64.5q163 0 218 114h280q-38 -154 -176.5 -247.5t-339.5 -93.5zM443 669h479q3 18 3 38q0 85 -55 140.5
t-149 55.5q-99 0 -174 -64t-104 -170z" />
    <glyph glyph-name="f" unicode="f" horiz-adv-x="836" 
d="M153 0l184 863h-174l47 229h171l25 126q31 155 129 226t274 71q87 0 182 -22l-42 -205q-39 11 -112 11q-123 0 -148 -118l-18 -89h230l-47 -229h-224l-184 -863h-293z" />
    <glyph glyph-name="g" unicode="g" horiz-adv-x="1327" 
d="M530 -417q-221 0 -359.5 94.5t-137.5 239.5h290q5 -55 65.5 -89t160.5 -34q112 0 178 49t86 139l44 194l-18 1q-109 -155 -325 -155q-166 0 -273.5 115.5t-107.5 300.5q0 190 72 347t197.5 246.5t276.5 89.5q114 0 203 -58t120 -152h17l42 192h284l-246 -1147
q-37 -175 -186.5 -274t-382.5 -99zM641 237q129 0 218.5 116t89.5 286q0 107 -58 171t-156 64q-130 0 -216.5 -112.5t-86.5 -285.5q0 -110 56.5 -174.5t152.5 -64.5z" />
    <glyph glyph-name="h" unicode="h" horiz-adv-x="1321" 
d="M75 0l323 1515h292l-125 -578h18q119 187 343 187q154 0 248.5 -90.5t94.5 -226.5q0 -58 -14 -131l-142 -676h-291l132 628q10 48 10 84q0 78 -53.5 124.5t-139.5 46.5q-98 0 -170.5 -62.5t-93.5 -161.5l-140 -659h-292z" />
    <glyph glyph-name="i" unicode="i" horiz-adv-x="599" 
d="M78 0l235 1103h293l-235 -1103h-293zM524 1257q-77 0 -124.5 40.5t-47.5 102.5q0 65 47.5 108t124.5 43t124.5 -40t47.5 -102q0 -65 -47.5 -108.5t-124.5 -43.5z" />
    <glyph glyph-name="j" unicode="j" horiz-adv-x="599" 
d="M605 1103l-247 -1158q-33 -154 -139 -236t-270 -83q-61 0 -131 12l48 226q25 -6 63 -6q62 0 96.5 29t48.5 91l240 1125h291zM524 1257q-77 0 -124.5 40.5t-47.5 102.5q0 65 47.5 108t124.5 43t124.5 -40t47.5 -102q0 -65 -47.5 -108.5t-124.5 -43.5z" />
    <glyph glyph-name="k" unicode="k" horiz-adv-x="1210" 
d="M531 690l448 413h340l-529 -482l328 -621h-321l-242 457l-110 -94l-78 -363h-292l324 1524h291l-177 -834h18z" />
    <glyph glyph-name="l" unicode="l" horiz-adv-x="593" 
d="M75 0l324 1524h293l-324 -1524h-293z" />
    <glyph glyph-name="m" unicode="m" horiz-adv-x="1893" 
d="M67 0l236 1112h282l-39 -182h18q52 91 135.5 144t179.5 53q111 0 186 -57t98 -141h18q124 198 355 198q134 0 221 -86.5t87 -219.5q0 -61 -15 -132l-145 -689h-291l136 645q10 52 10 84q0 68 -42 111t-113 43q-80 0 -142 -57t-83 -155l-142 -671h-282l136 645
q10 44 10 84q0 68 -42 111t-113 43q-79 0 -141 -56.5t-83 -151.5l-143 -675h-292z" />
    <glyph glyph-name="n" unicode="n" horiz-adv-x="1305" 
d="M67 0l236 1112h282l-37 -175h18q55 87 144.5 138.5t203.5 51.5q152 0 245.5 -90.5t93.5 -229.5q0 -58 -14 -131l-142 -676h-291l132 628q10 46 10 84q0 76 -52 123.5t-137 47.5q-96 0 -167.5 -62.5t-92.5 -161.5l-140 -659h-292z" />
    <glyph glyph-name="o" unicode="o" horiz-adv-x="1298" 
d="M438 467q0 -115 55 -183.5t152 -68.5q120 0 209 120.5t89 292.5q0 123 -53 192t-148 69q-132 0 -218 -122t-86 -300zM628 -24q-222 0 -357.5 132.5t-135.5 349.5q0 185 77.5 337.5t221 242t324.5 89.5q222 0 356 -133t134 -350q0 -183 -76.5 -335t-219.5 -242.5
t-324 -90.5z" />
    <glyph glyph-name="p" unicode="p" horiz-adv-x="1334" 
d="M677 230q131 0 221 120.5t90 298.5q0 111 -56 171t-150 60q-131 0 -223.5 -122.5t-92.5 -292.5q0 -111 58 -173t153 -62zM287 -345h-292l309 1448h283l-33 -153h18q59 80 146 125.5t194 45.5q167 0 272.5 -115.5t105.5 -306.5q0 -203 -73 -367t-199.5 -256.5
t-281.5 -92.5q-118 0 -201.5 59.5t-111.5 157.5h-18z" />
    <glyph glyph-name="q" unicode="q" horiz-adv-x="1336" 
d="M637 223q131 0 223.5 122.5t92.5 293.5q0 111 -58 173t-153 62q-131 0 -221 -118.5t-90 -294.5q0 -114 56 -176t150 -62zM1045 -345h-291l106 498h-17q-125 -170 -337 -170q-167 0 -272 117t-105 311q0 201 73.5 364t200.5 254.5t282 91.5q120 0 209 -58.5t118 -147.5h18
l40 188h283z" />
    <glyph glyph-name="r" unicode="r" horiz-adv-x="908" 
d="M63 0l235 1103h283l-31 -152h18q94 170 274 170q90 0 141 -24l-57 -268q-75 30 -168 30q-218 0 -272 -251l-131 -608h-292z" />
    <glyph glyph-name="s" unicode="s" horiz-adv-x="1150" 
d="M82 318h281q12 -57 68 -93t137 -36q85 0 136.5 32t51.5 85q0 36 -25.5 61t-87.5 45l-172 60q-132 45 -196 117.5t-64 180.5q0 161 126.5 259t330.5 98q200 0 322.5 -89.5t133.5 -238.5h-267q-10 52 -61.5 83.5t-127.5 31.5q-77 0 -126.5 -32t-49.5 -82q0 -36 29 -62
t93 -47l179 -63q134 -46 194.5 -115t60.5 -175q0 -162 -133 -262t-348 -100q-212 0 -345.5 94.5t-139.5 247.5z" />
    <glyph glyph-name="t" unicode="t" horiz-adv-x="846" 
d="M568 -14q-175 0 -266.5 60t-91.5 175q0 43 11 96l116 537h-175l47 230h175l56 267h293l-57 -267h235l-48 -230h-234l-104 -479q-8 -37 -8 -64q0 -51 37.5 -74.5t114.5 -23.5q31 0 52 3l-46 -222q-48 -8 -107 -8z" />
    <glyph glyph-name="u" unicode="u" horiz-adv-x="1305" 
d="M1322 1103l-233 -1103h-283l36 167h-18q-50 -89 -139.5 -140t-203.5 -51q-152 0 -247 88.5t-95 233.5q0 58 15 141l139 664h293l-131 -616q-10 -47 -10 -86q0 -85 47.5 -129t136.5 -44q99 0 170 63t94 168l137 644h292z" />
    <glyph glyph-name="v" unicode="v" horiz-adv-x="1184" 
d="M211 1103h294l63 -807h18l394 807h312l-611 -1103h-331z" />
    <glyph glyph-name="w" unicode="w" horiz-adv-x="1735" 
d="M1833 1103l-527 -1103h-312l-35 758h-18l-355 -758h-306l-60 1103h284l5 -787h18l355 787h283l25 -791h18l334 791h291z" />
    <glyph glyph-name="x" unicode="x" horiz-adv-x="1191" 
d="M606 354h-18l-277 -354h-319l463 552l-231 551h318l129 -358h18l270 358h325l-466 -554l235 -549h-307z" />
    <glyph glyph-name="y" unicode="y" horiz-adv-x="1208" 
d="M131 -403q-62 0 -132 5l46 235q20 -6 81 -6q151 0 211 122l22 44l-144 1106h297l64 -822h18l405 822h312l-630 -1143q-106 -200 -231.5 -281.5t-318.5 -81.5z" />
    <glyph glyph-name="z" unicode="z" horiz-adv-x="1160" 
d="M46 0l35 172l689 681l2 18h-532l49 232h898l-41 -192l-652 -661l-1 -18h519l-48 -232h-918z" />
    <glyph glyph-name="braceleft" unicode="{" horiz-adv-x="926" 
d="M421 619l-4 -18q78 -11 120.5 -56t42.5 -119q0 -38 -9 -81l-57 -260q-11 -52 -11 -85q0 -66 42.5 -94t138.5 -28h45l-45 -216h-98q-172 0 -272.5 70t-100.5 187q0 57 15 128l48 218q12 57 12 96q0 60 -32 85.5t-105 25.5l57 277q95 0 141.5 45.5t71.5 162.5l43 194
q42 199 165 283t351 84h99l-45 -220h-45q-116 0 -175 -46.5t-83 -158.5l-52 -237q-24 -112 -86.5 -169.5t-171.5 -67.5z" />
    <glyph glyph-name="bar" unicode="|" horiz-adv-x="749" 
d="M371 -289h-267l369 1732h267z" />
    <glyph glyph-name="braceright" unicode="}" horiz-adv-x="926" 
d="M606 561l4 18q-78 11 -120.5 55.5t-42.5 118.5q0 37 9 82l57 259q11 52 11 85q0 66 -42 94t-139 28h-45l45 217h98q172 0 272.5 -70.5t100.5 -187.5q0 -58 -15 -127l-48 -219q-12 -55 -12 -95q0 -61 32 -86t105 -25l-57 -277q-94 0 -141 -46t-72 -162l-43 -194
q-42 -199 -165 -283t-351 -84h-100l46 219h45q116 0 175 46.5t83 158.5l52 237q24 113 86.5 170t171.5 68z" />
    <glyph glyph-name="asciitilde" unicode="~" horiz-adv-x="1225" 
d="M773 479q-58 0 -107.5 24t-83.5 58.5t-64 69.5t-62 59t-65 24q-94 0 -126 -159h-229q31 202 125 309t229 107q49 0 92 -17.5t72.5 -43.5t58.5 -56.5t51 -56.5t49 -43.5t54 -17.5q95 0 126 160h230q-31 -204 -121.5 -310.5t-228.5 -106.5z" />
    <glyph glyph-name="nonbreakingspace" unicode="&#xa0;" horiz-adv-x="528" 
 />
    <glyph glyph-name="exclamdown" unicode="&#xa1;" horiz-adv-x="729" 
d="M377 -322h-320l233 969h267zM499 1152q82 0 131.5 -47.5t49.5 -117.5q0 -77 -49 -126.5t-132 -49.5q-82 0 -131.5 48t-49.5 118q0 77 49 126t132 49z" />
    <glyph glyph-name="cent" unicode="&#xa2;" horiz-adv-x="1415" 
d="M1263 525q-27 -159 -150.5 -268t-310.5 -126l-38 -183h-242l43 208q-142 45 -223 160.5t-81 278.5q0 277 150 468t393 217l36 169h242l-41 -192q123 -42 198 -133.5t85 -201.5q2 -26 2 -43h-276q-4 76 -60 120.5t-139 44.5q-132 0 -215.5 -122.5t-83.5 -304.5
q0 -120 58 -184t150 -64q82 0 141 40.5t84 115.5h278z" />
    <glyph glyph-name="sterling" unicode="&#xa3;" horiz-adv-x="1415" 
d="M1259 263l-53 -257h-1124l53 256q140 10 251 101.5t125 235.5q0 17 -3 39h-310l43 213h255q-18 140 -18 179q0 210 145 330t410 120q116 0 236.5 -23.5t184.5 -53.5l-50 -239q-48 27 -140 46.5t-182 19.5q-143 0 -225.5 -61t-82.5 -184q0 -49 9 -134h385l-43 -213h-326
q0 -5 0.5 -13.5t0.5 -12.5q-4 -130 -67.5 -213.5t-172.5 -117.5l-3 -18h702z" />
    <glyph glyph-name="currency" unicode="&#xa4;" horiz-adv-x="1415" 
d="M514 648q0 -95 69 -163.5t165 -68.5t165.5 68.5t69.5 163.5t-69.5 164t-165.5 69t-165 -69t-69 -164zM1368 1020l-212 -177q43 -94 43 -195q0 -142 -81 -260l99 -125l-199 -169l-102 131q-82 -33 -168 -33q-150 0 -270 91l-218 -181l-133 174l214 178q-43 91 -43 194
q0 143 81 261l-100 125l198 169l103 -131q82 33 168 33q151 0 270 -92l218 181z" />
    <glyph glyph-name="yen" unicode="&#xa5;" horiz-adv-x="1415" 
d="M1099 206h-269l-44 -206h-304l45 206h-272l36 169h271l29 133h-272l36 169h196l-265 766h316l196 -607h18l447 607h330l-581 -766h187l-36 -169h-269l-29 -133h270z" />
    <glyph glyph-name="brokenbar" unicode="&#xa6;" horiz-adv-x="749" 
d="M598 773h-267l142 670h267zM371 -289h-267l142 669h267z" />
    <glyph glyph-name="section" unicode="&#xa7;" horiz-adv-x="1032" 
d="M497 459l106 -53q67 17 108.5 58.5t41.5 93.5q0 86 -106 132l-104 52q-69 -14 -114.5 -55.5t-45.5 -94.5q0 -81 114 -133zM445 -288q-183 0 -304.5 94.5t-125.5 247.5h252q9 -57 58.5 -94t121.5 -37q76 0 125.5 36t49.5 90q0 80 -102 122l-167 80q-230 105 -230 292
q0 109 73 186.5t196 103.5l2 19q-79 54 -112.5 108t-33.5 130q0 152 121 248t309 96q181 0 294.5 -92.5t125.5 -248.5h-249q-7 59 -54.5 94t-118.5 35t-117.5 -34.5t-46.5 -87.5q0 -74 110 -121l152 -77q120 -57 179 -127.5t59 -166.5q0 -106 -72.5 -187.5t-192.5 -106.5
l-2 -16q77 -54 109.5 -108t32.5 -129q0 -153 -125 -251t-317 -98z" />
    <glyph glyph-name="dieresis" unicode="&#xa8;" horiz-adv-x="1071" 
d="M528 1267q-68 0 -112 43t-44 109t44 108.5t112 42.5q67 0 111 -42.5t44 -108.5t-44 -109t-111 -43zM995 1267q-67 0 -111 43t-44 109t44 108.5t111 42.5q68 0 112 -42.5t44 -108.5t-44 -109t-112 -43z" />
    <glyph glyph-name="copyright" unicode="&#xa9;" horiz-adv-x="1743" 
d="M906 -135q-156 0 -295.5 57t-239.5 155t-158 235t-58 291q0 172 66 327t178.5 267t269 177.5t330.5 65.5q212 0 384 -96t270 -264.5t98 -376.5q0 -173 -66 -328t-178.5 -267t-269.5 -177.5t-331 -65.5zM914 26q182 0 336.5 90t244.5 244t90 335q0 252 -169 418t-425 166
q-181 0 -336 -90t-245 -244t-90 -334q0 -250 170 -417.5t424 -167.5zM1317 759h-187q-1 60 -39.5 96.5t-100.5 36.5q-90 0 -151 -84.5t-61 -208.5q0 -84 39.5 -131t109.5 -47q109 0 151 95h193q-30 -120 -124 -188.5t-228 -68.5q-148 0 -240 93.5t-92 245.5
q0 196 116.5 325.5t293.5 129.5q144 0 234.5 -83t85.5 -211z" />
    <glyph glyph-name="ordfeminine" unicode="&#xaa;" horiz-adv-x="1030" 
d="M609 912q-78 -3 -122 -33t-44 -81q0 -45 35.5 -72.5t92.5 -27.5q69 0 122 40.5t67 104.5l16 74zM459 503q-123 0 -201 72t-78 187q0 142 104.5 222.5t291.5 84.5l233 5q1 6 6.5 27.5t5.5 24.5q6 30 5 36q1 45 -36 71t-100 26q-52 0 -89.5 -19t-53.5 -54h-252
q34 134 139.5 206t264.5 72q176 0 283 -78t107 -208q0 -38 -7 -72l-126 -590h-257l21 104l-17 1q-40 -55 -105 -86.5t-139 -31.5z" />
    <glyph glyph-name="guillemotleft" unicode="&#xab;" horiz-adv-x="1447" 
d="M1416 981l-442 -431l-2 -10l252 -389h-264l-261 411l2 8l427 411h288zM905 981l-437 -425l-2 -11l247 -394h-264l-261 411l2 8l417 411h298z" />
    <glyph glyph-name="logicalnot" unicode="&#xac;" horiz-adv-x="1415" 
d="M1306 713l-137 -654h-255l84 396h-790l53 258h1045z" />
    <glyph glyph-name="registered" unicode="&#xae;" horiz-adv-x="1261" 
d="M613 664h-125l103 487h248q66 0 111.5 -43t45.5 -103q0 -61 -37.5 -105t-99.5 -59l84 -177h-144l-75 165h-76zM695 1047l-26 -122h103q88 0 88 68q0 25 -17 39.5t-49 14.5h-99zM216 897q0 144 70.5 264.5t192.5 190.5t267 70q229 0 379.5 -149t150.5 -376
q0 -144 -70.5 -264.5t-192.5 -190.5t-267 -70q-229 0 -379.5 149t-150.5 376zM1143 897q0 173 -112 284t-285 111q-166 0 -281.5 -115t-115.5 -280q0 -173 111.5 -284t283.5 -111q166 0 282.5 115.5t116.5 279.5z" />
    <glyph glyph-name="macron" unicode="&#xaf;" horiz-adv-x="1071" 
d="M1107 1316h-735l38 180h735z" />
    <glyph glyph-name="degree" unicode="&#xb0;" horiz-adv-x="806" 
d="M578 874q-125 0 -213 89t-88 215q0 125 88 214t213 89t213.5 -89t88.5 -214q0 -126 -88.5 -215t-213.5 -89zM578 1046q56 0 95.5 38.5t39.5 93.5t-39.5 93.5t-95.5 38.5q-54 0 -94 -39t-40 -93t40 -93t94 -39z" />
    <glyph glyph-name="plusminus" unicode="&#xb1;" horiz-adv-x="1415" 
d="M1146 71h-997l46 225h997zM897 650l-51 -234h-252l51 234h-373l46 224h373l52 234h251l-51 -234h374l-46 -224h-374z" />
    <glyph glyph-name="two.sups" unicode="&#xb2;" horiz-adv-x="917" 
d="M331 1527q9 141 121 232t277 91q150 0 244.5 -75.5t94.5 -194.5q0 -85 -55 -158t-195 -173q-167 -119 -192 -132l-2 -12h360l-43 -209h-720l40 192l322 233q132 94 178 142.5t46 92.5q0 40 -28 64t-74 24q-50 0 -86.5 -31.5t-46.5 -84.5v-1h-241z" />
    <glyph glyph-name="three.sups" unicode="&#xb3;" horiz-adv-x="944" 
d="M542 1286l37 178h113q58 0 95.5 28.5t37.5 72.5q0 38 -30 61.5t-79 23.5q-44 0 -78 -22.5t-47 -61.5h-241q25 130 131 207t258 77q149 0 245.5 -71.5t96.5 -181.5q0 -90 -63.5 -154t-160.5 -71l-1 -13q79 -18 121 -68t42 -126q0 -130 -108.5 -212.5t-281.5 -82.5
q-175 0 -281.5 95t-89.5 236h249q-4 -51 30 -83t91 -32q58 0 94 30t36 80q0 39 -33 64.5t-84 25.5h-99z" />
    <glyph glyph-name="acute" unicode="&#xb4;" horiz-adv-x="1071" 
d="M453 1281l323 353h310l-361 -353h-272z" />
    <glyph glyph-name="paragraph" unicode="&#xb6;" horiz-adv-x="1538" 
d="M818 -259h-280l155 719q-185 18 -295 133.5t-110 286.5q0 244 165 399t437 163l290 1zM987 -259l361 1702h280l-361 -1702h-280z" />
    <glyph glyph-name="periodcentered" unicode="&#xb7;" horiz-adv-x="723" 
d="M443 555q-83 0 -133 50t-50 123q0 81 50 132.5t133 51.5t132.5 -50t49.5 -123q0 -81 -49.5 -132.5t-132.5 -51.5z" />
    <glyph glyph-name="cedilla" unicode="&#xb8;" horiz-adv-x="1071" 
d="M244 -232l17 116l96 146h184l-96 -147q159 -26 159 -164q0 -96 -72 -154t-191 -58q-107 0 -186 36l28 133q65 -27 142 -27q44 0 68 15t24 43q0 61 -116 61h-57z" />
    <glyph glyph-name="one.sups" unicode="&#xb9;" horiz-adv-x="759" 
d="M431 896l146 680h-13l-251 -145l49 238l266 155h268l-197 -928h-268z" />
    <glyph glyph-name="ordmasculine" unicode="&#xba;" horiz-adv-x="1106" 
d="M726 1250q-98 0 -166.5 -98.5t-68.5 -237.5q0 -98 41.5 -152.5t114.5 -54.5q97 0 165.5 99t68.5 239q0 95 -41.5 150t-113.5 55zM635 486q-194 0 -307 114.5t-113 312.5q0 158 68 285.5t188 199.5t269 72q194 0 305.5 -115t111.5 -316q0 -158 -67 -284.5t-186.5 -197.5
t-268.5 -71z" />
    <glyph glyph-name="guillemotright" unicode="&#xbb;" horiz-adv-x="1448" 
d="M566 592l-252 389h264l262 -411l-2 -8l-427 -411h-288l441 430zM1074 586l-247 395h264l261 -411l-2 -8l-417 -411h-298l437 425z" />
    <glyph glyph-name="onequarter" unicode="&#xbc;" horiz-adv-x="2292" 
d="M1763 0l29 136h-459l45 239q136 189 452 553h382l-124 -581h111l-44 -211h-111l-29 -136h-252zM1605 349l-3 -12h239l87 402h-13q-3 -3 -28.5 -33l-29 -34l-26 -30.5l-28.5 -34l-26.5 -32.5l-30.5 -38l-29.5 -38l-34.5 -45.5l-35.5 -48zM449 515l146 680h-13l-251 -145
l49 238l266 155h268l-197 -928h-268zM536 0l552 756l455 687h276l-556 -749l-450 -694h-277z" />
    <glyph glyph-name="onehalf" unicode="&#xbd;" horiz-adv-x="2287" 
d="M1514 631q9 141 121 232t277 91q150 0 244.5 -75.5t94.5 -194.5q0 -85 -55 -158t-195 -173q-167 -119 -192 -132l-2 -12h360l-43 -209h-720l40 192l322 233q132 94 178 142.5t46 92.5q0 40 -28 64t-74 24q-50 0 -86.5 -31.5t-46.5 -84.5v-1h-241zM449 515l146 680h-13
l-251 -145l49 238l266 155h268l-197 -928h-268zM536 0l552 756l455 687h276l-556 -749l-450 -694h-277z" />
    <glyph glyph-name="threequarters" unicode="&#xbe;" horiz-adv-x="2426" 
d="M516 905l37 178h113q58 0 95.5 28.5t37.5 72.5q0 38 -30 61.5t-79 23.5q-44 0 -78 -22.5t-47 -61.5h-241q25 130 131 207t258 77q149 0 245.5 -71.5t96.5 -181.5q0 -90 -63.5 -154t-160.5 -71l-1 -13q79 -18 121 -68t42 -126q0 -130 -108.5 -212.5t-281.5 -82.5
q-175 0 -281.5 95t-89.5 236h249q-4 -51 30 -83t91 -32q58 0 94 30.5t36 79.5q0 39 -33 64.5t-84 25.5h-99zM1896 0l29 136h-459l45 239q136 189 452 553h382l-124 -581h111l-44 -211h-111l-29 -136h-252zM1738 349l-3 -12h239l87 402h-13q-3 -3 -28.5 -33l-29 -34
l-26 -30.5l-28.5 -34l-26.5 -32.5l-30.5 -38l-29.5 -38l-34.5 -45.5l-35.5 -48zM669 0l552 756l455 687h276l-556 -749l-450 -694h-277z" />
    <glyph glyph-name="questiondown" unicode="&#xbf;" horiz-adv-x="1140" 
d="M736 1152q82 0 133.5 -45t51.5 -118q0 -78 -52 -129t-133 -51q-80 0 -132 45.5t-52 117.5q0 76 51.5 128t132.5 52zM725 69h273q-26 -181 -159.5 -292t-340.5 -111q-210 0 -339 101.5t-129 258.5q0 127 75 231.5t209 164.5q112 50 158 93t60 113l9 43h270l-12 -63
q-22 -132 -77.5 -201.5t-173.5 -121.5q-120 -55 -169.5 -109t-49.5 -126q0 -62 49 -103t134 -41q77 0 134.5 43.5t78.5 119.5z" />
    <glyph glyph-name="Agrave" unicode="&#xc0;" horiz-adv-x="1501" 
d="M1042 0l-35 344h-509l-186 -344h-315l820 1443h349l187 -1443h-311zM916 1142l-304 -565h381l-58 565h-19zM982 1908l177 -318h-266l-217 318h306z" />
    <glyph glyph-name="Aacute" unicode="&#xc1;" horiz-adv-x="1501" 
d="M1042 0l-35 344h-509l-186 -344h-315l820 1443h349l187 -1443h-311zM916 1142l-304 -565h381l-58 565h-19zM875 1590l343 318h315l-381 -318h-277z" />
    <glyph glyph-name="Acircumflex" unicode="&#xc2;" horiz-adv-x="1501" 
d="M1042 0l-35 344h-509l-186 -344h-315l820 1443h349l187 -1443h-311zM916 1142l-304 -565h381l-58 565h-19zM1226 1925l187 -335h-249l-92 191h-18l-172 -191h-275l328 335h291z" />
    <glyph glyph-name="Atilde" unicode="&#xc3;" horiz-adv-x="1501" 
d="M1042 0l-35 344h-509l-186 -344h-315l820 1443h349l187 -1443h-311zM916 1142l-304 -565h381l-58 565h-19zM1212 1578q-45 0 -85 15t-68.5 36t-53 42t-49.5 36t-49 15q-81 0 -97 -104h-181q17 129 91 203t178 74q45 0 85 -15t68 -36t53 -42t50 -36t48 -15q82 0 98 104
h181q-18 -129 -91.5 -203t-177.5 -74z" />
    <glyph glyph-name="Adieresis" unicode="&#xc4;" horiz-adv-x="1501" 
d="M1042 0l-35 344h-509l-186 -344h-315l820 1443h349l187 -1443h-311zM916 1142l-304 -565h381l-58 565h-19zM819 1579q-68 0 -112 43t-44 109t44 108.5t112 42.5q67 0 111 -42.5t44 -108.5t-44 -109t-111 -43zM1286 1579q-67 0 -111 43t-44 109t44 108.5t111 42.5
q68 0 112 -42.5t44 -108.5t-44 -109t-112 -43z" />
    <glyph glyph-name="Aring" unicode="&#xc5;" horiz-adv-x="1501" 
d="M1042 0l-35 344h-509l-186 -344h-315l820 1443h349l187 -1443h-311zM916 1142l-304 -565h381l-58 565h-19zM1072 1578q-105 0 -175.5 68.5t-70.5 172.5q0 103 70 170.5t176 67.5q105 0 175 -67.5t70 -170.5q0 -104 -70 -172.5t-175 -68.5zM1071 1714q46 0 76 29.5
t30 74.5q0 44 -30 73.5t-76 29.5t-75.5 -29.5t-29.5 -73.5q0 -46 29.5 -75t75.5 -29z" />
    <glyph glyph-name="AE" unicode="&#xc6;" horiz-adv-x="2059" 
d="M1180 1202h-130l-379 -604h379zM922 0l80 364h-465l-234 -364h-307l903 1443h1259l-54 -258h-650l-75 -341h614l-50 -239h-613l-77 -347h650l-52 -258h-929z" />
    <glyph glyph-name="Ccedilla" unicode="&#xc7;" horiz-adv-x="1534" 
d="M1553 932h-294v14q-5 120 -88.5 193t-216.5 73q-129 0 -236 -81t-168 -224t-61 -318q0 -166 84.5 -262.5t230.5 -96.5q123 0 220 64t132 170h299q-43 -208 -201 -341t-387 -156l-57 -87q159 -26 159 -164q0 -96 -72 -154t-191 -58q-107 0 -186 36l28 133q65 -27 142 -27
q44 0 68 15t24 43q0 61 -116 61h-57l17 116l58 88q-232 29 -368 189.5t-136 409.5q0 263 102 471.5t283 324.5t408 116q163 0 296.5 -66t209.5 -182t76 -257q0 -28 -2 -43z" />
    <glyph glyph-name="Egrave" unicode="&#xc8;" horiz-adv-x="1274" 
d="M876 1908l177 -318h-266l-217 318h306zM1109 258l-52 -258h-957l307 1443h956l-53 -258h-652l-75 -337h616l-50 -239h-615l-78 -351h653z" />
    <glyph glyph-name="Eacute" unicode="&#xc9;" horiz-adv-x="1274" 
d="M769 1590l343 318h315l-381 -318h-277zM1109 258l-52 -258h-957l307 1443h956l-53 -258h-652l-75 -337h616l-50 -239h-615l-78 -351h653z" />
    <glyph glyph-name="Ecircumflex" unicode="&#xca;" horiz-adv-x="1274" 
d="M1120 1925l187 -335h-249l-92 191h-18l-172 -191h-275l328 335h291zM1109 258l-52 -258h-957l307 1443h956l-53 -258h-652l-75 -337h616l-50 -239h-615l-78 -351h653z" />
    <glyph glyph-name="Edieresis" unicode="&#xcb;" horiz-adv-x="1274" 
d="M713 1579q-68 0 -112 43t-44 109t44 108.5t112 42.5q67 0 111 -42.5t44 -108.5t-44 -109t-111 -43zM1180 1579q-67 0 -111 43t-44 109t44 108.5t111 42.5q68 0 112 -42.5t44 -108.5t-44 -109t-112 -43zM1109 258l-52 -258h-957l307 1443h956l-53 -258h-652l-75 -337h616
l-50 -239h-615l-78 -351h653z" />
    <glyph glyph-name="Igrave" unicode="&#xcc;" horiz-adv-x="653" 
d="M404 0h-304l307 1443h304zM550 1908l177 -318h-266l-217 318h306z" />
    <glyph glyph-name="Iacute" unicode="&#xcd;" horiz-adv-x="653" 
d="M404 0h-304l307 1443h304zM443 1590l343 318h315l-381 -318h-277z" />
    <glyph glyph-name="Icircumflex" unicode="&#xce;" horiz-adv-x="653" 
d="M404 0h-304l307 1443h304zM794 1925l187 -335h-249l-92 191h-18l-172 -191h-275l328 335h291z" />
    <glyph glyph-name="Idieresis" unicode="&#xcf;" horiz-adv-x="653" 
d="M404 0h-304l307 1443h304zM387 1579q-68 0 -112 43t-44 109t44 108.5t112 42.5q67 0 111 -42.5t44 -108.5t-44 -109t-111 -43zM854 1579q-67 0 -111 43t-44 109t44 108.5t111 42.5q68 0 112 -42.5t44 -108.5t-44 -109t-112 -43z" />
    <glyph glyph-name="Eth" unicode="&#xd0;" horiz-adv-x="1516" 
d="M459 257h270q205 0 337 157t132 408q0 170 -92 267.5t-255 97.5h-191l-74 -342h174l-47 -227h-176zM407 1443h511q276 0 433.5 -155.5t157.5 -431.5q0 -245 -96.5 -440.5t-268.5 -305.5t-388 -110h-655l131 618h-174l47 227h175z" />
    <glyph glyph-name="Ntilde" unicode="&#xd1;" horiz-adv-x="1573" 
d="M1221 1578q-45 0 -85 15t-68.5 36t-53 42t-49.5 36t-49 15q-81 0 -97 -104h-181q17 129 91 203t178 74q45 0 85 -15t68 -36t53 -42t50 -36t48 -15q82 0 98 104h181q-18 -129 -91.5 -203t-177.5 -74zM393 0h-293l307 1443h231l479 -929h18l202 929h293l-307 -1443h-229
l-483 922h-18z" />
    <glyph glyph-name="Ograve" unicode="&#xd2;" horiz-adv-x="1617" 
d="M963 1907l177 -318h-266l-217 318h306zM805 -37q-185 0 -328 80t-219.5 219.5t-76.5 313.5q0 157 39 297.5t110.5 250.5t168.5 190.5t218 123t254 42.5q282 0 452 -173t170 -440q0 -197 -60.5 -366t-165 -287t-250 -184.5t-312.5 -66.5zM1283 844q0 165 -89 265t-235 100
q-129 0 -236.5 -80.5t-169.5 -221t-62 -309.5q0 -165 89.5 -265t236.5 -100q129 0 236 79.5t168.5 220t61.5 311.5z" />
    <glyph glyph-name="Oacute" unicode="&#xd3;" horiz-adv-x="1617" 
d="M856 1589l343 318h315l-381 -318h-277zM805 -37q-185 0 -328 80t-219.5 219.5t-76.5 313.5q0 157 39 297.5t110.5 250.5t168.5 190.5t218 123t254 42.5q282 0 452 -173t170 -440q0 -197 -60.5 -366t-165 -287t-250 -184.5t-312.5 -66.5zM1283 844q0 165 -89 265t-235 100
q-129 0 -236.5 -80.5t-169.5 -221t-62 -309.5q0 -165 89.5 -265t236.5 -100q129 0 236 79.5t168.5 220t61.5 311.5z" />
    <glyph glyph-name="Ocircumflex" unicode="&#xd4;" horiz-adv-x="1617" 
d="M1207 1924l187 -335h-249l-92 191h-18l-172 -191h-275l328 335h291zM805 -37q-185 0 -328 80t-219.5 219.5t-76.5 313.5q0 157 39 297.5t110.5 250.5t168.5 190.5t218 123t254 42.5q282 0 452 -173t170 -440q0 -197 -60.5 -366t-165 -287t-250 -184.5t-312.5 -66.5z
M1283 844q0 165 -89 265t-235 100q-129 0 -236.5 -80.5t-169.5 -221t-62 -309.5q0 -165 89.5 -265t236.5 -100q129 0 236 79.5t168.5 220t61.5 311.5z" />
    <glyph glyph-name="Otilde" unicode="&#xd5;" horiz-adv-x="1617" 
d="M805 -37q-185 0 -328 80t-219.5 219.5t-76.5 313.5q0 157 39 297.5t110.5 250.5t168.5 190.5t218 123t254 42.5q282 0 452 -173t170 -440q0 -197 -60.5 -366t-165 -287t-250 -184.5t-312.5 -66.5zM1283 844q0 165 -89 265t-235 100q-129 0 -236.5 -80.5t-169.5 -221
t-62 -309.5q0 -165 89.5 -265t236.5 -100q129 0 236 79.5t168.5 220t61.5 311.5zM1193 1577q-45 0 -85 15t-68.5 36t-53 42t-49.5 36t-49 15q-81 0 -97 -104h-181q17 129 91 203t178 74q45 0 85 -15t68 -36t53 -42t50 -36t48 -15q82 0 98 104h181q-18 -129 -91.5 -203
t-177.5 -74z" />
    <glyph glyph-name="Odieresis" unicode="&#xd6;" horiz-adv-x="1617" 
d="M800 1578q-68 0 -112 43t-44 109t44 108.5t112 42.5q67 0 111 -42.5t44 -108.5t-44 -109t-111 -43zM1267 1578q-67 0 -111 43t-44 109t44 108.5t111 42.5q68 0 112 -42.5t44 -108.5t-44 -109t-112 -43zM805 -37q-185 0 -328 80t-219.5 219.5t-76.5 313.5q0 157 39 297.5
t110.5 250.5t168.5 190.5t218 123t254 42.5q282 0 452 -173t170 -440q0 -197 -60.5 -366t-165 -287t-250 -184.5t-312.5 -66.5zM1283 844q0 165 -89 265t-235 100q-129 0 -236.5 -80.5t-169.5 -221t-62 -309.5q0 -165 89.5 -265t236.5 -100q129 0 236 79.5t168.5 220
t61.5 311.5z" />
    <glyph glyph-name="multiply" unicode="&#xd7;" horiz-adv-x="1415" 
d="M955 82l-231 315l-359 -279l-144 205l359 280l-233 319l211 156l228 -309l361 279l144 -206l-360 -280l235 -324z" />
    <glyph glyph-name="Oslash" unicode="&#xd8;" horiz-adv-x="1592" 
d="M1212 1087l-545 -820q68 -34 150 -34q129 0 236 79.5t168.5 220t61.5 311.5q0 145 -71 243zM572 343l547 826q-71 40 -160 40q-129 0 -236.5 -80.5t-169.5 -221t-62 -309.5q0 -157 81 -255zM1451 1448l-69 -104q101 -83 156 -206.5t55 -270.5q0 -197 -60.5 -366
t-165 -287t-250 -184.5t-312.5 -66.5q-163 0 -297 64l-63 -95l-102 66l62 93q-107 83 -165.5 208.5t-58.5 276.5q0 157 39 297.5t110.5 250.5t168.5 190.5t218 123t254 42.5q172 0 308 -69l64 96z" />
    <glyph glyph-name="Ugrave" unicode="&#xd9;" horiz-adv-x="1564" 
d="M1005 1908l177 -318h-266l-217 318h306zM776 -37q-261 0 -413 131t-153 339q0 64 13 126l187 884h305l-186 -877q-12 -56 -11 -102q2 -108 75 -169t201 -61q127 0 214 72.5t116 206.5l198 930h304l-211 -997q-48 -229 -215 -356t-424 -127z" />
    <glyph glyph-name="Uacute" unicode="&#xda;" horiz-adv-x="1564" 
d="M898 1590l343 318h315l-381 -318h-277zM776 -37q-261 0 -413 131t-153 339q0 64 13 126l187 884h305l-186 -877q-12 -56 -11 -102q2 -108 75 -169t201 -61q127 0 214 72.5t116 206.5l198 930h304l-211 -997q-48 -229 -215 -356t-424 -127z" />
    <glyph glyph-name="Ucircumflex" unicode="&#xdb;" horiz-adv-x="1564" 
d="M1249 1925l187 -335h-249l-92 191h-18l-172 -191h-275l328 335h291zM776 -37q-261 0 -413 131t-153 339q0 64 13 126l187 884h305l-186 -877q-12 -56 -11 -102q2 -108 75 -169t201 -61q127 0 214 72.5t116 206.5l198 930h304l-211 -997q-48 -229 -215 -356t-424 -127z
" />
    <glyph glyph-name="Udieresis" unicode="&#xdc;" horiz-adv-x="1564" 
d="M842 1579q-68 0 -112 43t-44 109t44 108.5t112 42.5q67 0 111 -42.5t44 -108.5t-44 -109t-111 -43zM1309 1579q-67 0 -111 43t-44 109t44 108.5t111 42.5q68 0 112 -42.5t44 -108.5t-44 -109t-112 -43zM776 -37q-261 0 -413 131t-153 339q0 64 13 126l187 884h305
l-186 -877q-12 -56 -11 -102q2 -108 75 -169t201 -61q127 0 214 72.5t116 206.5l198 930h304l-211 -997q-48 -229 -215 -356t-424 -127z" />
    <glyph glyph-name="Yacute" unicode="&#xdd;" horiz-adv-x="1451" 
d="M804 0h-304l114 531l-310 912h316l196 -607h18l447 607h330l-697 -924zM839 1590l343 318h315l-381 -318h-277z" />
    <glyph glyph-name="Thorn" unicode="&#xde;" horiz-adv-x="1382" 
d="M101 0l307 1443h302l-50 -232h270q188 0 309 -112t121 -285q0 -148 -73 -267.5t-206 -188t-302 -68.5h-314l-63 -290h-301zM607 963l-92 -427h237q141 0 222.5 66.5t81.5 179.5q0 87 -56.5 134t-164.5 47h-228z" />
    <glyph glyph-name="germandbls" unicode="&#xdf;" horiz-adv-x="1405" 
d="M394 0h-291l234 1088q36 167 174.5 264t340.5 97q211 0 345.5 -104t134.5 -267q0 -130 -85 -225.5t-217 -115.5l-4 -19q135 -24 211 -103t76 -199q0 -195 -141 -314t-366 -119q-144 0 -252 40l50 234q73 -34 167 -34q109 0 180 58.5t71 149.5q0 81 -67 125.5t-184 44.5
h-75l50 245h75q92 0 156 53.5t64 132.5q0 77 -55 124.5t-143 47.5q-92 0 -154 -56.5t-84 -161.5z" />
    <glyph glyph-name="agrave" unicode="&#xe0;" horiz-adv-x="1202" 
d="M534 202q93 0 165 52t90 132l21 95l-228 -8q-100 -4 -156.5 -43t-56.5 -104q0 -55 46 -89.5t119 -34.5zM411 -17q-140 0 -234 86t-94 215q0 168 129.5 266.5t361.5 105.5l274 9l15 68q5 25 5 40q0 57 -49 90.5t-133 33.5q-147 0 -192 -98h-275q35 151 167.5 239.5
t320.5 88.5q202 0 325 -89.5t123 -235.5q0 -50 -9 -89l-151 -713h-283l29 136h-18q-47 -71 -131 -112t-181 -41zM905 1281h-265l-250 353h303z" />
    <glyph glyph-name="aacute" unicode="&#xe1;" horiz-adv-x="1202" 
d="M534 202q93 0 165 52t90 132l21 95l-228 -8q-100 -4 -156.5 -43t-56.5 -104q0 -55 46 -89.5t119 -34.5zM411 -17q-140 0 -234 86t-94 215q0 168 129.5 266.5t361.5 105.5l274 9l15 68q5 25 5 40q0 57 -49 90.5t-133 33.5q-147 0 -192 -98h-275q35 151 167.5 239.5
t320.5 88.5q202 0 325 -89.5t123 -235.5q0 -50 -9 -89l-151 -713h-283l29 136h-18q-47 -71 -131 -112t-181 -41zM629 1281l323 353h310l-361 -353h-272z" />
    <glyph glyph-name="acircumflex" unicode="&#xe2;" horiz-adv-x="1202" 
d="M534 202q93 0 165 52t90 132l21 95l-228 -8q-100 -4 -156.5 -43t-56.5 -104q0 -55 46 -89.5t119 -34.5zM411 -17q-140 0 -234 86t-94 215q0 168 129.5 266.5t361.5 105.5l274 9l15 68q5 25 5 40q0 57 -49 90.5t-133 33.5q-147 0 -192 -98h-275q35 151 167.5 239.5
t320.5 88.5q202 0 325 -89.5t123 -235.5q0 -50 -9 -89l-151 -713h-283l29 136h-18q-47 -71 -131 -112t-181 -41zM958 1605l200 -354h-250l-104 209h-18l-193 -209h-276l350 354h291z" />
    <glyph glyph-name="atilde" unicode="&#xe3;" horiz-adv-x="1202" 
d="M534 202q93 0 165 52t90 132l21 95l-228 -8q-100 -4 -156.5 -43t-56.5 -104q0 -55 46 -89.5t119 -34.5zM411 -17q-140 0 -234 86t-94 215q0 168 129.5 266.5t361.5 105.5l274 9l15 68q5 25 5 40q0 57 -49 90.5t-133 33.5q-147 0 -192 -98h-275q35 151 167.5 239.5
t320.5 88.5q202 0 325 -89.5t123 -235.5q0 -50 -9 -89l-151 -713h-283l29 136h-18q-47 -71 -131 -112t-181 -41zM950 1247q-46 0 -86 17t-67.5 41t-51 48t-48.5 41t-50 17q-75 0 -94 -124h-184q16 135 90.5 216t180.5 81q46 0 85.5 -17t67 -41t51 -48t48.5 -41t50 -17
q76 0 95 124h184q-16 -136 -90.5 -216.5t-180.5 -80.5z" />
    <glyph glyph-name="adieresis" unicode="&#xe4;" horiz-adv-x="1202" 
d="M534 202q93 0 165 52t90 132l21 95l-228 -8q-100 -4 -156.5 -43t-56.5 -104q0 -55 46 -89.5t119 -34.5zM411 -17q-140 0 -234 86t-94 215q0 168 129.5 266.5t361.5 105.5l274 9l15 68q5 25 5 40q0 57 -49 90.5t-133 33.5q-147 0 -192 -98h-275q35 151 167.5 239.5
t320.5 88.5q202 0 325 -89.5t123 -235.5q0 -50 -9 -89l-151 -713h-283l29 136h-18q-47 -71 -131 -112t-181 -41zM548 1251q-68 0 -112 43t-44 109t44 108.5t112 42.5q67 0 111 -42.5t44 -108.5t-44 -109t-111 -43zM1015 1251q-67 0 -111 43t-44 109t44 108.5t111 42.5
q68 0 112 -42.5t44 -108.5t-44 -109t-112 -43z" />
    <glyph glyph-name="aring" unicode="&#xe5;" horiz-adv-x="1202" 
d="M534 202q93 0 165 52t90 132l21 95l-228 -8q-100 -4 -156.5 -43t-56.5 -104q0 -55 46 -89.5t119 -34.5zM411 -17q-140 0 -234 86t-94 215q0 168 129.5 266.5t361.5 105.5l274 9l15 68q5 25 5 40q0 57 -49 90.5t-133 33.5q-147 0 -192 -98h-275q35 151 167.5 239.5
t320.5 88.5q202 0 325 -89.5t123 -235.5q0 -50 -9 -89l-151 -713h-283l29 136h-18q-47 -71 -131 -112t-181 -41zM837 1251q-105 0 -175.5 68.5t-70.5 172.5q0 103 70 170.5t176 67.5q105 0 175 -67.5t70 -170.5q0 -104 -70 -172.5t-175 -68.5zM836 1387q46 0 76 29.5
t30 74.5q0 44 -30 73.5t-76 29.5t-75.5 -29.5t-29.5 -73.5q0 -46 29.5 -75t75.5 -29z" />
    <glyph glyph-name="ae" unicode="&#xe6;" horiz-adv-x="1925" 
d="M1297 -24q-123 0 -233 56.5t-154 145.5h-18q-58 -87 -170.5 -144.5t-244.5 -57.5q-171 0 -281.5 89.5t-110.5 222.5q0 174 127.5 270.5t363.5 104.5l274 9l15 61q5 28 5 40q0 57 -49 90.5t-134 33.5q-147 0 -191 -98h-275q35 154 164.5 241t317.5 87q115 0 205 -42
t132 -114h18q68 75 160.5 115.5t199.5 40.5q193 0 323.5 -128t131.5 -334q0 -86 -18 -180h-768q-1 -8 -1 -32q0 -121 66 -185.5t166 -64.5q161 0 216 114h281q-39 -154 -178 -247.5t-340 -93.5zM1118 669h479q3 9 3 38q0 85 -54.5 140.5t-148.5 55.5q-100 0 -175 -64
t-104 -170zM536 195q92 0 164.5 55t90.5 136l21 95l-228 -8q-100 -4 -157 -43t-57 -105q0 -56 46.5 -93t119.5 -37z" />
    <glyph glyph-name="ccedilla" unicode="&#xe7;" horiz-adv-x="1214" 
d="M1198 723h-276q-4 76 -59.5 120.5t-139.5 44.5q-131 0 -215 -122t-84 -303q0 -120 58 -183t150 -63q82 0 141 40.5t84 115.5h279q-27 -159 -151 -269t-313 -126l-64 -98q159 -26 159 -164q0 -96 -72 -154t-191 -58q-107 0 -186 36l28 133q65 -27 142 -27q44 0 68 15
t24 43q0 61 -116 61h-57l17 116l70 106q-169 33 -265 153.5t-96 300.5q0 195 76 351t215.5 245.5t317.5 89.5q193 0 317 -107t137 -254q2 -13 2 -43z" />
    <glyph glyph-name="egrave" unicode="&#xe8;" horiz-adv-x="1248" 
d="M879 1281h-265l-250 353h303zM624 -24q-218 0 -353 127t-135 347q0 302 166 489.5t431 187.5q201 0 333 -127t132 -335q0 -82 -17 -180h-770q0 -4 -0.5 -15.5t-0.5 -15.5q0 -122 66 -186.5t166 -64.5q163 0 218 114h280q-38 -154 -176.5 -247.5t-339.5 -93.5zM443 669
h479q3 18 3 38q0 85 -55 140.5t-149 55.5q-99 0 -174 -64t-104 -170z" />
    <glyph glyph-name="eacute" unicode="&#xe9;" horiz-adv-x="1248" 
d="M603 1281l323 353h310l-361 -353h-272zM624 -24q-218 0 -353 127t-135 347q0 302 166 489.5t431 187.5q201 0 333 -127t132 -335q0 -82 -17 -180h-770q0 -4 -0.5 -15.5t-0.5 -15.5q0 -122 66 -186.5t166 -64.5q163 0 218 114h280q-38 -154 -176.5 -247.5t-339.5 -93.5z
M443 669h479q3 18 3 38q0 85 -55 140.5t-149 55.5q-99 0 -174 -64t-104 -170z" />
    <glyph glyph-name="ecircumflex" unicode="&#xea;" horiz-adv-x="1248" 
d="M967 1605l200 -354h-250l-104 209h-18l-193 -209h-276l350 354h291zM624 -24q-218 0 -353 127t-135 347q0 302 166 489.5t431 187.5q201 0 333 -127t132 -335q0 -82 -17 -180h-770q0 -4 -0.5 -15.5t-0.5 -15.5q0 -122 66 -186.5t166 -64.5q163 0 218 114h280
q-38 -154 -176.5 -247.5t-339.5 -93.5zM443 669h479q3 18 3 38q0 85 -55 140.5t-149 55.5q-99 0 -174 -64t-104 -170z" />
    <glyph glyph-name="edieresis" unicode="&#xeb;" horiz-adv-x="1248" 
d="M624 -24q-218 0 -353 127t-135 347q0 302 166 489.5t431 187.5q201 0 333 -127t132 -335q0 -82 -17 -180h-770q0 -4 -0.5 -15.5t-0.5 -15.5q0 -122 66 -186.5t166 -64.5q163 0 218 114h280q-38 -154 -176.5 -247.5t-339.5 -93.5zM443 669h479q3 18 3 38q0 85 -55 140.5
t-149 55.5q-99 0 -174 -64t-104 -170zM557 1251q-68 0 -112 43t-44 109t44 108.5t112 42.5q67 0 111 -42.5t44 -108.5t-44 -109t-111 -43zM1024 1251q-67 0 -111 43t-44 109t44 108.5t111 42.5q68 0 112 -42.5t44 -108.5t-44 -109t-112 -43z" />
    <glyph glyph-name="igrave" unicode="&#xec;" horiz-adv-x="599" 
d="M610 1281h-265l-250 353h303zM79 0l234 1103h291l-234 -1103h-291z" />
    <glyph glyph-name="iacute" unicode="&#xed;" horiz-adv-x="599" 
d="M334 1281l323 353h310l-361 -353h-272zM79 0l234 1103h291l-234 -1103h-291z" />
    <glyph glyph-name="icircumflex" unicode="&#xee;" horiz-adv-x="599" 
d="M698 1605l200 -354h-250l-104 209h-18l-193 -209h-276l350 354h291zM79 0l234 1103h291l-234 -1103h-291z" />
    <glyph glyph-name="idieresis" unicode="&#xef;" horiz-adv-x="599" 
d="M79 0l234 1103h291l-234 -1103h-291zM288 1251q-68 0 -112 43t-44 109t44 108.5t112 42.5q67 0 111 -42.5t44 -108.5t-44 -109t-111 -43zM755 1251q-67 0 -111 43t-44 109t44 108.5t111 42.5q68 0 112 -42.5t44 -108.5t-44 -109t-112 -43z" />
    <glyph glyph-name="eth" unicode="&#xf0;" horiz-adv-x="1301" 
d="M633 -24q-221 0 -363 133.5t-142 338.5q0 174 68 316.5t188.5 224t267.5 81.5q105 0 194 -44t124 -113l18 -1q-8 151 -102 314l-312 -94l-24 151l244 74q-59 70 -160 157h330q48 -48 72 -79l253 80l25 -152l-188 -58q144 -248 144 -523q0 -168 -42 -307
q-68 -232 -226 -365.5t-369 -133.5zM956 609q0 105 -64 170.5t-165 65.5q-122 0 -209 -113.5t-87 -271.5q0 -108 60 -172t161 -64q119 0 211.5 117t92.5 268z" />
    <glyph glyph-name="ntilde" unicode="&#xf1;" horiz-adv-x="1304" 
d="M977 1253q-46 0 -86 17t-67.5 41t-51 48t-48.5 41t-50 17q-75 0 -94 -124h-184q16 135 90.5 216t180.5 81q46 0 85.5 -17t67 -41t51 -48t48.5 -41t50 -17q76 0 95 124h184q-16 -136 -90.5 -216.5t-180.5 -80.5zM67 0l236 1112h282l-37 -175h18q55 87 144.5 138.5
t203.5 51.5q152 0 245.5 -90.5t93.5 -229.5q0 -58 -14 -131l-142 -676h-291l132 628q10 46 10 84q0 76 -52 123.5t-137 47.5q-96 0 -167.5 -62.5t-92.5 -161.5l-140 -659h-292z" />
    <glyph glyph-name="ograve" unicode="&#xf2;" horiz-adv-x="1289" 
d="M900 1281h-265l-250 353h303zM438 467q0 -115 55 -183.5t152 -68.5q120 0 209 120.5t89 292.5q0 123 -53 192t-148 69q-132 0 -218 -122t-86 -300zM628 -24q-222 0 -357.5 132.5t-135.5 349.5q0 185 77.5 337.5t221 242t324.5 89.5q222 0 356 -133t134 -350
q0 -183 -76.5 -335t-219.5 -242.5t-324 -90.5z" />
    <glyph glyph-name="oacute" unicode="&#xf3;" horiz-adv-x="1289" 
d="M624 1281l323 353h310l-361 -353h-272zM438 467q0 -115 55 -183.5t152 -68.5q120 0 209 120.5t89 292.5q0 123 -53 192t-148 69q-132 0 -218 -122t-86 -300zM628 -24q-222 0 -357.5 132.5t-135.5 349.5q0 185 77.5 337.5t221 242t324.5 89.5q222 0 356 -133t134 -350
q0 -183 -76.5 -335t-219.5 -242.5t-324 -90.5z" />
    <glyph glyph-name="ocircumflex" unicode="&#xf4;" horiz-adv-x="1289" 
d="M988 1605l200 -354h-250l-104 209h-18l-193 -209h-276l350 354h291zM438 467q0 -115 55 -183.5t152 -68.5q120 0 209 120.5t89 292.5q0 123 -53 192t-148 69q-132 0 -218 -122t-86 -300zM628 -24q-222 0 -357.5 132.5t-135.5 349.5q0 185 77.5 337.5t221 242t324.5 89.5
q222 0 356 -133t134 -350q0 -183 -76.5 -335t-219.5 -242.5t-324 -90.5z" />
    <glyph glyph-name="otilde" unicode="&#xf5;" horiz-adv-x="1289" 
d="M980 1247q-46 0 -86 17t-67.5 41t-51 48t-48.5 41t-50 17q-75 0 -94 -124h-184q16 135 90.5 216t180.5 81q46 0 85.5 -17t67 -41t51 -48t48.5 -41t50 -17q76 0 95 124h184q-16 -136 -90.5 -216.5t-180.5 -80.5zM438 467q0 -115 55 -183.5t152 -68.5q120 0 209 120.5
t89 292.5q0 123 -53 192t-148 69q-132 0 -218 -122t-86 -300zM628 -24q-222 0 -357.5 132.5t-135.5 349.5q0 185 77.5 337.5t221 242t324.5 89.5q222 0 356 -133t134 -350q0 -183 -76.5 -335t-219.5 -242.5t-324 -90.5z" />
    <glyph glyph-name="odieresis" unicode="&#xf6;" horiz-adv-x="1289" 
d="M578 1251q-68 0 -112 43t-44 109t44 108.5t112 42.5q67 0 111 -42.5t44 -108.5t-44 -109t-111 -43zM1045 1251q-67 0 -111 43t-44 109t44 108.5t111 42.5q68 0 112 -42.5t44 -108.5t-44 -109t-112 -43zM438 467q0 -115 55 -183.5t152 -68.5q120 0 209 120.5t89 292.5
q0 123 -53 192t-148 69q-132 0 -218 -122t-86 -300zM628 -24q-222 0 -357.5 132.5t-135.5 349.5q0 185 77.5 337.5t221 242t324.5 89.5q222 0 356 -133t134 -350q0 -183 -76.5 -335t-219.5 -242.5t-324 -90.5z" />
    <glyph glyph-name="divide" unicode="&#xf7;" horiz-adv-x="1416" 
d="M1274 472h-1080l47 225h1080zM831 814q-75 0 -120.5 45.5t-45.5 111.5q0 73 45.5 120t120.5 47q74 0 119.5 -45.5t45.5 -111.5q0 -73 -45 -120t-120 -47zM666 30q-75 0 -120.5 45.5t-45.5 111.5q0 73 45.5 120.5t120.5 47.5q74 0 119.5 -46t45.5 -112q0 -73 -45 -120
t-120 -47z" />
    <glyph glyph-name="oslash" unicode="&#xf8;" horiz-adv-x="1298" 
d="M924 754l-410 -492q53 -47 131 -47q120 0 209 120.5t89 292.5q0 73 -19 126zM453 359l409 490q-49 40 -120 40q-132 0 -218 -122t-86 -300q0 -60 15 -108zM1225 1114l-105 -126q128 -131 128 -344q0 -183 -76.5 -335t-219.5 -242.5t-324 -90.5q-168 0 -288 77l-105 -126
l-90 63l111 133q-121 130 -121 335q0 185 77.5 337.5t221 242t324.5 89.5q160 0 277 -71l97 116z" />
    <glyph glyph-name="ugrave" unicode="&#xf9;" horiz-adv-x="1305" 
d="M955 1281h-265l-250 353h303zM1322 1103l-233 -1103h-283l36 167h-18q-50 -89 -139.5 -140t-203.5 -51q-152 0 -247 88.5t-95 233.5q0 58 15 141l139 664h293l-131 -616q-10 -47 -10 -86q0 -85 47.5 -129t136.5 -44q99 0 170 63t94 168l137 644h292z" />
    <glyph glyph-name="uacute" unicode="&#xfa;" horiz-adv-x="1305" 
d="M679 1281l323 353h310l-361 -353h-272zM1322 1103l-233 -1103h-283l36 167h-18q-50 -89 -139.5 -140t-203.5 -51q-152 0 -247 88.5t-95 233.5q0 58 15 141l139 664h293l-131 -616q-10 -47 -10 -86q0 -85 47.5 -129t136.5 -44q99 0 170 63t94 168l137 644h292z" />
    <glyph glyph-name="ucircumflex" unicode="&#xfb;" horiz-adv-x="1305" 
d="M1043 1605l200 -354h-250l-104 209h-18l-193 -209h-276l350 354h291zM1322 1103l-233 -1103h-283l36 167h-18q-50 -89 -139.5 -140t-203.5 -51q-152 0 -247 88.5t-95 233.5q0 58 15 141l139 664h293l-131 -616q-10 -47 -10 -86q0 -85 47.5 -129t136.5 -44q99 0 170 63
t94 168l137 644h292z" />
    <glyph glyph-name="udieresis" unicode="&#xfc;" horiz-adv-x="1305" 
d="M1322 1103l-233 -1103h-283l36 167h-18q-50 -89 -139.5 -140t-203.5 -51q-152 0 -247 88.5t-95 233.5q0 58 15 141l139 664h293l-131 -616q-10 -47 -10 -86q0 -85 47.5 -129t136.5 -44q99 0 170 63t94 168l137 644h292zM633 1251q-68 0 -112 43t-44 109t44 108.5
t112 42.5q67 0 111 -42.5t44 -108.5t-44 -109t-111 -43zM1100 1251q-67 0 -111 43t-44 109t44 108.5t111 42.5q68 0 112 -42.5t44 -108.5t-44 -109t-112 -43z" />
    <glyph glyph-name="yacute" unicode="&#xfd;" horiz-adv-x="1208" 
d="M131 -403q-62 0 -132 5l46 235q20 -6 81 -6q151 0 211 122l22 44l-144 1106h297l64 -822h18l405 822h312l-630 -1143q-106 -200 -231.5 -281.5t-318.5 -81.5zM635 1281l323 353h310l-361 -353h-272z" />
    <glyph glyph-name="thorn" unicode="&#xfe;" horiz-adv-x="1337" 
d="M680 230q131 0 221 120.5t90 298.5q0 111 -56.5 171t-149.5 60q-131 0 -224 -122.5t-93 -292.5q0 -111 58.5 -173t153.5 -62zM407 200l-117 -545h-292l395 1852h291l-118 -557h18q121 172 332 172q165 0 271 -116t106 -307q0 -203 -73 -367t-200 -256.5t-282 -92.5
q-117 0 -201.5 59.5t-111.5 157.5h-18z" />
    <glyph glyph-name="ydieresis" unicode="&#xff;" horiz-adv-x="1208" 
d="M131 -403q-62 0 -132 5l46 235q20 -6 81 -6q151 0 211 122l22 44l-144 1106h297l64 -822h18l405 822h312l-630 -1143q-106 -200 -231.5 -281.5t-318.5 -81.5zM589 1251q-68 0 -112 43t-44 109t44 108.5t112 42.5q67 0 111 -42.5t44 -108.5t-44 -109t-111 -43zM1056 1251
q-67 0 -111 43t-44 109t44 108.5t111 42.5q68 0 112 -42.5t44 -108.5t-44 -109t-112 -43z" />
    <glyph glyph-name="Amacron" unicode="&#x100;" horiz-adv-x="1501" 
d="M1042 0l-35 344h-509l-186 -344h-315l820 1443h349l187 -1443h-311zM916 1142l-304 -565h381l-58 565h-19zM1404 1632h-745l37 181h746z" />
    <glyph glyph-name="amacron" unicode="&#x101;" horiz-adv-x="1202" 
d="M534 202q93 0 165 52t90 132l21 95l-228 -8q-100 -4 -156.5 -43t-56.5 -104q0 -55 46 -89.5t119 -34.5zM411 -17q-140 0 -234 86t-94 215q0 168 129.5 266.5t361.5 105.5l274 9l15 68q5 25 5 40q0 57 -49 90.5t-133 33.5q-147 0 -192 -98h-275q35 151 167.5 239.5
t320.5 88.5q202 0 325 -89.5t123 -235.5q0 -50 -9 -89l-151 -713h-283l29 136h-18q-47 -71 -131 -112t-181 -41zM1131 1316h-735l38 180h735z" />
    <glyph glyph-name="Abreve" unicode="&#x102;" horiz-adv-x="1501" 
d="M1042 0l-35 344h-509l-186 -344h-315l820 1443h349l187 -1443h-311zM916 1142l-304 -565h381l-58 565h-19zM657 1884q0 11 2 31h205v-21q0 -63 51.5 -103.5t129.5 -40.5q82 0 134.5 42.5t70.5 122.5h205q-22 -153 -134 -244.5t-282 -91.5q-167 0 -274.5 86.5
t-107.5 218.5z" />
    <glyph glyph-name="abreve" unicode="&#x103;" horiz-adv-x="1202" 
d="M534 202q93 0 165 52t90 132l21 95l-228 -8q-100 -4 -156.5 -43t-56.5 -104q0 -55 46 -89.5t119 -34.5zM411 -17q-140 0 -234 86t-94 215q0 168 129.5 266.5t361.5 105.5l274 9l15 68q5 25 5 40q0 57 -49 90.5t-133 33.5q-147 0 -192 -98h-275q35 151 167.5 239.5
t320.5 88.5q202 0 325 -89.5t123 -235.5q0 -50 -9 -89l-151 -713h-283l29 136h-18q-47 -71 -131 -112t-181 -41zM403 1602h205q-2 -16 -2 -29q0 -68 50 -110t132 -42q90 0 144.5 46.5t69.5 134.5h206q-16 -161 -130 -256t-297 -95q-172 0 -277 86.5t-105 218.5q0 26 4 46z
" />
    <glyph glyph-name="Aogonek" unicode="&#x104;" horiz-adv-x="1501" 
d="M916 1142l-304 -565h381l-58 565h-19zM1271 -444q-53 -14 -108 -14q-116 0 -185.5 54.5t-69.5 146.5q0 150 184 259l2 11h-54l-33 331h-509l-186 -344h-315l820 1443h349l184 -1412q-107 -49 -164.5 -106.5t-57.5 -117.5q0 -44 31.5 -68t88.5 -24q40 0 57 5z" />
    <glyph glyph-name="aogonek" unicode="&#x105;" horiz-adv-x="1202" 
d="M810 -458q-120 0 -189 62t-58 160q13 136 186 231l2 11h-36l26 130h-18q-48 -71 -132 -112t-180 -41q-140 0 -234 86t-94 215q0 168 129.5 266.5t361.5 105.5l274 9l15 68q5 26 5 40q0 57 -49 90.5t-133 33.5q-147 0 -192 -98h-275q35 151 167.5 239.5t320.5 88.5
q202 0 325 -89.5t123 -235.5q0 -50 -9 -89l-145 -682q-102 -46 -158 -100t-62 -112q-5 -48 26 -76t89 -28q42 0 60 5l-33 -164q-54 -14 -113 -14zM534 202q93 0 165 52t90 132l21 95l-228 -8q-99 -4 -156 -43t-57 -104q0 -55 46 -89.5t119 -34.5z" />
    <glyph glyph-name="Cacute" unicode="&#x106;" horiz-adv-x="1534" 
d="M847 1591l343 318h315l-381 -318h-277zM1259 932v14q-5 120 -88.5 193t-216.5 73q-129 0 -236 -81t-168 -224t-61 -318q0 -166 84.5 -262.5t230.5 -96.5q123 0 220 64t132 170h299q-47 -228 -231 -364.5t-446 -136.5q-272 0 -435 165t-163 440q0 263 102 471.5t283 324.5
t408 116q163 0 296.5 -66t209.5 -182t76 -257q0 -28 -2 -43h-294z" />
    <glyph glyph-name="cacute" unicode="&#x107;" horiz-adv-x="1218" 
d="M1198 723h-276q-4 76 -59.5 120.5t-139.5 44.5q-131 0 -215 -122t-84 -303q0 -120 58 -183t150 -63q82 0 141 40.5t84 115.5h279q-29 -172 -169.5 -284.5t-351.5 -112.5q-220 0 -351 126.5t-131 338.5q0 195 76 351t215.5 245.5t317.5 89.5q193 0 317 -107t137 -254
q2 -13 2 -43zM629 1281l323 353h310l-361 -353h-272z" />
    <glyph glyph-name="Ccircumflex" unicode="&#x108;" horiz-adv-x="1534" 
d="M1259 932v14q-5 120 -88.5 193t-216.5 73q-129 0 -236 -81t-168 -224t-61 -318q0 -166 84.5 -262.5t230.5 -96.5q123 0 220 64t132 170h299q-47 -228 -231 -364.5t-446 -136.5q-272 0 -435 165t-163 440q0 263 102 471.5t283 324.5t408 116q163 0 296.5 -66t209.5 -182
t76 -257q0 -28 -2 -43h-294zM1198 1926l187 -335h-249l-92 191h-18l-172 -191h-275l328 335h291z" />
    <glyph glyph-name="ccircumflex" unicode="&#x109;" horiz-adv-x="1218" 
d="M993 1605l200 -354h-250l-104 209h-18l-193 -209h-276l350 354h291zM1198 723h-276q-4 76 -59.5 120.5t-139.5 44.5q-131 0 -215 -122t-84 -303q0 -120 58 -183t150 -63q82 0 141 40.5t84 115.5h279q-29 -172 -169.5 -284.5t-351.5 -112.5q-220 0 -351 126.5t-131 338.5
q0 195 76 351t215.5 245.5t317.5 89.5q193 0 317 -107t137 -254q2 -13 2 -43z" />
    <glyph glyph-name="Cdotaccent" unicode="&#x10a;" horiz-adv-x="1534" 
d="M1028 1580q-69 0 -113.5 45t-44.5 113t44.5 113t113.5 45t113 -45t44 -113t-44 -113t-113 -45zM1259 932v14q-5 120 -88.5 193t-216.5 73q-129 0 -236 -81t-168 -224t-61 -318q0 -166 84.5 -262.5t230.5 -96.5q123 0 220 64t132 170h299q-47 -228 -231 -364.5
t-446 -136.5q-272 0 -435 165t-163 440q0 263 102 471.5t283 324.5t408 116q163 0 296.5 -66t209.5 -182t76 -257q0 -28 -2 -43h-294z" />
    <glyph glyph-name="cdotaccent" unicode="&#x10b;" horiz-adv-x="1218" 
d="M1198 723h-276q-4 76 -59.5 120.5t-139.5 44.5q-131 0 -215 -122t-84 -303q0 -120 58 -183t150 -63q82 0 141 40.5t84 115.5h279q-29 -172 -169.5 -284.5t-351.5 -112.5q-220 0 -351 126.5t-131 338.5q0 195 76 351t215.5 245.5t317.5 89.5q193 0 317 -107t137 -254
q2 -13 2 -43zM825 1274q-68 0 -114.5 47t-46.5 117t46.5 117t114.5 47t114.5 -47t46.5 -117t-46.5 -117t-114.5 -47z" />
    <glyph glyph-name="Ccaron" unicode="&#x10c;" horiz-adv-x="1534" 
d="M1259 932v14q-5 120 -88.5 193t-216.5 73q-129 0 -236 -81t-168 -224t-61 -318q0 -166 84.5 -262.5t230.5 -96.5q123 0 220 64t132 170h299q-47 -228 -231 -364.5t-446 -136.5q-272 0 -435 165t-163 440q0 263 102 471.5t283 324.5t408 116q163 0 296.5 -66t209.5 -182
t76 -257q0 -28 -2 -43h-294zM862 1591l-188 335h250l92 -191h18l172 191h275l-328 -335h-291z" />
    <glyph glyph-name="ccaron" unicode="&#x10d;" horiz-adv-x="1218" 
d="M946 1251h-291l-200 354h249l103 -209h18l194 209h277zM1198 723h-276q-4 76 -59.5 120.5t-139.5 44.5q-131 0 -215 -122t-84 -303q0 -120 58 -183t150 -63q82 0 141 40.5t84 115.5h279q-29 -172 -169.5 -284.5t-351.5 -112.5q-220 0 -351 126.5t-131 338.5q0 195 76 351
t215.5 245.5t317.5 89.5q193 0 317 -107t137 -254q2 -13 2 -43z" />
    <glyph glyph-name="Dcaron" unicode="&#x10e;" horiz-adv-x="1535" 
d="M737 1590l-188 335h250l92 -191h18l172 191h275l-328 -335h-291zM407 1443h511q276 0 433.5 -155.5t157.5 -431.5q0 -245 -96.5 -440.5t-268.5 -305.5t-388 -110h-655zM660 1187l-201 -930h270q205 0 337 157t132 408q0 170 -92 267.5t-255 97.5h-191z" />
    <glyph glyph-name="dcaron" unicode="&#x10f;" horiz-adv-x="1559" 
d="M1572 1524h251l-157 -505h-201zM511 -17q-168 0 -275 116t-107 314q0 201 74 364t202 253.5t283 90.5q119 0 202.5 -57.5t110.5 -148.5h18l130 609h292l-323 -1524h-283l32 153h-18q-59 -80 -145 -125t-193 -45zM641 223q131 0 223 122.5t92 293.5q0 111 -58.5 173
t-153.5 62q-132 0 -222.5 -117.5t-90.5 -293.5q0 -110 59.5 -175t150.5 -65z" />
    <glyph glyph-name="Dcroat" unicode="&#x110;" horiz-adv-x="1518" 
d="M459 257h270q205 0 337 157t132 408q0 170 -92 267.5t-255 97.5h-191l-74 -342h204l-48 -227h-205zM407 1443h511q276 0 433.5 -155.5t157.5 -431.5q0 -245 -96.5 -440.5t-268.5 -305.5t-388 -110h-655l131 618h-144l47 227h145z" />
    <glyph glyph-name="dcroat" unicode="&#x111;" horiz-adv-x="1343" 
d="M641 223q131 0 223 122.5t92 293.5q0 111 -58.5 173t-153.5 62q-132 0 -222.5 -117.5t-90.5 -293.5q0 -110 59.5 -175t150.5 -65zM1551 1412l-32 -152h-134l-267 -1260h-283l32 153h-18q-59 -80 -145 -125t-193 -45q-168 0 -275 116t-107 314q0 201 74 364t202 253.5
t283 90.5q119 0 202.5 -57.5t110.5 -148.5h18l74 345h-182l32 152h182l24 112h292l-24 -112h134z" />
    <glyph glyph-name="Emacron" unicode="&#x112;" horiz-adv-x="1274" 
d="M1109 258l-52 -258h-957l307 1443h956l-53 -258h-652l-75 -337h616l-50 -239h-615l-78 -351h653zM1298 1632h-745l37 181h746z" />
    <glyph glyph-name="emacron" unicode="&#x113;" horiz-adv-x="1248" 
d="M624 -24q-218 0 -353 127t-135 347q0 302 166 489.5t431 187.5q201 0 333 -127t132 -335q0 -82 -17 -180h-770q0 -4 -0.5 -15.5t-0.5 -15.5q0 -122 66 -186.5t166 -64.5q163 0 218 114h280q-38 -154 -176.5 -247.5t-339.5 -93.5zM443 669h479q3 18 3 38q0 85 -55 140.5
t-149 55.5q-99 0 -174 -64t-104 -170zM1140 1316h-735l38 180h735z" />
    <glyph glyph-name="Ebreve" unicode="&#x114;" horiz-adv-x="1274" 
d="M1109 258l-52 -258h-957l307 1443h956l-53 -258h-652l-75 -337h616l-50 -239h-615l-78 -351h653zM551 1884q0 11 2 31h205v-21q0 -63 51.5 -103.5t129.5 -40.5q82 0 134.5 42.5t70.5 122.5h205q-22 -153 -134 -244.5t-282 -91.5q-167 0 -274.5 86.5t-107.5 218.5z" />
    <glyph glyph-name="ebreve" unicode="&#x115;" horiz-adv-x="1248" 
d="M624 -24q-218 0 -353 127t-135 347q0 302 166 489.5t431 187.5q201 0 333 -127t132 -335q0 -82 -17 -180h-770q0 -4 -0.5 -15.5t-0.5 -15.5q0 -122 66 -186.5t166 -64.5q163 0 218 114h280q-38 -154 -176.5 -247.5t-339.5 -93.5zM443 669h479q3 18 3 38q0 85 -55 140.5
t-149 55.5q-99 0 -174 -64t-104 -170zM412 1602h205q-2 -16 -2 -29q0 -68 50 -110t132 -42q90 0 144.5 46.5t69.5 134.5h206q-16 -161 -130 -256t-297 -95q-172 0 -277 86.5t-105 218.5q0 26 4 46z" />
    <glyph glyph-name="Edotaccent" unicode="&#x116;" horiz-adv-x="1274" 
d="M950 1579q-69 0 -113.5 45t-44.5 113t44.5 113t113.5 45t113 -45t44 -113t-44 -113t-113 -45zM1109 258l-52 -258h-957l307 1443h956l-53 -258h-652l-75 -337h616l-50 -239h-615l-78 -351h653z" />
    <glyph glyph-name="edotaccent" unicode="&#x117;" horiz-adv-x="1248" 
d="M799 1274q-68 0 -114.5 47t-46.5 117t46.5 117t114.5 47t114.5 -47t46.5 -117t-46.5 -117t-114.5 -47zM624 -24q-218 0 -353 127t-135 347q0 302 166 489.5t431 187.5q201 0 333 -127t132 -335q0 -82 -17 -180h-770q0 -4 -0.5 -15.5t-0.5 -15.5q0 -122 66 -186.5
t166 -64.5q163 0 218 114h280q-38 -154 -176.5 -247.5t-339.5 -93.5zM443 669h479q3 18 3 38q0 85 -55 140.5t-149 55.5q-99 0 -174 -64t-104 -170z" />
    <glyph glyph-name="Eogonek" unicode="&#x118;" horiz-adv-x="1274" 
d="M854 -458q-116 0 -185.5 54.5t-69.5 146.5q0 141 162 246l2 11h-663l307 1443h956l-53 -258h-652l-75 -337h616l-50 -239h-615l-78 -351h653l-45 -218q-117 -44 -181 -105t-64 -128q0 -42 32.5 -67t87.5 -25q40 0 57 5l-34 -164q-53 -14 -108 -14z" />
    <glyph glyph-name="eogonek" unicode="&#x119;" horiz-adv-x="1251" 
d="M737 -458q-116 0 -187 55t-71 139q0 72 37.5 129t101.5 95l-1 17h-14q-214 6 -340.5 134t-126.5 339q0 301 165.5 489t431.5 188q205 0 335 -129t130 -333q0 -84 -17 -180h-770q0 -7 -0.5 -17.5t-0.5 -13.5q0 -115 63 -183t169 -68q163 0 218 114h280q-21 -84 -78.5 -153
t-162.5 -136q-109 -69 -155 -120.5t-46 -102.5q0 -92 129 -92q28 0 44 2l-34 -161q-43 -12 -100 -12zM443 669h479q3 18 3 38q0 88 -56.5 142t-147.5 54q-98 0 -173.5 -63t-104.5 -171z" />
    <glyph glyph-name="Ecaron" unicode="&#x11a;" horiz-adv-x="1274" 
d="M784 1590l-188 335h250l92 -191h18l172 191h275l-328 -335h-291zM1109 258l-52 -258h-957l307 1443h956l-53 -258h-652l-75 -337h616l-50 -239h-615l-78 -351h653z" />
    <glyph glyph-name="ecaron" unicode="&#x11b;" horiz-adv-x="1248" 
d="M920 1251h-291l-200 354h249l103 -209h18l194 209h277zM624 -24q-218 0 -353 127t-135 347q0 302 166 489.5t431 187.5q201 0 333 -127t132 -335q0 -82 -17 -180h-770q0 -4 -0.5 -15.5t-0.5 -15.5q0 -122 66 -186.5t166 -64.5q163 0 218 114h280q-38 -154 -176.5 -247.5
t-339.5 -93.5zM443 669h479q3 18 3 38q0 85 -55 140.5t-149 55.5q-99 0 -174 -64t-104 -170z" />
    <glyph glyph-name="Gcircumflex" unicode="&#x11c;" horiz-adv-x="1567" 
d="M1196 1926l187 -335h-249l-92 191h-18l-172 -191h-275l328 335h291zM1534 760l-37 -184q-58 -299 -240 -456t-467 -157q-275 0 -441.5 167.5t-166.5 443.5q0 263 101 469.5t281 321.5t408 115q158 0 290 -62t210.5 -169.5t82.5 -238.5v-33h-294q-6 104 -92 169t-216 65
q-198 0 -330 -175t-132 -441q0 -168 88 -265.5t239 -97.5q141 0 242 75.5t127 201.5l5 25h-307l47 226h602z" />
    <glyph glyph-name="gcircumflex" unicode="&#x11d;" horiz-adv-x="1327" 
d="M983 1606l200 -354h-250l-104 209h-18l-193 -209h-276l350 354h291zM530 -417q-221 0 -359.5 94.5t-137.5 239.5h290q5 -55 65.5 -89t160.5 -34q112 0 178 49t86 139l44 194l-18 1q-109 -155 -325 -155q-166 0 -273.5 115.5t-107.5 300.5q0 190 72 347t197.5 246.5
t276.5 89.5q114 0 203 -58t120 -152h17l42 192h284l-246 -1147q-37 -175 -186.5 -274t-382.5 -99zM641 237q129 0 218.5 116t89.5 286q0 107 -58 171t-156 64q-130 0 -216.5 -112.5t-86.5 -285.5q0 -110 56.5 -174.5t152.5 -64.5z" />
    <glyph glyph-name="Gbreve" unicode="&#x11e;" horiz-adv-x="1567" 
d="M1534 760l-37 -184q-58 -299 -240 -456t-467 -157q-275 0 -441.5 167.5t-166.5 443.5q0 263 101 469.5t281 321.5t408 115q158 0 290 -62t210.5 -169.5t82.5 -238.5v-33h-294q-6 104 -92 169t-216 65q-198 0 -330 -175t-132 -441q0 -168 88 -265.5t239 -97.5
q141 0 242 75.5t127 201.5l5 25h-307l47 226h602zM627 1885q0 11 2 31h205v-21q0 -63 51.5 -103.5t129.5 -40.5q82 0 134.5 42.5t70.5 122.5h205q-22 -153 -134 -244.5t-282 -91.5q-167 0 -274.5 86.5t-107.5 218.5z" />
    <glyph glyph-name="gbreve" unicode="&#x11f;" horiz-adv-x="1327" 
d="M428 1603h205q-2 -16 -2 -29q0 -68 50 -110t132 -42q90 0 144.5 46.5t69.5 134.5h206q-16 -161 -130 -256t-297 -95q-172 0 -277 86.5t-105 218.5q0 26 4 46zM530 -417q-221 0 -359.5 94.5t-137.5 239.5h290q5 -55 65.5 -89t160.5 -34q112 0 178 49t86 139l44 194l-18 1
q-109 -155 -325 -155q-166 0 -273.5 115.5t-107.5 300.5q0 190 72 347t197.5 246.5t276.5 89.5q114 0 203 -58t120 -152h17l42 192h284l-246 -1147q-37 -175 -186.5 -274t-382.5 -99zM641 237q129 0 218.5 116t89.5 286q0 107 -58 171t-156 64q-130 0 -216.5 -112.5
t-86.5 -285.5q0 -110 56.5 -174.5t152.5 -64.5z" />
    <glyph glyph-name="Gdotaccent" unicode="&#x120;" horiz-adv-x="1567" 
d="M1026 1580q-69 0 -113.5 45t-44.5 113t44.5 113t113.5 45t113 -45t44 -113t-44 -113t-113 -45zM1534 760l-37 -184q-58 -299 -240 -456t-467 -157q-275 0 -441.5 167.5t-166.5 443.5q0 263 101 469.5t281 321.5t408 115q158 0 290 -62t210.5 -169.5t82.5 -238.5v-33h-294
q-6 104 -92 169t-216 65q-198 0 -330 -175t-132 -441q0 -168 88 -265.5t239 -97.5q141 0 242 75.5t127 201.5l5 25h-307l47 226h602z" />
    <glyph glyph-name="gdotaccent" unicode="&#x121;" horiz-adv-x="1327" 
d="M815 1275q-68 0 -114.5 47t-46.5 117t46.5 117t114.5 47t114.5 -47t46.5 -117t-46.5 -117t-114.5 -47zM530 -417q-221 0 -359.5 94.5t-137.5 239.5h290q5 -55 65.5 -89t160.5 -34q112 0 178 49t86 139l44 194l-18 1q-109 -155 -325 -155q-166 0 -273.5 115.5
t-107.5 300.5q0 190 72 347t197.5 246.5t276.5 89.5q114 0 203 -58t120 -152h17l42 192h284l-246 -1147q-37 -175 -186.5 -274t-382.5 -99zM641 237q129 0 218.5 116t89.5 286q0 107 -58 171t-156 64q-130 0 -216.5 -112.5t-86.5 -285.5q0 -110 56.5 -174.5t152.5 -64.5z
" />
    <glyph glyph-name="Gcommaaccent" unicode="&#x122;" horiz-adv-x="1567" 
d="M731 -509h-258l172 358h292zM1534 760l-37 -184q-58 -299 -240 -456t-467 -157q-275 0 -441.5 167.5t-166.5 443.5q0 263 101 469.5t281 321.5t408 115q158 0 290 -62t210.5 -169.5t82.5 -238.5v-33h-294q-6 104 -92 169t-216 65q-198 0 -330 -175t-132 -441
q0 -168 88 -265.5t239 -97.5q141 0 242 75.5t127 201.5l5 25h-307l47 226h602z" />
    <glyph glyph-name="gcommaaccent" unicode="&#x123;" horiz-adv-x="1328" 
d="M1094 1649h258l-172 -358h-292zM530 -417q-221 0 -359.5 94.5t-137.5 239.5h290q5 -55 65.5 -89t160.5 -34q112 0 178 49t86 139l44 194l-18 1q-109 -155 -325 -155q-166 0 -273.5 115.5t-107.5 300.5q0 190 72 347t197.5 246.5t276.5 89.5q114 0 203 -58t120 -152h17
l42 192h284l-246 -1147q-37 -175 -186.5 -274t-382.5 -99zM641 237q129 0 218.5 116t89.5 286q0 107 -58 171t-156 64q-130 0 -216.5 -112.5t-86.5 -285.5q0 -110 56.5 -174.5t152.5 -64.5z" />
    <glyph glyph-name="Hcircumflex" unicode="&#x124;" horiz-adv-x="1606" 
d="M1356 0h-305l129 603h-648l-129 -603h-303l307 1443h304l-125 -582h648l125 582h304zM1270 1925l187 -335h-249l-92 191h-18l-172 -191h-275l328 335h291z" />
    <glyph glyph-name="hcircumflex" unicode="&#x125;" horiz-adv-x="1321" 
d="M75 0l323 1515h292l-125 -578h18q119 187 343 187q154 0 248.5 -90.5t94.5 -226.5q0 -58 -14 -131l-142 -676h-291l132 628q10 48 10 84q0 78 -53.5 124.5t-139.5 46.5q-98 0 -170.5 -62.5t-93.5 -161.5l-140 -659h-292zM776 1997l187 -335h-249l-92 191h-18l-172 -191
h-275l328 335h291z" />
    <glyph glyph-name="Hbar" unicode="&#x126;" horiz-adv-x="1557" 
d="M1210 861l42 194h-648l-42 -194h648zM1726 1261l-42 -206h-128l-224 -1055h-305l129 603h-648l-129 -603h-303l224 1055h-127l43 206h128l39 182h304l-39 -182h648l39 182h304l-39 -182h126z" />
    <glyph glyph-name="hbar" unicode="&#x127;" horiz-adv-x="1339" 
d="M565 937h18q119 187 343 187q154 0 248.5 -90.5t94.5 -226.5q0 -58 -14 -131l-142 -676h-291l132 628q10 48 10 84q0 78 -53.5 124.5t-139.5 46.5q-98 0 -170.5 -62.5t-93.5 -161.5l-140 -659h-292l269 1260h-172l33 158h172l21 97h292l-21 -97h217l-33 -158h-218z" />
    <glyph glyph-name="Itilde" unicode="&#x128;" horiz-adv-x="653" 
d="M404 0h-304l307 1443h304zM780 1578q-45 0 -85 15t-68.5 36t-53 42t-49.5 36t-49 15q-81 0 -97 -104h-181q17 129 91 203t178 74q45 0 85 -15t68 -36t53 -42t50 -36t48 -15q82 0 98 104h181q-18 -129 -91.5 -203t-177.5 -74z" />
    <glyph glyph-name="itilde" unicode="&#x129;" horiz-adv-x="599" 
d="M79 0l234 1103h291l-234 -1103h-291zM690 1247q-46 0 -86 17t-67.5 41t-51 48t-48.5 41t-50 17q-75 0 -94 -124h-184q16 135 90.5 216t180.5 81q46 0 85.5 -17t67 -41t51 -48t48.5 -41t50 -17q76 0 95 124h184q-16 -136 -90.5 -216.5t-180.5 -80.5z" />
    <glyph glyph-name="Imacron" unicode="&#x12a;" horiz-adv-x="653" 
d="M404 0h-304l307 1443h304zM972 1632h-745l37 181h746z" />
    <glyph glyph-name="imacron" unicode="&#x12b;" horiz-adv-x="599" 
d="M79 0l234 1103h291l-234 -1103h-291zM871 1316h-735l38 180h735z" />
    <glyph glyph-name="Ibreve" unicode="&#x12c;" horiz-adv-x="653" 
d="M404 0h-304l307 1443h304zM225 1884q0 11 2 31h205v-21q0 -63 51.5 -103.5t129.5 -40.5q82 0 134.5 42.5t70.5 122.5h205q-22 -153 -134 -244.5t-282 -91.5q-167 0 -274.5 86.5t-107.5 218.5z" />
    <glyph glyph-name="ibreve" unicode="&#x12d;" horiz-adv-x="599" 
d="M79 0l234 1103h291l-234 -1103h-291zM143 1602h205q-2 -16 -2 -29q0 -68 50 -110t132 -42q90 0 144.5 46.5t69.5 134.5h206q-16 -161 -130 -256t-297 -95q-172 0 -277 86.5t-105 218.5q0 26 4 46z" />
    <glyph glyph-name="Iogonek" unicode="&#x12e;" horiz-adv-x="653" 
d="M407 1443h304l-299 -1403q-229 -100 -229 -229q0 -44 32.5 -70t87.5 -26q40 0 57 5l-34 -164q-52 -14 -108 -14q-115 0 -185 56.5t-70 148.5q0 79 45 142.5t145 125.5l2 11h-49z" />
    <glyph glyph-name="iogonek" unicode="&#x12f;" horiz-adv-x="599" 
d="M524 1257q-76 0 -124 40t-48 103q0 67 48 109t124 42t124 -40t48 -102q0 -67 -48.5 -109.5t-123.5 -42.5zM193 -458q-115 0 -185 56.5t-70 148.5q0 79 46 142.5t147 125.5l2 11h-49l229 1077h294l-227 -1063q-222 -96 -222 -229q0 -44 32.5 -70t87.5 -26q40 0 57 5
l-34 -164q-56 -14 -108 -14z" />
    <glyph glyph-name="Idotaccent" unicode="&#x130;" horiz-adv-x="654" 
d="M404 0h-304l307 1443h304zM624 1579q-69 0 -113.5 45t-44.5 113t44.5 113t113.5 45t113 -45t44 -113t-44 -113t-113 -45z" />
    <glyph glyph-name="dotlessi" unicode="&#x131;" horiz-adv-x="599" 
d="M79 0l234 1103h291l-234 -1103h-291z" />
    <glyph glyph-name="u0132" unicode="&#x132;" horiz-adv-x="1881" 
d="M404 0h-304l307 1443h304zM739 413h293v-9q1 -77 49.5 -122t130.5 -45q167 0 212 209l213 997h302l-222 -1042q-44 -213 -176.5 -325.5t-341.5 -112.5q-210 0 -338 116.5t-123 302.5q0 21 1 31z" />
    <glyph glyph-name="u0133" unicode="&#x133;" horiz-adv-x="1199" 
d="M78 0l235 1103h293l-235 -1103h-293zM524 1257q-77 0 -124.5 40.5t-47.5 102.5q0 65 47.5 108t124.5 43t124.5 -40t47.5 -102q0 -65 -47.5 -108.5t-124.5 -43.5zM1205 1103l-247 -1158q-33 -154 -139 -236t-270 -83q-61 0 -131 12l48 226q26 -6 63 -6q62 0 96.5 29
t48.5 91l240 1125h291zM1124 1257q-77 0 -124.5 40.5t-47.5 102.5q0 65 47.5 108t124.5 43t124.5 -40t47.5 -102q0 -65 -47.5 -108.5t-124.5 -43.5z" />
    <glyph glyph-name="Jcircumflex" unicode="&#x134;" horiz-adv-x="1229" 
d="M86 413h293v-9q1 -77 49.5 -122t130.5 -45q167 0 212 209l213 997h302l-222 -1042q-44 -213 -176.5 -325.5t-341.5 -112.5q-210 0 -338 116.5t-123 302.5q0 21 1 31zM1369 1925l187 -335h-249l-92 191h-18l-172 -191h-275l328 335h291z" />
    <glyph glyph-name="jcircumflex" unicode="&#x135;" horiz-adv-x="599" 
d="M605 1103l-247 -1158q-33 -154 -139 -236t-270 -83q-61 0 -131 12l48 226q25 -6 63 -6q62 0 96.5 29t48.5 91l240 1125h291zM698 1605l200 -354h-250l-104 209h-18l-193 -209h-276l350 354h291z" />
    <glyph glyph-name="Kcommaaccent" unicode="&#x136;" horiz-adv-x="1454" 
d="M402 0h-302l307 1443h301l-136 -635h18l659 635h358l-670 -653l382 -790h-340l-293 606l-192 -182zM605 -509h-258l172 358h292z" />
    <glyph glyph-name="kcommaaccent" unicode="&#x137;" horiz-adv-x="1223" 
d="M531 690l448 413h340l-529 -482l328 -621h-321l-242 457l-110 -94l-78 -363h-292l324 1524h291l-177 -834h18zM502 -509h-258l172 358h292z" />
    <glyph glyph-name="Lacute" unicode="&#x139;" horiz-adv-x="1219" 
d="M442 1590l343 318h315l-381 -318h-277zM1098 263l-54 -263h-944l307 1443h303l-253 -1180h641z" />
    <glyph glyph-name="lacute" unicode="&#x13a;" horiz-adv-x="594" 
d="M429 1670l343 318h315l-381 -318h-277zM75 0l324 1524h293l-324 -1524h-293z" />
    <glyph glyph-name="Lcommaaccent" unicode="&#x13b;" horiz-adv-x="1219" 
d="M498 -509h-258l172 358h292zM1098 263l-54 -263h-944l307 1443h303l-253 -1180h641z" />
    <glyph glyph-name="lcommaaccent" unicode="&#x13c;" horiz-adv-x="594" 
d="M148 -509h-258l172 358h292zM75 0l324 1524h293l-324 -1524h-293z" />
    <glyph glyph-name="Lcaron" unicode="&#x13d;" horiz-adv-x="1219" 
d="M935 1443h246l-157 -504h-196zM1098 263l-54 -263h-944l307 1443h303l-253 -1180h641z" />
    <glyph glyph-name="lcaron" unicode="&#x13e;" horiz-adv-x="814" 
d="M823 1524h251l-157 -505h-201zM75 0l324 1524h293l-324 -1524h-293z" />
    <glyph glyph-name="Lslash" unicode="&#x141;" horiz-adv-x="1223" 
d="M486 263h641l-54 -263h-944l142 667l-181 -84l42 205l183 84l121 571h303l-89 -416l248 115l-42 -205l-250 -116z" />
    <glyph glyph-name="lslash" unicode="&#x142;" horiz-adv-x="593" 
d="M717 1090l-42 -205l-132 -64l-175 -821h-293l141 664l-129 -62l42 205l131 63l139 654h293l-106 -497z" />
    <glyph glyph-name="Nacute" unicode="&#x143;" horiz-adv-x="1573" 
d="M884 1590l343 318h315l-381 -318h-277zM393 0h-293l307 1443h231l479 -929h18l202 929h293l-307 -1443h-229l-483 922h-18z" />
    <glyph glyph-name="nacute" unicode="&#x144;" horiz-adv-x="1304" 
d="M621 1287l323 353h310l-361 -353h-272zM67 0l236 1112h282l-37 -175h18q55 87 144.5 138.5t203.5 51.5q152 0 245.5 -90.5t93.5 -229.5q0 -58 -14 -131l-142 -676h-291l132 628q10 46 10 84q0 76 -52 123.5t-137 47.5q-96 0 -167.5 -62.5t-92.5 -161.5l-140 -659h-292z
" />
    <glyph glyph-name="Ncommaaccent" unicode="&#x145;" horiz-adv-x="1573" 
d="M661 -509h-258l172 358h292zM393 0h-293l307 1443h231l479 -929h18l202 929h293l-307 -1443h-229l-483 922h-18z" />
    <glyph glyph-name="ncommaaccent" unicode="&#x146;" horiz-adv-x="1304" 
d="M507 -509h-258l172 358h292zM67 0l236 1112h282l-37 -175h18q55 87 144.5 138.5t203.5 51.5q152 0 245.5 -90.5t93.5 -229.5q0 -58 -14 -131l-142 -676h-291l132 628q10 46 10 84q0 76 -52 123.5t-137 47.5q-96 0 -167.5 -62.5t-92.5 -161.5l-140 -659h-292z" />
    <glyph glyph-name="Ncaron" unicode="&#x147;" horiz-adv-x="1573" 
d="M899 1590l-188 335h250l92 -191h18l172 191h275l-328 -335h-291zM393 0h-293l307 1443h231l479 -929h18l202 929h293l-307 -1443h-229l-483 922h-18z" />
    <glyph glyph-name="ncaron" unicode="&#x148;" horiz-adv-x="1304" 
d="M938 1257h-291l-200 354h249l103 -209h18l194 209h277zM67 0l236 1112h282l-37 -175h18q55 87 144.5 138.5t203.5 51.5q152 0 245.5 -90.5t93.5 -229.5q0 -58 -14 -131l-142 -676h-291l132 628q10 46 10 84q0 76 -52 123.5t-137 47.5q-96 0 -167.5 -62.5t-92.5 -161.5
l-140 -659h-292z" />
    <glyph glyph-name="Omacron" unicode="&#x14c;" horiz-adv-x="1617" 
d="M805 -37q-185 0 -328 80t-219.5 219.5t-76.5 313.5q0 157 39 297.5t110.5 250.5t168.5 190.5t218 123t254 42.5q282 0 452 -173t170 -440q0 -197 -60.5 -366t-165 -287t-250 -184.5t-312.5 -66.5zM1283 844q0 165 -89 265t-235 100q-129 0 -236.5 -80.5t-169.5 -221
t-62 -309.5q0 -165 89.5 -265t236.5 -100q129 0 236 79.5t168.5 220t61.5 311.5zM1385 1631h-745l37 181h746z" />
    <glyph glyph-name="omacron" unicode="&#x14d;" horiz-adv-x="1289" 
d="M1161 1316h-735l38 180h735zM438 467q0 -115 55 -183.5t152 -68.5q120 0 209 120.5t89 292.5q0 123 -53 192t-148 69q-132 0 -218 -122t-86 -300zM628 -24q-222 0 -357.5 132.5t-135.5 349.5q0 185 77.5 337.5t221 242t324.5 89.5q222 0 356 -133t134 -350
q0 -183 -76.5 -335t-219.5 -242.5t-324 -90.5z" />
    <glyph glyph-name="Obreve" unicode="&#x14e;" horiz-adv-x="1617" 
d="M805 -37q-185 0 -328 80t-219.5 219.5t-76.5 313.5q0 157 39 297.5t110.5 250.5t168.5 190.5t218 123t254 42.5q282 0 452 -173t170 -440q0 -197 -60.5 -366t-165 -287t-250 -184.5t-312.5 -66.5zM1283 844q0 165 -89 265t-235 100q-129 0 -236.5 -80.5t-169.5 -221
t-62 -309.5q0 -165 89.5 -265t236.5 -100q129 0 236 79.5t168.5 220t61.5 311.5zM638 1883q0 11 2 31h205v-21q0 -63 51.5 -103.5t129.5 -40.5q82 0 134.5 42.5t70.5 122.5h205q-22 -153 -134 -244.5t-282 -91.5q-167 0 -274.5 86.5t-107.5 218.5z" />
    <glyph glyph-name="obreve" unicode="&#x14f;" horiz-adv-x="1289" 
d="M433 1602h205q-2 -16 -2 -29q0 -68 50 -110t132 -42q90 0 144.5 46.5t69.5 134.5h206q-16 -161 -130 -256t-297 -95q-172 0 -277 86.5t-105 218.5q0 26 4 46zM438 467q0 -115 55 -183.5t152 -68.5q120 0 209 120.5t89 292.5q0 123 -53 192t-148 69q-132 0 -218 -122
t-86 -300zM628 -24q-222 0 -357.5 132.5t-135.5 349.5q0 185 77.5 337.5t221 242t324.5 89.5q222 0 356 -133t134 -350q0 -183 -76.5 -335t-219.5 -242.5t-324 -90.5z" />
    <glyph glyph-name="Ohungarumlaut" unicode="&#x150;" horiz-adv-x="1617" 
d="M1041 1589l319 318h270l-345 -318h-244zM604 1589l319 318h270l-345 -318h-244zM805 -37q-185 0 -328 80t-219.5 219.5t-76.5 313.5q0 157 39 297.5t110.5 250.5t168.5 190.5t218 123t254 42.5q282 0 452 -173t170 -440q0 -197 -60.5 -366t-165 -287t-250 -184.5
t-312.5 -66.5zM1283 844q0 165 -89 265t-235 100q-129 0 -236.5 -80.5t-169.5 -221t-62 -309.5q0 -165 89.5 -265t236.5 -100q129 0 236 79.5t168.5 220t61.5 311.5z" />
    <glyph glyph-name="ohungarumlaut" unicode="&#x151;" horiz-adv-x="1289" 
d="M885 1281l287 353h261l-317 -353h-231zM449 1281l287 353h261l-317 -353h-231zM438 467q0 -115 55 -183.5t152 -68.5q120 0 209 120.5t89 292.5q0 123 -53 192t-148 69q-132 0 -218 -122t-86 -300zM628 -24q-222 0 -357.5 132.5t-135.5 349.5q0 185 77.5 337.5t221 242
t324.5 89.5q222 0 356 -133t134 -350q0 -183 -76.5 -335t-219.5 -242.5t-324 -90.5z" />
    <glyph glyph-name="OE" unicode="&#x152;" horiz-adv-x="2312" 
d="M1291 846q0 166 -90 267.5t-237 101.5q-130 0 -238.5 -82t-170.5 -224t-62 -312q0 -166 90 -267.5t238 -101.5q131 0 239 81.5t169.5 223t61.5 313.5zM1190 0l23 102h-15q-62 -62 -166 -100.5t-222 -38.5q-276 0 -450 171t-174 442q0 193 60 361.5t164 287.5t251 187
t315 68q153 0 274 -63t186 -172h18l43 198h901l-53 -258h-652l-75 -337h616l-50 -239h-615l-78 -351h653l-52 -258h-902z" />
    <glyph glyph-name="oe" unicode="&#x153;" horiz-adv-x="2048" 
d="M1422 -24q-119 0 -217.5 49t-157.5 138h-18q-147 -187 -403 -187q-222 0 -356.5 132t-134.5 349q0 190 80 343.5t222 240t318 86.5q119 0 214.5 -49.5t150.5 -140.5h19q148 190 391 190q205 0 335 -129t131 -333q0 -88 -18 -180h-769q-1 -12 -1 -32q0 -115 63 -182.5
t169 -67.5q162 0 217 114h281q-39 -156 -179 -248.5t-337 -92.5zM1240 669h479q3 9 3 38q0 88 -56 142t-147 54q-99 0 -174.5 -63t-104.5 -171zM438 466q0 -116 56 -184t151 -68q122 0 210 122t88 292q0 123 -53 192t-148 69q-130 0 -217 -121.5t-87 -301.5z" />
    <glyph glyph-name="Racute" unicode="&#x154;" horiz-adv-x="1418" 
d="M715 1590l343 318h315l-381 -318h-277zM100 0l307 1443h571q200 0 326 -114.5t126 -294.5q0 -161 -97 -292t-260 -184l198 -558h-325l-172 523h-258l-112 -523h-304zM661 1199l-98 -444h264q132 0 213.5 70t81.5 182q0 91 -56 141.5t-157 50.5h-248z" />
    <glyph glyph-name="racute" unicode="&#x155;" horiz-adv-x="875" 
d="M478 1281l323 353h310l-361 -353h-272zM63 0l235 1103h283l-31 -152h18q94 170 274 170q90 0 141 -24l-57 -268q-75 30 -168 30q-218 0 -272 -251l-131 -608h-292z" />
    <glyph glyph-name="Rcommaaccent" unicode="&#x156;" horiz-adv-x="1418" 
d="M100 0l307 1443h571q200 0 326 -114.5t126 -294.5q0 -161 -97 -292t-260 -184l198 -558h-325l-172 523h-258l-112 -523h-304zM661 1199l-98 -444h264q132 0 213.5 70t81.5 182q0 91 -56 141.5t-157 50.5h-248zM591 -509h-258l172 358h292z" />
    <glyph glyph-name="rcommaaccent" unicode="&#x157;" horiz-adv-x="875" 
d="M63 0l235 1103h283l-31 -152h18q94 170 274 170q90 0 141 -24l-57 -268q-75 30 -168 30q-218 0 -272 -251l-131 -608h-292zM140 -509h-258l172 358h292z" />
    <glyph glyph-name="Rcaron" unicode="&#x158;" horiz-adv-x="1418" 
d="M100 0l307 1443h571q200 0 326 -114.5t126 -294.5q0 -161 -97 -292t-260 -184l198 -558h-325l-172 523h-258l-112 -523h-304zM661 1199l-98 -444h264q132 0 213.5 70t81.5 182q0 91 -56 141.5t-157 50.5h-248zM730 1590l-188 335h250l92 -191h18l172 191h275l-328 -335
h-291z" />
    <glyph glyph-name="rcaron" unicode="&#x159;" horiz-adv-x="875" 
d="M795 1251h-291l-200 354h249l103 -209h18l194 209h277zM63 0l235 1103h283l-31 -152h18q94 170 274 170q90 0 141 -24l-57 -268q-75 30 -168 30q-218 0 -272 -251l-131 -608h-292z" />
    <glyph glyph-name="Sacute" unicode="&#x15a;" horiz-adv-x="1362" 
d="M740 1590l343 318h315l-381 -318h-277zM107 412h292q16 -92 99 -148t201 -56q122 0 198 52t76 137q0 63 -49.5 105.5t-166.5 79.5l-150 47q-160 50 -247.5 152.5t-87.5 241.5q0 130 73.5 234.5t203.5 163.5t291 59q237 0 389.5 -124.5t159.5 -322.5h-285
q-14 91 -89.5 146.5t-186.5 55.5q-106 0 -177.5 -50t-71.5 -126q0 -61 46.5 -105.5t147.5 -76.5l148 -46q184 -58 270 -152t86 -240q0 -214 -165.5 -345t-434.5 -131q-248 0 -402.5 120t-167.5 329z" />
    <glyph glyph-name="sacute" unicode="&#x15b;" horiz-adv-x="1150" 
d="M82 318h281q12 -57 68 -93t137 -36q85 0 136.5 32t51.5 85q0 36 -25.5 61t-87.5 45l-172 60q-132 45 -196 117.5t-64 180.5q0 161 126.5 259t330.5 98q200 0 322.5 -89.5t133.5 -238.5h-267q-10 52 -61.5 83.5t-127.5 31.5q-77 0 -126.5 -32t-49.5 -82q0 -36 29 -62
t93 -47l179 -63q134 -46 194.5 -115t60.5 -175q0 -162 -133 -262t-348 -100q-212 0 -345.5 94.5t-139.5 247.5zM543 1281l323 353h310l-361 -353h-272z" />
    <glyph glyph-name="Scircumflex" unicode="&#x15c;" horiz-adv-x="1362" 
d="M107 412h292q16 -92 99 -148t201 -56q122 0 198 52t76 137q0 63 -49.5 105.5t-166.5 79.5l-150 47q-160 50 -247.5 152.5t-87.5 241.5q0 130 73.5 234.5t203.5 163.5t291 59q237 0 389.5 -124.5t159.5 -322.5h-285q-14 91 -89.5 146.5t-186.5 55.5q-106 0 -177.5 -50
t-71.5 -126q0 -61 46.5 -105.5t147.5 -76.5l148 -46q184 -58 270 -152t86 -240q0 -214 -165.5 -345t-434.5 -131q-248 0 -402.5 120t-167.5 329zM1091 1925l187 -335h-249l-92 191h-18l-172 -191h-275l328 335h291z" />
    <glyph glyph-name="scircumflex" unicode="&#x15d;" horiz-adv-x="1150" 
d="M907 1605l200 -354h-250l-104 209h-18l-193 -209h-276l350 354h291zM82 318h281q12 -57 68 -93t137 -36q85 0 136.5 32t51.5 85q0 36 -25.5 61t-87.5 45l-172 60q-132 45 -196 117.5t-64 180.5q0 161 126.5 259t330.5 98q200 0 322.5 -89.5t133.5 -238.5h-267
q-10 52 -61.5 83.5t-127.5 31.5q-77 0 -126.5 -32t-49.5 -82q0 -36 29 -62t93 -47l179 -63q134 -46 194.5 -115t60.5 -175q0 -162 -133 -262t-348 -100q-212 0 -345.5 94.5t-139.5 247.5z" />
    <glyph glyph-name="Scedilla" unicode="&#x15e;" horiz-adv-x="1362" 
d="M773 877l148 -46q184 -58 270 -152t86 -240q0 -195 -139 -322.5t-371 -149.5l-57 -87q159 -26 159 -164q0 -96 -72 -154t-191 -58q-107 0 -186 36l28 133q65 -27 142 -27q44 0 68 15t24 43q0 61 -116 61h-57l17 116l57 87q-209 22 -336.5 139.5t-139.5 304.5h292
q16 -92 99 -148t201 -56q122 0 198 52t76 137q0 63 -49.5 105.5t-166.5 79.5l-150 47q-160 50 -247.5 152.5t-87.5 241.5q0 130 73.5 234.5t203.5 163.5t291 59q237 0 389.5 -124.5t159.5 -322.5h-285q-14 91 -89.5 146.5t-186.5 55.5q-106 0 -177.5 -50t-71.5 -126
q0 -61 46.5 -105.5t147.5 -76.5z" />
    <glyph glyph-name="scedilla" unicode="&#x15f;" horiz-adv-x="1150" 
d="M614 691l179 -63q134 -46 194.5 -115t60.5 -175q0 -148 -112 -245t-298 -114l-65 -99q159 -26 159 -164q0 -96 -72 -154t-191 -58q-107 0 -186 36l28 133q65 -27 142 -27q44 0 68 15t24 43q0 61 -116 61h-57l17 116l67 103q-167 23 -268 113t-106 221h281q12 -57 68 -93
t137 -36q85 0 136.5 32t51.5 85q0 36 -25.5 61t-87.5 45l-172 60q-132 45 -196 117.5t-64 180.5q0 161 126.5 259t330.5 98q200 0 322.5 -89.5t133.5 -238.5h-267q-10 52 -61.5 83.5t-127.5 31.5q-77 0 -126.5 -32t-49.5 -82q0 -36 29 -62t93 -47z" />
    <glyph glyph-name="Scaron" unicode="&#x160;" horiz-adv-x="1362" 
d="M107 412h292q16 -92 99 -148t201 -56q122 0 198 52t76 137q0 63 -49.5 105.5t-166.5 79.5l-150 47q-160 50 -247.5 152.5t-87.5 241.5q0 130 73.5 234.5t203.5 163.5t291 59q237 0 389.5 -124.5t159.5 -322.5h-285q-14 91 -89.5 146.5t-186.5 55.5q-106 0 -177.5 -50
t-71.5 -126q0 -61 46.5 -105.5t147.5 -76.5l148 -46q184 -58 270 -152t86 -240q0 -214 -165.5 -345t-434.5 -131q-248 0 -402.5 120t-167.5 329zM755 1590l-188 335h250l92 -191h18l172 191h275l-328 -335h-291z" />
    <glyph glyph-name="scaron" unicode="&#x161;" horiz-adv-x="1150" 
d="M860 1251h-291l-200 354h249l103 -209h18l194 209h277zM82 318h281q12 -57 68 -93t137 -36q85 0 136.5 32t51.5 85q0 36 -25.5 61t-87.5 45l-172 60q-132 45 -196 117.5t-64 180.5q0 161 126.5 259t330.5 98q200 0 322.5 -89.5t133.5 -238.5h-267q-10 52 -61.5 83.5
t-127.5 31.5q-77 0 -126.5 -32t-49.5 -82q0 -36 29 -62t93 -47l179 -63q134 -46 194.5 -115t60.5 -175q0 -162 -133 -262t-348 -100q-212 0 -345.5 94.5t-139.5 247.5z" />
    <glyph glyph-name="Tcedilla" unicode="&#x162;" horiz-adv-x="1352" 
d="M323 1443h1168l-53 -258h-432l-254 -1185h-58l-78 -120q159 -26 159 -164q0 -96 -72 -154t-191 -58q-107 0 -186 36l28 133q65 -27 142 -27q44 0 68 15t24 43q0 61 -116 61h-57l17 116l78 119h-62l254 1185h-432z" />
    <glyph glyph-name="tcedilla" unicode="&#x163;" horiz-adv-x="846" 
d="M629 854l-104 -479q-8 -37 -8 -64q0 -51 37.5 -74.5t114.5 -23.5q31 0 52 3l-46 -222q-48 -8 -107 -8q-20 0 -56 2l-70 -108q159 -26 159 -164q0 -96 -72 -154t-191 -58q-107 0 -186 36l28 133q65 -27 142 -27q44 0 68 15t24 43q0 61 -116 61h-57l17 116l92 140
q-140 56 -140 200q0 43 11 96l116 537h-175l47 230h175l56 267h293l-57 -267h235l-48 -230h-234z" />
    <glyph glyph-name="Tcaron" unicode="&#x164;" horiz-adv-x="1352" 
d="M809 1590l-188 335h250l92 -191h18l172 191h275l-328 -335h-291zM752 0h-304l254 1185h-432l53 258h1168l-53 -258h-432z" />
    <glyph glyph-name="tcaron" unicode="&#x165;" horiz-adv-x="846" 
d="M1043 1231h-201l107 504h251zM568 -14q-175 0 -266.5 60t-91.5 175q0 43 11 96l116 537h-175l47 230h175l56 267h293l-57 -267h235l-48 -230h-234l-104 -479q-8 -37 -8 -64q0 -51 37.5 -74.5t114.5 -23.5q31 0 52 3l-46 -222q-48 -8 -107 -8z" />
    <glyph glyph-name="Tbar" unicode="&#x166;" horiz-adv-x="1352" 
d="M1438 1185h-432l-82 -384h283l-45 -218h-285l-125 -583h-304l125 583h-280l45 218h282l82 384h-432l53 258h1168z" />
    <glyph glyph-name="tbar" unicode="&#x167;" horiz-adv-x="843" 
d="M863 854h-234l-43 -200h233l-34 -162h-235l-25 -117q-8 -37 -8 -64q0 -51 37.5 -74.5t114.5 -23.5q31 0 52 3l-46 -222q-48 -8 -107 -8q-175 0 -266.5 60t-91.5 175q0 43 11 96l38 175h-175l34 162h176l43 200h-175l47 230h175l56 267h293l-57 -267h235z" />
    <glyph glyph-name="Utilde" unicode="&#x168;" horiz-adv-x="1564" 
d="M776 -37q-261 0 -413 131t-153 339q0 64 13 126l187 884h305l-186 -877q-12 -56 -11 -102q2 -108 75 -169t201 -61q127 0 214 72.5t116 206.5l198 930h304l-211 -997q-48 -229 -215 -356t-424 -127zM1235 1578q-45 0 -85 15t-68.5 36t-53 42t-49.5 36t-49 15
q-81 0 -97 -104h-181q17 129 91 203t178 74q45 0 85 -15t68 -36t53 -42t50 -36t48 -15q82 0 98 104h181q-18 -129 -91.5 -203t-177.5 -74z" />
    <glyph glyph-name="utilde" unicode="&#x169;" horiz-adv-x="1305" 
d="M1322 1103l-233 -1103h-283l36 167h-18q-50 -89 -139.5 -140t-203.5 -51q-152 0 -247 88.5t-95 233.5q0 58 15 141l139 664h293l-131 -616q-10 -47 -10 -86q0 -85 47.5 -129t136.5 -44q99 0 170 63t94 168l137 644h292zM1035 1247q-46 0 -86 17t-67.5 41t-51 48t-48.5 41
t-50 17q-75 0 -94 -124h-184q16 135 90.5 216t180.5 81q46 0 85.5 -17t67 -41t51 -48t48.5 -41t50 -17q76 0 95 124h184q-16 -136 -90.5 -216.5t-180.5 -80.5z" />
    <glyph glyph-name="Umacron" unicode="&#x16a;" horiz-adv-x="1564" 
d="M776 -37q-261 0 -413 131t-153 339q0 64 13 126l187 884h305l-186 -877q-12 -56 -11 -102q2 -108 75 -169t201 -61q127 0 214 72.5t116 206.5l198 930h304l-211 -997q-48 -229 -215 -356t-424 -127zM1427 1632h-745l37 181h746z" />
    <glyph glyph-name="umacron" unicode="&#x16b;" horiz-adv-x="1305" 
d="M1322 1103l-233 -1103h-283l36 167h-18q-50 -89 -139.5 -140t-203.5 -51q-152 0 -247 88.5t-95 233.5q0 58 15 141l139 664h293l-131 -616q-10 -47 -10 -86q0 -85 47.5 -129t136.5 -44q99 0 170 63t94 168l137 644h292zM1216 1316h-735l38 180h735z" />
    <glyph glyph-name="Ubreve" unicode="&#x16c;" horiz-adv-x="1564" 
d="M776 -37q-261 0 -413 131t-153 339q0 64 13 126l187 884h305l-186 -877q-12 -56 -11 -102q2 -108 75 -169t201 -61q127 0 214 72.5t116 206.5l198 930h304l-211 -997q-48 -229 -215 -356t-424 -127zM680 1884q0 11 2 31h205v-21q0 -63 51.5 -103.5t129.5 -40.5
q82 0 134.5 42.5t70.5 122.5h205q-22 -153 -134 -244.5t-282 -91.5q-167 0 -274.5 86.5t-107.5 218.5z" />
    <glyph glyph-name="ubreve" unicode="&#x16d;" horiz-adv-x="1305" 
d="M1322 1103l-233 -1103h-283l36 167h-18q-50 -89 -139.5 -140t-203.5 -51q-152 0 -247 88.5t-95 233.5q0 58 15 141l139 664h293l-131 -616q-10 -47 -10 -86q0 -85 47.5 -129t136.5 -44q99 0 170 63t94 168l137 644h292zM488 1602h205q-2 -16 -2 -29q0 -68 50 -110
t132 -42q90 0 144.5 46.5t69.5 134.5h206q-16 -161 -130 -256t-297 -95q-172 0 -277 86.5t-105 218.5q0 26 4 46z" />
    <glyph glyph-name="Uring" unicode="&#x16e;" horiz-adv-x="1564" 
d="M1095 1578q-105 0 -175.5 68.5t-70.5 172.5q0 103 70 170.5t176 67.5q105 0 175 -67.5t70 -170.5q0 -104 -70 -172.5t-175 -68.5zM1094 1714q46 0 76 29.5t30 74.5q0 44 -30 73.5t-76 29.5t-75.5 -29.5t-29.5 -73.5q0 -46 29.5 -75t75.5 -29zM776 -37q-261 0 -413 131
t-153 339q0 64 13 126l187 884h305l-186 -877q-12 -56 -11 -102q2 -108 75 -169t201 -61q127 0 214 72.5t116 206.5l198 930h304l-211 -997q-48 -229 -215 -356t-424 -127z" />
    <glyph glyph-name="uring" unicode="&#x16f;" horiz-adv-x="1305" 
d="M1322 1103l-233 -1103h-283l36 167h-18q-50 -89 -139.5 -140t-203.5 -51q-152 0 -247 88.5t-95 233.5q0 58 15 141l139 664h293l-131 -616q-10 -47 -10 -86q0 -85 47.5 -129t136.5 -44q99 0 170 63t94 168l137 644h292zM887 1251q-105 0 -175.5 68.5t-70.5 172.5
q0 103 70 170.5t176 67.5q105 0 175 -67.5t70 -170.5q0 -104 -70 -172.5t-175 -68.5zM886 1387q46 0 76 29.5t30 74.5q0 44 -30 73.5t-76 29.5t-75.5 -29.5t-29.5 -73.5q0 -46 29.5 -75t75.5 -29z" />
    <glyph glyph-name="Uhungarumlaut" unicode="&#x170;" horiz-adv-x="1564" 
d="M776 -37q-261 0 -413 131t-153 339q0 64 13 126l187 884h305l-186 -877q-12 -56 -11 -102q2 -108 75 -169t201 -61q127 0 214 72.5t116 206.5l198 930h304l-211 -997q-48 -229 -215 -356t-424 -127zM1083 1590l319 318h270l-345 -318h-244zM646 1590l319 318h270
l-345 -318h-244z" />
    <glyph glyph-name="uhungarumlaut" unicode="&#x171;" horiz-adv-x="1305" 
d="M940 1281l287 353h261l-317 -353h-231zM504 1281l287 353h261l-317 -353h-231zM1322 1103l-233 -1103h-283l36 167h-18q-50 -89 -139.5 -140t-203.5 -51q-152 0 -247 88.5t-95 233.5q0 58 15 141l139 664h293l-131 -616q-10 -47 -10 -86q0 -85 47.5 -129t136.5 -44
q99 0 170 63t94 168l137 644h292z" />
    <glyph glyph-name="Uogonek" unicode="&#x172;" horiz-adv-x="1564" 
d="M952 -458q-119 0 -188.5 56t-69.5 153q0 55 34.5 110t91.5 92l6 18q-15 -3 -57 -3q-253 2 -406 128.5t-153 336.5q0 62 13 126l187 884h305l-186 -877q-11 -48 -11 -102q0 -109 75 -169.5t201 -60.5q128 0 215 73.5t115 205.5l198 930h304l-211 -997q-57 -270 -280 -397
q-222 -137 -222 -243q0 -45 33.5 -69t95.5 -24q28 0 44 2l-34 -161q-48 -12 -100 -12z" />
    <glyph glyph-name="uogonek" unicode="&#x173;" horiz-adv-x="1305" 
d="M904 -458q-113 0 -182 54.5t-69 144.5q0 152 189 253l2 11h-36l34 162h-18q-52 -91 -142.5 -141t-200.5 -50q-153 0 -247.5 89t-94.5 233q0 58 15 141l139 664h293l-131 -616q-10 -50 -10 -86q0 -84 47 -128.5t137 -44.5q98 0 169.5 62.5t94.5 168.5l137 644h292
l-227 -1072q-107 -48 -164.5 -106t-57.5 -119q0 -43 31.5 -67t85.5 -24q42 0 60 5l-34 -164q-56 -14 -112 -14z" />
    <glyph glyph-name="Wcircumflex" unicode="&#x174;" horiz-adv-x="2067" 
d="M1500 1925l187 -335h-249l-92 191h-18l-172 -191h-275l328 335h291zM1150 955l-469 -955h-285l-76 1443h302l16 -1017h16l482 1017h245l59 -1017h16l445 1017h311l-685 -1443h-291l-70 955h-16z" />
    <glyph glyph-name="wcircumflex" unicode="&#x175;" horiz-adv-x="1735" 
d="M1262 1605l200 -354h-250l-104 209h-18l-193 -209h-276l350 354h291zM1833 1103l-527 -1103h-312l-35 758h-18l-355 -758h-306l-60 1103h284l5 -787h18l355 787h283l25 -791h18l334 791h291z" />
    <glyph glyph-name="Ycircumflex" unicode="&#x176;" horiz-adv-x="1451" 
d="M804 0h-304l114 531l-310 912h316l196 -607h18l447 607h330l-697 -924zM1190 1925l187 -335h-249l-92 191h-18l-172 -191h-275l328 335h291z" />
    <glyph glyph-name="ycircumflex" unicode="&#x177;" horiz-adv-x="1208" 
d="M131 -403q-62 0 -132 5l46 235q20 -6 81 -6q151 0 211 122l22 44l-144 1106h297l64 -822h18l405 822h312l-630 -1143q-106 -200 -231.5 -281.5t-318.5 -81.5zM999 1605l200 -354h-250l-104 209h-18l-193 -209h-276l350 354h291z" />
    <glyph glyph-name="Ydieresis" unicode="&#x178;" horiz-adv-x="1451" 
d="M804 0h-304l114 531l-310 912h316l196 -607h18l447 607h330l-697 -924zM783 1579q-68 0 -112 43t-44 109t44 108.5t112 42.5q67 0 111 -42.5t44 -108.5t-44 -109t-111 -43zM1250 1579q-67 0 -111 43t-44 109t44 108.5t111 42.5q68 0 112 -42.5t44 -108.5t-44 -109
t-112 -43z" />
    <glyph glyph-name="Zacute" unicode="&#x179;" horiz-adv-x="1384" 
d="M800 1590l343 318h315l-381 -318h-277zM61 0l42 204l915 963l2 18h-689l53 258h1076l-42 -203l-913 -964l-2 -18h724l-53 -258h-1113z" />
    <glyph glyph-name="zacute" unicode="&#x17a;" horiz-adv-x="1160" 
d="M613 1281l323 353h310l-361 -353h-272zM46 0l35 172l689 681l2 18h-532l49 232h898l-41 -192l-652 -661l-1 -18h519l-48 -232h-918z" />
    <glyph glyph-name="Zdotaccent" unicode="&#x17b;" horiz-adv-x="1384" 
d="M981 1579q-69 0 -113.5 45t-44.5 113t44.5 113t113.5 45t113 -45t44 -113t-44 -113t-113 -45zM61 0l42 204l915 963l2 18h-689l53 258h1076l-42 -203l-913 -964l-2 -18h724l-53 -258h-1113z" />
    <glyph glyph-name="zdotaccent" unicode="&#x17c;" horiz-adv-x="1160" 
d="M809 1274q-68 0 -114.5 47t-46.5 117t46.5 117t114.5 47t114.5 -47t46.5 -117t-46.5 -117t-114.5 -47zM46 0l35 172l689 681l2 18h-532l49 232h898l-41 -192l-652 -661l-1 -18h519l-48 -232h-918z" />
    <glyph glyph-name="Zcaron" unicode="&#x17d;" horiz-adv-x="1384" 
d="M61 0l42 204l915 963l2 18h-689l53 258h1076l-42 -203l-913 -964l-2 -18h724l-53 -258h-1113zM815 1590l-188 335h250l92 -191h18l172 191h275l-328 -335h-291z" />
    <glyph glyph-name="zcaron" unicode="&#x17e;" horiz-adv-x="1160" 
d="M930 1251h-291l-200 354h249l103 -209h18l194 209h277zM46 0l35 172l689 681l2 18h-532l49 232h898l-41 -192l-652 -661l-1 -18h519l-48 -232h-918z" />
    <glyph glyph-name="florin" unicode="&#x192;" horiz-adv-x="1415" 
d="M257 -22q-101 0 -217 38l51 239q86 -34 178 -34t151 44t93 137l98 255h-326l45 217h359l70 188q145 399 569 399q113 0 203 -30l-51 -237q-67 25 -168 25q-102 0 -163.5 -46t-97.5 -143l-59 -156h339l-45 -217h-372l-103 -271q-78 -212 -211.5 -310t-342.5 -98z" />
    <glyph glyph-name="Ohorn" unicode="&#x1a0;" horiz-adv-x="1698" 
d="M803 -37q-275 0 -445 174.5t-170 456.5q0 186 61 351t165.5 282.5t251.5 186t313 68.5q90 0 167 -18.5t125.5 -45t86.5 -53.5l66 -45.5t47 -18.5q57 0 90 27.5t46 87.5l36 169h230l-51 -241q-24 -111 -85.5 -165.5t-142.5 -54.5q-24 0 -58 14l-5 -15q66 -121 66 -272
q0 -252 -102.5 -455t-284.5 -318t-407 -115zM1290 837q0 169 -87.5 271t-233.5 102q-129 0 -237.5 -80.5t-171 -219t-62.5 -303.5q0 -170 88 -272t234 -102q130 0 238 80t170 218.5t62 305.5z" />
    <glyph glyph-name="ohorn" unicode="&#x1a1;" horiz-adv-x="1441" 
d="M433 467q0 -115 55 -183.5t152 -68.5q120 0 209 120.5t89 292.5q0 123 -53 192t-148 69q-132 0 -218 -122t-86 -300zM1243 644q0 -136 -45 -258.5t-125 -213t-197 -143.5t-253 -53q-222 0 -357.5 132.5t-135.5 349.5q0 186 77.5 338t221 241.5t324.5 89.5q68 0 127 -15
t98 -36.5t71 -42.5t59.5 -36t49.5 -15q99 0 125 116l36 169h230l-52 -246q-23 -108 -83 -161.5t-144 -53.5q-24 0 -53 13l-5 -13q31 -78 31 -162z" />
    <glyph glyph-name="Uhorn" unicode="&#x1af;" horiz-adv-x="1812" 
d="M1802 1575h230l-48 -224q-29 -135 -109 -204.5t-197 -69.5q-81 0 -125 23l-138 -654q-48 -229 -215 -356t-424 -127q-261 0 -413 131t-153 339q0 64 13 126l187 884h305l-186 -877q-12 -56 -11 -102q2 -108 75 -169t201 -61q127 0 214 72.5t116 206.5l198 930h304
l-29 -136q24 -15 60 -15q44 0 69.5 25.5t39.5 88.5z" />
    <glyph glyph-name="uhorn" unicode="&#x1b0;" horiz-adv-x="1571" 
d="M1503 1325h230l-48 -224q-29 -135 -109 -204.5t-197 -69.5q-63 0 -112 17l-178 -844h-283l36 167h-18q-50 -89 -139.5 -140t-203.5 -51q-152 0 -247 88.5t-95 233.5q0 58 15 141l139 664h293l-131 -616q-10 -47 -10 -86q0 -85 47.5 -129t136.5 -44q99 0 170 63t94 168
l137 644h292l-11 -53q22 -8 47 -8q44 0 69.5 25.5t39.5 88.5z" />
    <glyph glyph-name="u01C4" unicode="&#x1c4;" horiz-adv-x="2930" 
d="M407 1443h511q276 0 433.5 -155.5t157.5 -431.5q0 -245 -96.5 -440.5t-268.5 -305.5t-388 -110h-655zM660 1187l-201 -930h270q205 0 337 157t132 408q0 170 -92 267.5t-255 97.5h-191zM1607 0l42 204l915 963l2 18h-689l53 258h1076l-42 -203l-913 -964l-2 -18h724
l-53 -258h-1113zM2361 1590l-188 335h250l92 -191h18l172 191h275l-328 -335h-291z" />
    <glyph glyph-name="u01C5" unicode="&#x1c5;" horiz-adv-x="2706" 
d="M407 1443h511q276 0 433.5 -155.5t157.5 -431.5q0 -245 -96.5 -440.5t-268.5 -305.5t-388 -110h-655zM660 1187l-201 -930h270q205 0 337 157t132 408q0 170 -92 267.5t-255 97.5h-191zM2476 1251h-291l-200 354h249l103 -209h18l194 209h277zM1592 0l35 172l689 681
l2 18h-532l49 232h898l-41 -192l-652 -661l-1 -18h519l-48 -232h-918z" />
    <glyph glyph-name="u01C6" unicode="&#x1c6;" horiz-adv-x="2497" 
d="M511 -17q-168 0 -275 116t-107 314q0 201 74 364t202 253.5t283 90.5q119 0 202.5 -57.5t110.5 -148.5h18l130 609h292l-323 -1524h-283l32 153h-18q-59 -80 -145 -125t-193 -45zM641 223q131 0 223 122.5t92 293.5q0 111 -58.5 173t-153.5 62q-132 0 -222.5 -117.5
t-90.5 -293.5q0 -110 59.5 -175t150.5 -65zM2267 1251h-291l-200 354h249l103 -209h18l194 209h277zM1383 0l35 172l689 681l2 18h-532l49 232h898l-41 -192l-652 -661l-1 -18h519l-48 -232h-918z" />
    <glyph glyph-name="u01C7" unicode="&#x1c7;" horiz-adv-x="2447" 
d="M1305 413h293v-9q1 -77 49.5 -122t130.5 -45q167 0 212 209l213 997h302l-222 -1042q-44 -213 -176.5 -325.5t-341.5 -112.5q-210 0 -338 116.5t-123 302.5q0 21 1 31zM1098 263l-54 -263h-944l307 1443h303l-253 -1180h641z" />
    <glyph glyph-name="u01C8" unicode="&#x1c8;" horiz-adv-x="1818" 
d="M1824 1103l-247 -1158q-33 -154 -139 -236t-270 -83q-61 0 -131 12l48 226q25 -6 63 -6q62 0 96.5 29t48.5 91l240 1125h291zM1743 1257q-77 0 -124.5 40.5t-47.5 102.5q0 65 47.5 108t124.5 43t124.5 -40t47.5 -102q0 -65 -47.5 -108.5t-124.5 -43.5zM1098 263l-54 -263
h-944l307 1443h303l-253 -1180h641z" />
    <glyph glyph-name="u01C9" unicode="&#x1c9;" horiz-adv-x="1192" 
d="M1198 1103l-247 -1158q-33 -154 -139 -236t-270 -83q-61 0 -131 12l48 226q25 -6 63 -6q62 0 96.5 29t48.5 91l240 1125h291zM1117 1257q-77 0 -124.5 40.5t-47.5 102.5q0 65 47.5 108t124.5 43t124.5 -40t47.5 -102q0 -65 -47.5 -108.5t-124.5 -43.5zM75 0l324 1524h293
l-324 -1524h-293z" />
    <glyph glyph-name="u01CA" unicode="&#x1ca;" horiz-adv-x="2802" 
d="M1660 413h293v-9q1 -77 49.5 -122t130.5 -45q167 0 212 209l213 997h302l-222 -1042q-44 -213 -176.5 -325.5t-341.5 -112.5q-210 0 -338 116.5t-123 302.5q0 21 1 31zM393 0h-293l307 1443h231l479 -929h18l202 929h293l-307 -1443h-229l-483 922h-18z" />
    <glyph glyph-name="u01CB" unicode="&#x1cb;" horiz-adv-x="2173" 
d="M2179 1103l-247 -1158q-33 -154 -139 -236t-270 -83q-61 0 -131 12l48 226q26 -6 63 -6q62 0 96.5 29t48.5 91l240 1125h291zM2098 1257q-77 0 -124.5 40.5t-47.5 102.5q0 65 47.5 108t124.5 43t124.5 -40t47.5 -102q0 -65 -47.5 -108.5t-124.5 -43.5zM393 0h-293
l307 1443h231l479 -929h18l202 929h293l-307 -1443h-229l-483 922h-18z" />
    <glyph glyph-name="u01CC" unicode="&#x1cc;" horiz-adv-x="1906" 
d="M1912 1103l-247 -1158q-33 -154 -139 -236t-270 -83q-61 0 -131 12l48 226q25 -6 63 -6q62 0 96.5 29t48.5 91l240 1125h291zM1831 1257q-77 0 -124.5 40.5t-47.5 102.5q0 65 47.5 108t124.5 43t124.5 -40t47.5 -102q0 -65 -47.5 -108.5t-124.5 -43.5zM67 0l236 1112h282
l-37 -175h18q55 87 144.5 138.5t203.5 51.5q152 0 245.5 -90.5t93.5 -229.5q0 -58 -14 -131l-142 -676h-291l132 628q10 46 10 84q0 76 -52 123.5t-137 47.5q-96 0 -167.5 -62.5t-92.5 -161.5l-140 -659h-292z" />
    <glyph glyph-name="Acaron" unicode="&#x1cd;" horiz-adv-x="1501" 
d="M1042 0l-35 344h-509l-186 -344h-315l820 1443h349l187 -1443h-311zM916 1142l-304 -565h381l-58 565h-19zM890 1590l-188 335h250l92 -191h18l172 191h275l-328 -335h-291z" />
    <glyph glyph-name="acaron" unicode="&#x1ce;" horiz-adv-x="1202" 
d="M534 202q93 0 165 52t90 132l21 95l-228 -8q-100 -4 -156.5 -43t-56.5 -104q0 -55 46 -89.5t119 -34.5zM411 -17q-140 0 -234 86t-94 215q0 168 129.5 266.5t361.5 105.5l274 9l15 68q5 25 5 40q0 57 -49 90.5t-133 33.5q-147 0 -192 -98h-275q35 151 167.5 239.5
t320.5 88.5q202 0 325 -89.5t123 -235.5q0 -50 -9 -89l-151 -713h-283l29 136h-18q-47 -71 -131 -112t-181 -41zM911 1251h-291l-200 354h249l103 -209h18l194 209h277z" />
    <glyph glyph-name="Icaron" unicode="&#x1cf;" horiz-adv-x="653" 
d="M404 0h-304l307 1443h304zM458 1590l-188 335h250l92 -191h18l172 191h275l-328 -335h-291z" />
    <glyph glyph-name="icaron" unicode="&#x1d0;" horiz-adv-x="599" 
d="M651 1251h-291l-200 354h249l103 -209h18l194 209h277zM79 0l234 1103h291l-234 -1103h-291z" />
    <glyph glyph-name="Ocaron" unicode="&#x1d1;" horiz-adv-x="1617" 
d="M871 1589l-188 335h250l92 -191h18l172 191h275l-328 -335h-291zM805 -37q-185 0 -328 80t-219.5 219.5t-76.5 313.5q0 157 39 297.5t110.5 250.5t168.5 190.5t218 123t254 42.5q282 0 452 -173t170 -440q0 -197 -60.5 -366t-165 -287t-250 -184.5t-312.5 -66.5z
M1283 844q0 165 -89 265t-235 100q-129 0 -236.5 -80.5t-169.5 -221t-62 -309.5q0 -165 89.5 -265t236.5 -100q129 0 236 79.5t168.5 220t61.5 311.5z" />
    <glyph glyph-name="ocaron" unicode="&#x1d2;" horiz-adv-x="1289" 
d="M941 1251h-291l-200 354h249l103 -209h18l194 209h277zM438 467q0 -115 55 -183.5t152 -68.5q120 0 209 120.5t89 292.5q0 123 -53 192t-148 69q-132 0 -218 -122t-86 -300zM628 -24q-222 0 -357.5 132.5t-135.5 349.5q0 185 77.5 337.5t221 242t324.5 89.5
q222 0 356 -133t134 -350q0 -183 -76.5 -335t-219.5 -242.5t-324 -90.5z" />
    <glyph glyph-name="Ucaron" unicode="&#x1d3;" horiz-adv-x="1564" 
d="M913 1590l-188 335h250l92 -191h18l172 191h275l-328 -335h-291zM776 -37q-261 0 -413 131t-153 339q0 64 13 126l187 884h305l-186 -877q-12 -56 -11 -102q2 -108 75 -169t201 -61q127 0 214 72.5t116 206.5l198 930h304l-211 -997q-48 -229 -215 -356t-424 -127z" />
    <glyph glyph-name="ucaron" unicode="&#x1d4;" horiz-adv-x="1305" 
d="M996 1251h-291l-200 354h249l103 -209h18l194 209h277zM1322 1103l-233 -1103h-283l36 167h-18q-50 -89 -139.5 -140t-203.5 -51q-152 0 -247 88.5t-95 233.5q0 58 15 141l139 664h293l-131 -616q-10 -47 -10 -86q0 -85 47.5 -129t136.5 -44q99 0 170 63t94 168l137 644
h292z" />
    <glyph glyph-name="Udieresismacron" unicode="&#x1d5;" horiz-adv-x="1564" 
d="M776 -37q-261 0 -413 131t-153 339q0 64 13 126l187 884h305l-186 -877q-12 -56 -11 -102q2 -108 75 -169t201 -61q127 0 214 72.5t116 206.5l198 930h304l-211 -997q-48 -229 -215 -356t-424 -127zM758 1996l36 168h745l-36 -168h-745zM842 1579q-67 0 -110.5 42.5
t-43.5 107.5t43.5 107.5t110.5 42.5t110 -42.5t43 -107.5t-43 -107.5t-110 -42.5zM1310 1579q-66 0 -109.5 42.5t-43.5 107.5t43.5 107.5t109.5 42.5q67 0 110.5 -42.5t43.5 -107.5t-43.5 -107.5t-110.5 -42.5z" />
    <glyph glyph-name="udieresismacron" unicode="&#x1d6;" horiz-adv-x="1305" 
d="M1322 1103l-233 -1103h-283l36 167h-18q-50 -89 -139.5 -140t-203.5 -51q-152 0 -247 88.5t-95 233.5q0 58 15 141l139 664h293l-131 -616q-10 -47 -10 -86q0 -85 47.5 -129t136.5 -44q99 0 170 63t94 168l137 644h292zM643 1251q-63 0 -104.5 42t-41.5 103
q0 62 41.5 103.5t104.5 41.5q64 0 105 -41.5t41 -103.5t-41 -103.5t-105 -41.5zM1086 1251q-64 0 -105 41.5t-41 103.5t41 103.5t105 41.5q63 0 104.5 -41.5t41.5 -103.5q0 -61 -41.5 -103t-104.5 -42zM1293 1678h-735l38 180h735z" />
    <glyph glyph-name="Udieresisacute" unicode="&#x1d7;" horiz-adv-x="1564" 
d="M961 1937l217 242h292l-269 -242h-240zM842 1579q-68 0 -112 43t-44 109t44 108.5t112 42.5q67 0 111 -42.5t44 -108.5t-44 -109t-111 -43zM1309 1579q-67 0 -111 43t-44 109t44 108.5t111 42.5q68 0 112 -42.5t44 -108.5t-44 -109t-112 -43zM776 -37q-261 0 -413 131
t-153 339q0 64 13 126l187 884h305l-186 -877q-12 -56 -11 -102q2 -108 75 -169t201 -61q127 0 214 72.5t116 206.5l198 930h304l-211 -997q-48 -229 -215 -356t-424 -127z" />
    <glyph glyph-name="udieresisacute" unicode="&#x1d8;" horiz-adv-x="1305" 
d="M748 1657l273 302h281l-314 -302h-240zM633 1258q-68 0 -112 43t-44 109t44 108.5t112 42.5q67 0 111 -42.5t44 -108.5t-44 -109t-111 -43zM1100 1258q-67 0 -111 43t-44 109t44 108.5t111 42.5q68 0 112 -42.5t44 -108.5t-44 -109t-112 -43zM1322 1103l-233 -1103h-283
l36 167h-18q-50 -89 -139.5 -140t-203.5 -51q-152 0 -247 88.5t-95 233.5q0 58 15 141l139 664h293l-131 -616q-10 -47 -10 -86q0 -85 47.5 -129t136.5 -44q99 0 170 63t94 168l137 644h292z" />
    <glyph glyph-name="Udieresiscaron" unicode="&#x1d9;" horiz-adv-x="1564" 
d="M837 1564q-66 0 -109 41t-43 104q0 62 43 103t109 41t108.5 -41t42.5 -103q0 -63 -42.5 -104t-108.5 -41zM1305 1564q-66 0 -109 41t-43 104q0 62 43 103t109 41t108.5 -41t42.5 -103q0 -63 -42.5 -104t-108.5 -41zM978 1910l-217 300h263l107 -168h18l176 168h288
l-344 -300h-291zM776 -37q-261 0 -413 131t-153 339q0 64 13 126l187 884h305l-186 -877q-12 -56 -11 -102q2 -108 75 -169t201 -61q127 0 214 72.5t116 206.5l198 930h304l-211 -997q-48 -229 -215 -356t-424 -127z" />
    <glyph glyph-name="udieresiscaron" unicode="&#x1da;" horiz-adv-x="1305" 
d="M644 1251q-63 0 -104.5 42t-41.5 103q0 62 41.5 103.5t104.5 41.5q64 0 105 -41.5t41 -103.5t-41 -103.5t-105 -41.5zM1087 1251q-64 0 -105 41.5t-41 103.5t41 103.5t105 41.5q63 0 104.5 -41.5t41.5 -103.5q0 -61 -41.5 -103t-104.5 -42zM754 1622l-194 345h249
l98 -200h18l183 200h277l-340 -345h-291zM1322 1103l-233 -1103h-283l36 167h-18q-50 -89 -139.5 -140t-203.5 -51q-152 0 -247 88.5t-95 233.5q0 58 15 141l139 664h293l-131 -616q-10 -47 -10 -86q0 -85 47.5 -129t136.5 -44q99 0 170 63t94 168l137 644h292z" />
    <glyph glyph-name="Udieresisgrave" unicode="&#x1db;" horiz-adv-x="1564" 
d="M1205 1937h-240l-167 242h292zM842 1579q-68 0 -112 43t-44 109t44 108.5t112 42.5q67 0 111 -42.5t44 -108.5t-44 -109t-111 -43zM1309 1579q-67 0 -111 43t-44 109t44 108.5t111 42.5q68 0 112 -42.5t44 -108.5t-44 -109t-112 -43zM776 -37q-261 0 -413 131t-153 339
q0 64 13 126l187 884h305l-186 -877q-12 -56 -11 -102q2 -108 75 -169t201 -61q127 0 214 72.5t116 206.5l198 930h304l-211 -997q-48 -229 -215 -356t-424 -127z" />
    <glyph glyph-name="udieresisgrave" unicode="&#x1dc;" horiz-adv-x="1305" 
d="M1008 1657h-240l-181 302h281zM633 1258q-68 0 -112 43t-44 109t44 108.5t112 42.5q67 0 111 -42.5t44 -108.5t-44 -109t-111 -43zM1100 1258q-67 0 -111 43t-44 109t44 108.5t111 42.5q68 0 112 -42.5t44 -108.5t-44 -109t-112 -43zM1322 1103l-233 -1103h-283l36 167
h-18q-50 -89 -139.5 -140t-203.5 -51q-152 0 -247 88.5t-95 233.5q0 58 15 141l139 664h293l-131 -616q-10 -47 -10 -86q0 -85 47.5 -129t136.5 -44q99 0 170 63t94 168l137 644h292z" />
    <glyph glyph-name="Adieresismacron" unicode="&#x1de;" horiz-adv-x="1501" 
d="M1042 0l-35 344h-509l-186 -344h-315l820 1443h349l187 -1443h-311zM916 1142l-304 -565h381l-58 565h-19zM735 1996l36 168h745l-36 -168h-745zM819 1579q-67 0 -110.5 42.5t-43.5 107.5t43.5 107.5t110.5 42.5t110 -42.5t43 -107.5t-43 -107.5t-110 -42.5zM1287 1579
q-66 0 -109.5 42.5t-43.5 107.5t43.5 107.5t109.5 42.5q67 0 110.5 -42.5t43.5 -107.5t-43.5 -107.5t-110.5 -42.5z" />
    <glyph glyph-name="adieresismacron" unicode="&#x1df;" horiz-adv-x="1202" 
d="M534 202q93 0 165 52t90 132l21 95l-228 -8q-100 -4 -156.5 -43t-56.5 -104q0 -55 46 -89.5t119 -34.5zM411 -17q-140 0 -234 86t-94 215q0 168 129.5 266.5t361.5 105.5l274 9l15 68q5 25 5 40q0 57 -49 90.5t-133 33.5q-147 0 -192 -98h-275q35 151 167.5 239.5
t320.5 88.5q202 0 325 -89.5t123 -235.5q0 -50 -9 -89l-151 -713h-283l29 136h-18q-47 -71 -131 -112t-181 -41zM558 1251q-63 0 -104.5 42t-41.5 103q0 62 41.5 103.5t104.5 41.5q64 0 105 -41.5t41 -103.5t-41 -103.5t-105 -41.5zM1001 1251q-64 0 -105 41.5t-41 103.5
t41 103.5t105 41.5q63 0 104.5 -41.5t41.5 -103.5q0 -61 -41.5 -103t-104.5 -42zM1208 1678h-735l38 180h735z" />
    <glyph glyph-name="Adotmacron" unicode="&#x1e0;" horiz-adv-x="1501" 
d="M1042 0l-35 344h-509l-186 -344h-315l820 1443h349l187 -1443h-311zM916 1142l-304 -565h381l-58 565h-19zM1481 1996h-746l36 168h745zM1052 1575q-68 0 -112 42.5t-44 107.5q0 64 44 106t112 42t112 -42t44 -106q0 -65 -44 -107.5t-112 -42.5z" />
    <glyph glyph-name="adotmacron" unicode="&#x1e1;" horiz-adv-x="1202" 
d="M534 202q93 0 165 52t90 132l21 95l-228 -8q-100 -4 -156.5 -43t-56.5 -104q0 -55 46 -89.5t119 -34.5zM411 -17q-140 0 -234 86t-94 215q0 168 129.5 266.5t361.5 105.5l274 9l15 68q5 25 5 40q0 57 -49 90.5t-133 33.5q-147 0 -192 -98h-275q35 151 167.5 239.5
t320.5 88.5q202 0 325 -89.5t123 -235.5q0 -50 -9 -89l-151 -713h-283l29 136h-18q-47 -71 -131 -112t-181 -41zM781 1251q-66 0 -108.5 42.5t-42.5 106.5q0 65 42.5 108t108.5 43t108 -43t42 -108q0 -64 -42.5 -106.5t-107.5 -42.5zM1208 1678h-735l38 180h735z" />
    <glyph glyph-name="AEmacron" unicode="&#x1e2;" horiz-adv-x="2059" 
d="M1180 1202h-130l-379 -604h379zM922 0l80 364h-465l-234 -364h-307l903 1443h1259l-54 -258h-650l-75 -341h614l-50 -239h-613l-77 -347h650l-52 -258h-929zM2013 1632h-745l37 181h746z" />
    <glyph glyph-name="aemacron" unicode="&#x1e3;" horiz-adv-x="1927" 
d="M1297 -24q-123 0 -233 56.5t-154 145.5h-18q-58 -87 -170.5 -144.5t-244.5 -57.5q-171 0 -281.5 89.5t-110.5 222.5q0 174 127.5 270.5t363.5 104.5l274 9l15 61q5 28 5 40q0 57 -49 90.5t-134 33.5q-147 0 -191 -98h-275q35 154 164.5 241t317.5 87q115 0 205 -42
t132 -114h18q68 75 160.5 115.5t199.5 40.5q193 0 323.5 -128t131.5 -334q0 -86 -18 -180h-768q-1 -8 -1 -32q0 -121 66 -185.5t166 -64.5q161 0 216 114h281q-39 -154 -178 -247.5t-340 -93.5zM1118 669h479q3 9 3 38q0 85 -54.5 140.5t-148.5 55.5q-100 0 -175 -64
t-104 -170zM536 195q92 0 164.5 55t90.5 136l21 95l-228 -8q-100 -4 -157 -43t-57 -105q0 -56 46.5 -93t119.5 -37zM1414 1316h-735l38 180h735z" />
    <glyph glyph-name="Gcaron" unicode="&#x1e6;" horiz-adv-x="1567" 
d="M860 1591l-188 335h250l92 -191h18l172 191h275l-328 -335h-291zM1534 760l-37 -184q-58 -299 -240 -456t-467 -157q-275 0 -441.5 167.5t-166.5 443.5q0 263 101 469.5t281 321.5t408 115q158 0 290 -62t210.5 -169.5t82.5 -238.5v-33h-294q-6 104 -92 169t-216 65
q-198 0 -330 -175t-132 -441q0 -168 88 -265.5t239 -97.5q141 0 242 75.5t127 201.5l5 25h-307l47 226h602z" />
    <glyph glyph-name="gcaron" unicode="&#x1e7;" horiz-adv-x="1327" 
d="M936 1252h-291l-200 354h249l103 -209h18l194 209h277zM530 -417q-221 0 -359.5 94.5t-137.5 239.5h290q5 -55 65.5 -89t160.5 -34q112 0 178 49t86 139l44 194l-18 1q-109 -155 -325 -155q-166 0 -273.5 115.5t-107.5 300.5q0 190 72 347t197.5 246.5t276.5 89.5
q114 0 203 -58t120 -152h17l42 192h284l-246 -1147q-37 -175 -186.5 -274t-382.5 -99zM641 237q129 0 218.5 116t89.5 286q0 107 -58 171t-156 64q-130 0 -216.5 -112.5t-86.5 -285.5q0 -110 56.5 -174.5t152.5 -64.5z" />
    <glyph glyph-name="Kcaron" unicode="&#x1e8;" horiz-adv-x="1454" 
d="M402 0h-302l307 1443h301l-136 -635h18l659 635h358l-670 -653l382 -790h-340l-293 606l-192 -182zM847 1590l-188 335h250l92 -191h18l172 191h275l-328 -335h-291z" />
    <glyph glyph-name="kcaron" unicode="&#x1e9;" horiz-adv-x="1223" 
d="M531 690l448 413h340l-529 -482l328 -621h-321l-242 457l-110 -94l-78 -363h-292l324 1524h291l-177 -834h18zM416 1671l-188 335h250l92 -191h18l172 191h275l-328 -335h-291z" />
    <glyph glyph-name="Oogonek" unicode="&#x1ea;" horiz-adv-x="1627" 
d="M968 -458q-119 0 -188.5 56t-69.5 153q0 57 34 111.5t91 89.5l-3 17q-20 -2 -47 -2q-263 5 -431 175.5t-168 433.5q0 193 59.5 361.5t164 288t251 188t315.5 68.5q277 0 449.5 -170t172.5 -444q0 -272 -101.5 -461.5t-287.5 -322.5l-74.5 -54.5l-69.5 -50.5t-54.5 -43.5
t-46 -44.5t-25.5 -40.5t-11 -44.5q0 -45 33.5 -69t96.5 -24q29 0 43 2l-33 -161q-48 -12 -100 -12zM1288 845q0 165 -89 265t-235 100q-129 0 -237 -81t-169.5 -221.5t-61.5 -309.5q0 -165 89 -265t236 -100q130 0 237 80.5t168.5 221t61.5 310.5z" />
    <glyph glyph-name="oogonek" unicode="&#x1eb;" horiz-adv-x="1289" 
d="M736 -458q-119 0 -188.5 56t-69.5 153q0 60 40.5 116t99.5 93l-2 17h-12q-212 8 -340.5 139.5t-128.5 341.5q0 190 80.5 343t223 239.5t319.5 86.5q221 0 355.5 -132t134.5 -351q0 -196 -89 -355.5t-241 -241.5q-221 -131 -221 -242q0 -45 33.5 -68.5t95.5 -23.5
q28 0 44 2l-34 -161q-48 -12 -100 -12zM438 467q0 -116 56 -184t151 -68q122 0 210 122t88 291q0 123 -53 192t-148 69q-130 0 -217 -121t-87 -301z" />
    <glyph glyph-name="Oogonekmacron" unicode="&#x1ec;" horiz-adv-x="1627" 
d="M968 -458q-119 0 -188.5 56t-69.5 153q0 57 34 111.5t91 89.5l-3 17q-20 -2 -47 -2q-263 5 -431 175.5t-168 433.5q0 193 59.5 361.5t164 288t251 188t315.5 68.5q277 0 449.5 -170t172.5 -444q0 -272 -101.5 -461.5t-287.5 -322.5l-74.5 -54.5l-69.5 -50.5t-54.5 -43.5
t-46 -44.5t-25.5 -40.5t-11 -44.5q0 -45 33.5 -69t96.5 -24q29 0 43 2l-33 -161q-48 -12 -100 -12zM1288 845q0 165 -89 265t-235 100q-129 0 -237 -81t-169.5 -221.5t-61.5 -309.5q0 -165 89 -265t236 -100q130 0 237 80.5t168.5 221t61.5 310.5zM1385 1631h-745l37 181
h746z" />
    <glyph glyph-name="oogonekmacron" unicode="&#x1ed;" horiz-adv-x="1289" 
d="M1161 1316h-735l38 180h735zM736 -458q-119 0 -188.5 56t-69.5 153q0 60 40.5 116t99.5 93l-2 17h-12q-212 8 -340.5 139.5t-128.5 341.5q0 190 80.5 343t223 239.5t319.5 86.5q221 0 355.5 -132t134.5 -351q0 -196 -89 -355.5t-241 -241.5q-221 -131 -221 -242
q0 -45 33.5 -68.5t95.5 -23.5q28 0 44 2l-34 -161q-48 -12 -100 -12zM438 467q0 -116 56 -184t151 -68q122 0 210 122t88 291q0 123 -53 192t-148 69q-130 0 -217 -121t-87 -301z" />
    <glyph glyph-name="u01F1" unicode="&#x1f1;" horiz-adv-x="2930" 
d="M1607 0l42 204l915 963l2 18h-689l53 258h1076l-42 -203l-913 -964l-2 -18h724l-53 -258h-1113zM407 1443h511q276 0 433.5 -155.5t157.5 -431.5q0 -245 -96.5 -440.5t-268.5 -305.5t-388 -110h-655zM660 1187l-201 -930h270q205 0 337 157t132 408q0 170 -92 267.5
t-255 97.5h-191z" />
    <glyph glyph-name="u01F2" unicode="&#x1f2;" horiz-adv-x="2706" 
d="M1592 0l35 172l689 681l2 18h-532l49 232h898l-41 -192l-652 -661l-1 -18h519l-48 -232h-918zM407 1443h511q276 0 433.5 -155.5t157.5 -431.5q0 -245 -96.5 -440.5t-268.5 -305.5t-388 -110h-655zM660 1187l-201 -930h270q205 0 337 157t132 408q0 170 -92 267.5
t-255 97.5h-191z" />
    <glyph glyph-name="u01F3" unicode="&#x1f3;" horiz-adv-x="2497" 
d="M1383 0l35 172l689 681l2 18h-532l49 232h898l-41 -192l-652 -661l-1 -18h519l-48 -232h-918zM511 -17q-168 0 -275 116t-107 314q0 201 74 364t202 253.5t283 90.5q119 0 202.5 -57.5t110.5 -148.5h18l130 609h292l-323 -1524h-283l32 153h-18q-59 -80 -145 -125
t-193 -45zM641 223q131 0 223 122.5t92 293.5q0 111 -58.5 173t-153.5 62q-132 0 -222.5 -117.5t-90.5 -293.5q0 -110 59.5 -175t150.5 -65z" />
    <glyph glyph-name="Gacute" unicode="&#x1f4;" horiz-adv-x="1567" 
d="M845 1591l343 318h315l-381 -318h-277zM1534 760l-37 -184q-58 -299 -240 -456t-467 -157q-275 0 -441.5 167.5t-166.5 443.5q0 263 101 469.5t281 321.5t408 115q158 0 290 -62t210.5 -169.5t82.5 -238.5v-33h-294q-6 104 -92 169t-216 65q-198 0 -330 -175t-132 -441
q0 -168 88 -265.5t239 -97.5q141 0 242 75.5t127 201.5l5 25h-307l47 226h602z" />
    <glyph glyph-name="gacute" unicode="&#x1f5;" horiz-adv-x="1327" 
d="M619 1282l323 353h310l-361 -353h-272zM530 -417q-221 0 -359.5 94.5t-137.5 239.5h290q5 -55 65.5 -89t160.5 -34q112 0 178 49t86 139l44 194l-18 1q-109 -155 -325 -155q-166 0 -273.5 115.5t-107.5 300.5q0 190 72 347t197.5 246.5t276.5 89.5q114 0 203 -58
t120 -152h17l42 192h284l-246 -1147q-37 -175 -186.5 -274t-382.5 -99zM641 237q129 0 218.5 116t89.5 286q0 107 -58 171t-156 64q-130 0 -216.5 -112.5t-86.5 -285.5q0 -110 56.5 -174.5t152.5 -64.5z" />
    <glyph glyph-name="Ngrave" unicode="&#x1f8;" horiz-adv-x="1573" 
d="M991 1908l177 -318h-266l-217 318h306zM393 0h-293l307 1443h231l479 -929h18l202 929h293l-307 -1443h-229l-483 922h-18z" />
    <glyph glyph-name="ngrave" unicode="&#x1f9;" horiz-adv-x="1304" 
d="M897 1287h-265l-250 353h303zM67 0l236 1112h282l-37 -175h18q55 87 144.5 138.5t203.5 51.5q152 0 245.5 -90.5t93.5 -229.5q0 -58 -14 -131l-142 -676h-291l132 628q10 46 10 84q0 76 -52 123.5t-137 47.5q-96 0 -167.5 -62.5t-92.5 -161.5l-140 -659h-292z" />
    <glyph glyph-name="Aringacute" unicode="&#x1fa;" horiz-adv-x="1501" 
d="M1042 0l-35 344h-509l-186 -344h-315l820 1443h349l187 -1443h-311zM916 1142l-304 -565h381l-58 565h-19zM1004 1779q-16 -20 -11.5 -44t25.5 -41q22 -17 46 -14.5t40 21.5t12 44t-26 41q-21 17 -45.5 15t-40.5 -22zM1055 1531q-93 0 -154.5 60t-61.5 151q0 90 61.5 149
t154.5 59q92 0 153.5 -59t61.5 -149q0 -91 -61.5 -151t-153.5 -60zM1091 2214h264l-156 -191h-237z" />
    <glyph glyph-name="aringacute" unicode="&#x1fb;" horiz-adv-x="1202" 
d="M534 202q93 0 165 52t90 132l21 95l-228 -8q-100 -4 -156.5 -43t-56.5 -104q0 -55 46 -89.5t119 -34.5zM411 -17q-140 0 -234 86t-94 215q0 168 129.5 266.5t361.5 105.5l274 9l15 68q5 25 5 40q0 57 -49 90.5t-133 33.5q-147 0 -192 -98h-275q35 151 167.5 239.5
t320.5 88.5q202 0 325 -89.5t123 -235.5q0 -50 -9 -89l-151 -713h-283l29 136h-18q-47 -71 -131 -112t-181 -41zM824 1215q-97 0 -162 64t-65 159t65 158.5t162 63.5t162 -63.5t65 -158.5t-65 -159t-162 -64zM733 1437q0 -39 26 -65t65 -26t65.5 26t26.5 65t-26.5 65
t-65.5 26t-65 -25.5t-26 -65.5zM733 1739l210 236h251l-248 -236h-213z" />
    <glyph glyph-name="AEacute" unicode="&#x1fc;" horiz-adv-x="2059" 
d="M1484 1590l343 318h315l-381 -318h-277zM1180 1202h-130l-379 -604h379zM922 0l80 364h-465l-234 -364h-307l903 1443h1259l-54 -258h-650l-75 -341h614l-50 -239h-613l-77 -347h650l-52 -258h-929z" />
    <glyph glyph-name="aeacute" unicode="&#x1fd;" horiz-adv-x="1927" 
d="M877 1281l323 353h310l-361 -353h-272zM1297 -24q-123 0 -233 56.5t-154 145.5h-18q-58 -87 -170.5 -144.5t-244.5 -57.5q-171 0 -281.5 89.5t-110.5 222.5q0 174 127.5 270.5t363.5 104.5l274 9l15 61q5 28 5 40q0 57 -49 90.5t-134 33.5q-147 0 -191 -98h-275
q35 154 164.5 241t317.5 87q115 0 205 -42t132 -114h18q68 75 160.5 115.5t199.5 40.5q193 0 323.5 -128t131.5 -334q0 -86 -18 -180h-768q-1 -8 -1 -32q0 -121 66 -185.5t166 -64.5q161 0 216 114h281q-39 -154 -178 -247.5t-340 -93.5zM1118 669h479q3 9 3 38
q0 85 -54.5 140.5t-148.5 55.5q-100 0 -175 -64t-104 -170zM536 195q92 0 164.5 55t90.5 136l21 95l-228 -8q-100 -4 -157 -43t-57 -105q0 -56 46.5 -93t119.5 -37z" />
    <glyph glyph-name="Oslashacute" unicode="&#x1fe;" horiz-adv-x="1592" 
d="M1417 1907l-381 -318h-277l343 318h315zM1212 1087l-545 -820q68 -34 150 -34q129 0 236 79.5t168.5 220t61.5 311.5q0 145 -71 243zM572 343l547 826q-71 40 -160 40q-129 0 -236.5 -80.5t-169.5 -221t-62 -309.5q0 -157 81 -255zM1451 1448l-69 -104
q101 -83 156 -206.5t55 -270.5q0 -197 -60.5 -366t-165 -287t-250 -184.5t-312.5 -66.5q-163 0 -297 64l-63 -95l-102 66l62 93q-107 83 -165.5 208.5t-58.5 276.5q0 157 39 297.5t110.5 250.5t168.5 190.5t218 123t254 42.5q172 0 308 -69l64 96z" />
    <glyph glyph-name="oslashacute" unicode="&#x1ff;" horiz-adv-x="1270" 
d="M1158 1634l-361 -353h-272l323 353h310zM924 754l-410 -492q53 -47 131 -47q120 0 209 120.5t89 292.5q0 73 -19 126zM453 359l409 490q-49 40 -120 40q-132 0 -218 -122t-86 -300q0 -60 15 -108zM1225 1114l-105 -126q128 -131 128 -344q0 -183 -76.5 -335
t-219.5 -242.5t-324 -90.5q-168 0 -288 77l-105 -126l-90 63l111 133q-121 130 -121 335q0 185 77.5 337.5t221 242t324.5 89.5q160 0 277 -71l97 116z" />
    <glyph glyph-name="Adblgrave" unicode="&#x200;" horiz-adv-x="1501" 
d="M1042 0l-35 344h-509l-186 -344h-315l820 1443h349l187 -1443h-311zM916 1142l-304 -565h381l-58 565h-19zM987 1590h-245l-179 318h271zM1424 1590h-244l-179 318h270z" />
    <glyph glyph-name="adblgrave" unicode="&#x201;" horiz-adv-x="1202" 
d="M534 202q93 0 165 52t90 132l21 95l-228 -8q-100 -4 -156.5 -43t-56.5 -104q0 -55 46 -89.5t119 -34.5zM411 -17q-140 0 -234 86t-94 215q0 168 129.5 266.5t361.5 105.5l274 9l15 68q5 25 5 40q0 57 -49 90.5t-133 33.5q-147 0 -192 -98h-275q35 151 167.5 239.5
t320.5 88.5q202 0 325 -89.5t123 -235.5q0 -50 -9 -89l-151 -713h-283l29 136h-18q-47 -71 -131 -112t-181 -41zM637 1281h-224l-167 353h254zM1073 1281h-224l-167 353h254z" />
    <glyph glyph-name="Ainvertedbreve" unicode="&#x202;" horiz-adv-x="1501" 
d="M1042 0l-35 344h-509l-186 -344h-315l820 1443h349l187 -1443h-311zM916 1142l-304 -565h381l-58 565h-19zM1444 1611q0 -22 -2 -32h-204v22q0 63 -51.5 103.5t-129.5 40.5q-80 0 -134 -43.5t-71 -122.5h-205q22 151 134.5 243.5t281.5 92.5q167 0 274 -86t107 -218z" />
    <glyph glyph-name="ainvertedbreve" unicode="&#x203;" horiz-adv-x="1202" 
d="M534 202q93 0 165 52t90 132l21 95l-228 -8q-100 -4 -156.5 -43t-56.5 -104q0 -55 46 -89.5t119 -34.5zM411 -17q-140 0 -234 86t-94 215q0 168 129.5 266.5t361.5 105.5l274 9l15 68q5 25 5 40q0 57 -49 90.5t-133 33.5q-147 0 -192 -98h-275q35 151 167.5 239.5
t320.5 88.5q202 0 325 -89.5t123 -235.5q0 -50 -9 -89l-151 -713h-283l29 136h-18q-47 -71 -131 -112t-181 -41zM1190 1251h-205q2 14 2 29q0 68 -50 110t-132 42q-183 0 -214 -181h-206q16 161 130 256t297 95q168 0 275 -86.5t107 -218.5q0 -26 -4 -46z" />
    <glyph glyph-name="Edblgrave" unicode="&#x204;" horiz-adv-x="1274" 
d="M881 1590h-245l-179 318h271zM1318 1590h-244l-179 318h270zM1109 258l-52 -258h-957l307 1443h956l-53 -258h-652l-75 -337h616l-50 -239h-615l-78 -351h653z" />
    <glyph glyph-name="edblgrave" unicode="&#x205;" horiz-adv-x="1248" 
d="M624 -24q-218 0 -353 127t-135 347q0 302 166 489.5t431 187.5q201 0 333 -127t132 -335q0 -82 -17 -180h-770q0 -4 -0.5 -15.5t-0.5 -15.5q0 -122 66 -186.5t166 -64.5q163 0 218 114h280q-38 -154 -176.5 -247.5t-339.5 -93.5zM443 669h479q3 18 3 38q0 85 -55 140.5
t-149 55.5q-99 0 -174 -64t-104 -170zM646 1281h-224l-167 353h254zM1082 1281h-224l-167 353h254z" />
    <glyph glyph-name="Einvertedbreve" unicode="&#x206;" horiz-adv-x="1274" 
d="M1109 258l-52 -258h-957l307 1443h956l-53 -258h-652l-75 -337h616l-50 -239h-615l-78 -351h653zM1338 1611q0 -22 -2 -32h-204v22q0 63 -51.5 103.5t-129.5 40.5q-80 0 -134 -43.5t-71 -122.5h-205q22 151 134.5 243.5t281.5 92.5q167 0 274 -86t107 -218z" />
    <glyph glyph-name="einvertedbreve" unicode="&#x207;" horiz-adv-x="1248" 
d="M624 -24q-218 0 -353 127t-135 347q0 302 166 489.5t431 187.5q201 0 333 -127t132 -335q0 -82 -17 -180h-770q0 -4 -0.5 -15.5t-0.5 -15.5q0 -122 66 -186.5t166 -64.5q163 0 218 114h280q-38 -154 -176.5 -247.5t-339.5 -93.5zM443 669h479q3 18 3 38q0 85 -55 140.5
t-149 55.5q-99 0 -174 -64t-104 -170zM1199 1251h-205q2 14 2 29q0 68 -50 110t-132 42q-183 0 -214 -181h-206q16 161 130 256t297 95q168 0 275 -86.5t107 -218.5q0 -26 -4 -46z" />
    <glyph glyph-name="Idblgrave" unicode="&#x208;" horiz-adv-x="653" 
d="M404 0h-304l307 1443h304zM555 1590h-245l-179 318h271zM992 1590h-244l-179 318h270z" />
    <glyph glyph-name="idblgrave" unicode="&#x209;" horiz-adv-x="599" 
d="M79 0l234 1103h291l-234 -1103h-291zM377 1281h-224l-167 353h254zM813 1281h-224l-167 353h254z" />
    <glyph glyph-name="Iinvertedbreve" unicode="&#x20a;" horiz-adv-x="653" 
d="M404 0h-304l307 1443h304zM1012 1611q0 -22 -2 -32h-204v22q0 63 -51.5 103.5t-129.5 40.5q-80 0 -134 -43.5t-71 -122.5h-205q22 151 134.5 243.5t281.5 92.5q167 0 274 -86t107 -218z" />
    <glyph glyph-name="iinvertedbreve" unicode="&#x20b;" horiz-adv-x="599" 
d="M79 0l234 1103h291l-234 -1103h-291zM930 1251h-205q2 14 2 29q0 68 -50 110t-132 42q-183 0 -214 -181h-206q16 161 130 256t297 95q168 0 275 -86.5t107 -218.5q0 -26 -4 -46z" />
    <glyph glyph-name="Odblgrave" unicode="&#x20c;" horiz-adv-x="1617" 
d="M968 1589h-245l-179 318h271zM1405 1589h-244l-179 318h270zM805 -37q-185 0 -328 80t-219.5 219.5t-76.5 313.5q0 157 39 297.5t110.5 250.5t168.5 190.5t218 123t254 42.5q282 0 452 -173t170 -440q0 -197 -60.5 -366t-165 -287t-250 -184.5t-312.5 -66.5zM1283 844
q0 165 -89 265t-235 100q-129 0 -236.5 -80.5t-169.5 -221t-62 -309.5q0 -165 89.5 -265t236.5 -100q129 0 236 79.5t168.5 220t61.5 311.5z" />
    <glyph glyph-name="odblgrave" unicode="&#x20d;" horiz-adv-x="1289" 
d="M438 467q0 -115 55 -183.5t152 -68.5q120 0 209 120.5t89 292.5q0 123 -53 192t-148 69q-132 0 -218 -122t-86 -300zM628 -24q-222 0 -357.5 132.5t-135.5 349.5q0 185 77.5 337.5t221 242t324.5 89.5q222 0 356 -133t134 -350q0 -183 -76.5 -335t-219.5 -242.5
t-324 -90.5zM667 1281h-224l-167 353h254zM1103 1281h-224l-167 353h254z" />
    <glyph glyph-name="Oinvertedbreve" unicode="&#x20e;" horiz-adv-x="1617" 
d="M1425 1610q0 -22 -2 -32h-204v22q0 63 -51.5 103.5t-129.5 40.5q-80 0 -134 -43.5t-71 -122.5h-205q22 151 134.5 243.5t281.5 92.5q167 0 274 -86t107 -218zM805 -37q-185 0 -328 80t-219.5 219.5t-76.5 313.5q0 157 39 297.5t110.5 250.5t168.5 190.5t218 123t254 42.5
q282 0 452 -173t170 -440q0 -197 -60.5 -366t-165 -287t-250 -184.5t-312.5 -66.5zM1283 844q0 165 -89 265t-235 100q-129 0 -236.5 -80.5t-169.5 -221t-62 -309.5q0 -165 89.5 -265t236.5 -100q129 0 236 79.5t168.5 220t61.5 311.5z" />
    <glyph glyph-name="oinvertedbreve" unicode="&#x20f;" horiz-adv-x="1289" 
d="M438 467q0 -115 55 -183.5t152 -68.5q120 0 209 120.5t89 292.5q0 123 -53 192t-148 69q-132 0 -218 -122t-86 -300zM628 -24q-222 0 -357.5 132.5t-135.5 349.5q0 185 77.5 337.5t221 242t324.5 89.5q222 0 356 -133t134 -350q0 -183 -76.5 -335t-219.5 -242.5
t-324 -90.5zM1220 1251h-205q2 14 2 29q0 68 -50 110t-132 42q-183 0 -214 -181h-206q16 161 130 256t297 95q168 0 275 -86.5t107 -218.5q0 -26 -4 -46z" />
    <glyph glyph-name="Rdblgrave" unicode="&#x210;" horiz-adv-x="1418" 
d="M827 1590h-245l-179 318h271zM1264 1590h-244l-179 318h270zM100 0l307 1443h571q200 0 326 -114.5t126 -294.5q0 -161 -97 -292t-260 -184l198 -558h-325l-172 523h-258l-112 -523h-304zM661 1199l-98 -444h264q132 0 213.5 70t81.5 182q0 91 -56 141.5t-157 50.5h-248z
" />
    <glyph glyph-name="rdblgrave" unicode="&#x211;" horiz-adv-x="875" 
d="M63 0l235 1103h283l-31 -152h18q94 170 274 170q90 0 141 -24l-57 -268q-75 30 -168 30q-218 0 -272 -251l-131 -608h-292zM521 1281h-224l-167 353h254zM957 1281h-224l-167 353h254z" />
    <glyph glyph-name="Rinvertedbreve" unicode="&#x212;" horiz-adv-x="1418" 
d="M100 0l307 1443h571q200 0 326 -114.5t126 -294.5q0 -161 -97 -292t-260 -184l198 -558h-325l-172 523h-258l-112 -523h-304zM661 1199l-98 -444h264q132 0 213.5 70t81.5 182q0 91 -56 141.5t-157 50.5h-248zM1284 1611q0 -22 -2 -32h-204v22q0 63 -51.5 103.5
t-129.5 40.5q-80 0 -134 -43.5t-71 -122.5h-205q22 151 134.5 243.5t281.5 92.5q167 0 274 -86t107 -218z" />
    <glyph glyph-name="rinvertedbreve" unicode="&#x213;" horiz-adv-x="875" 
d="M63 0l235 1103h283l-31 -152h18q94 170 274 170q90 0 141 -24l-57 -268q-75 30 -168 30q-218 0 -272 -251l-131 -608h-292zM1074 1251h-205q2 14 2 29q0 68 -50 110t-132 42q-183 0 -214 -181h-206q16 161 130 256t297 95q168 0 275 -86.5t107 -218.5q0 -26 -4 -46z" />
    <glyph glyph-name="Udblgrave" unicode="&#x214;" horiz-adv-x="1564" 
d="M1010 1590h-245l-179 318h271zM1447 1590h-244l-179 318h270zM776 -37q-261 0 -413 131t-153 339q0 64 13 126l187 884h305l-186 -877q-12 -56 -11 -102q2 -108 75 -169t201 -61q127 0 214 72.5t116 206.5l198 930h304l-211 -997q-48 -229 -215 -356t-424 -127z" />
    <glyph glyph-name="udblgrave" unicode="&#x215;" horiz-adv-x="1305" 
d="M1322 1103l-233 -1103h-283l36 167h-18q-50 -89 -139.5 -140t-203.5 -51q-152 0 -247 88.5t-95 233.5q0 58 15 141l139 664h293l-131 -616q-10 -47 -10 -86q0 -85 47.5 -129t136.5 -44q99 0 170 63t94 168l137 644h292zM722 1281h-224l-167 353h254zM1158 1281h-224
l-167 353h254z" />
    <glyph glyph-name="Uinvertedbreve" unicode="&#x216;" horiz-adv-x="1564" 
d="M776 -37q-261 0 -413 131t-153 339q0 64 13 126l187 884h305l-186 -877q-12 -56 -11 -102q2 -108 75 -169t201 -61q127 0 214 72.5t116 206.5l198 930h304l-211 -997q-48 -229 -215 -356t-424 -127zM1467 1611q0 -22 -2 -32h-204v22q0 63 -51.5 103.5t-129.5 40.5
q-80 0 -134 -43.5t-71 -122.5h-205q22 151 134.5 243.5t281.5 92.5q167 0 274 -86t107 -218z" />
    <glyph glyph-name="uinvertedbreve" unicode="&#x217;" horiz-adv-x="1305" 
d="M1322 1103l-233 -1103h-283l36 167h-18q-50 -89 -139.5 -140t-203.5 -51q-152 0 -247 88.5t-95 233.5q0 58 15 141l139 664h293l-131 -616q-10 -47 -10 -86q0 -85 47.5 -129t136.5 -44q99 0 170 63t94 168l137 644h292zM1275 1251h-205q2 14 2 29q0 68 -50 110t-132 42
q-183 0 -214 -181h-206q16 161 130 256t297 95q168 0 275 -86.5t107 -218.5q0 -26 -4 -46z" />
    <glyph glyph-name="Scommaaccent" unicode="&#x218;" horiz-adv-x="1362" 
d="M107 412h292q16 -92 99 -148t201 -56q122 0 198 52t76 137q0 63 -49.5 105.5t-166.5 79.5l-150 47q-160 50 -247.5 152.5t-87.5 241.5q0 130 73.5 234.5t203.5 163.5t291 59q237 0 389.5 -124.5t159.5 -322.5h-285q-14 91 -89.5 146.5t-186.5 55.5q-106 0 -177.5 -50
t-71.5 -126q0 -61 46.5 -105.5t147.5 -76.5l148 -46q184 -58 270 -152t86 -240q0 -214 -165.5 -345t-434.5 -131q-248 0 -402.5 120t-167.5 329zM617 -509h-258l172 358h292z" />
    <glyph glyph-name="scommaaccent" unicode="&#x219;" horiz-adv-x="1150" 
d="M82 318h281q12 -57 68 -93t137 -36q85 0 136.5 32t51.5 85q0 36 -25.5 61t-87.5 45l-172 60q-132 45 -196 117.5t-64 180.5q0 161 126.5 259t330.5 98q200 0 322.5 -89.5t133.5 -238.5h-267q-10 52 -61.5 83.5t-127.5 31.5q-77 0 -126.5 -32t-49.5 -82q0 -36 29 -62
t93 -47l179 -63q134 -46 194.5 -115t60.5 -175q0 -162 -133 -262t-348 -100q-212 0 -345.5 94.5t-139.5 247.5zM480 -509h-258l172 358h292z" />
    <glyph glyph-name="Tcommaaccent" unicode="&#x21a;" horiz-adv-x="1352" 
d="M528 -509h-258l172 358h292zM752 0h-304l254 1185h-432l53 258h1168l-53 -258h-432z" />
    <glyph glyph-name="tcommaaccent" unicode="&#x21b;" horiz-adv-x="846" 
d="M388 -509h-258l172 358h292zM568 -14q-175 0 -266.5 60t-91.5 175q0 43 11 96l116 537h-175l47 230h175l56 267h293l-57 -267h235l-48 -230h-234l-104 -479q-8 -37 -8 -64q0 -51 37.5 -74.5t114.5 -23.5q31 0 52 3l-46 -222q-48 -8 -107 -8z" />
    <glyph glyph-name="Hcaron" unicode="&#x21e;" horiz-adv-x="1606" 
d="M1356 0h-305l129 603h-648l-129 -603h-303l307 1443h304l-125 -582h648l125 582h304zM934 1590l-188 335h250l92 -191h18l172 191h275l-328 -335h-291z" />
    <glyph glyph-name="hcaron" unicode="&#x21f;" horiz-adv-x="1321" 
d="M75 0l323 1515h292l-125 -578h18q119 187 343 187q154 0 248.5 -90.5t94.5 -226.5q0 -58 -14 -131l-142 -676h-291l132 628q10 48 10 84q0 78 -53.5 124.5t-139.5 46.5q-98 0 -170.5 -62.5t-93.5 -161.5l-140 -659h-292zM440 1662l-188 335h250l92 -191h18l172 191h275
l-328 -335h-291z" />
    <glyph glyph-name="Adotaccent" unicode="&#x226;" horiz-adv-x="1501" 
d="M1042 0l-35 344h-509l-186 -344h-315l820 1443h349l187 -1443h-311zM916 1142l-304 -565h381l-58 565h-19zM1056 1579q-69 0 -113.5 45t-44.5 113t44.5 113t113.5 45t113 -45t44 -113t-44 -113t-113 -45z" />
    <glyph glyph-name="adotaccent" unicode="&#x227;" horiz-adv-x="1202" 
d="M534 202q93 0 165 52t90 132l21 95l-228 -8q-100 -4 -156.5 -43t-56.5 -104q0 -55 46 -89.5t119 -34.5zM411 -17q-140 0 -234 86t-94 215q0 168 129.5 266.5t361.5 105.5l274 9l15 68q5 25 5 40q0 57 -49 90.5t-133 33.5q-147 0 -192 -98h-275q35 151 167.5 239.5
t320.5 88.5q202 0 325 -89.5t123 -235.5q0 -50 -9 -89l-151 -713h-283l29 136h-18q-47 -71 -131 -112t-181 -41zM790 1274q-68 0 -114.5 47t-46.5 117t46.5 117t114.5 47t114.5 -47t46.5 -117t-46.5 -117t-114.5 -47z" />
    <glyph glyph-name="Ecedilla" unicode="&#x228;" horiz-adv-x="1273" 
d="M1310 1185h-652l-75 -337h616l-50 -239h-615l-78 -351h653l-52 -258h-372l-78 -120q159 -26 159 -164q0 -96 -72 -154t-191 -58q-107 0 -186 36l28 133q65 -27 142 -27q44 0 68 15t24 43q0 61 -116 61h-57l17 116l78 119h-401l307 1443h956z" />
    <glyph glyph-name="ecedilla" unicode="&#x229;" horiz-adv-x="1248" 
d="M443 669h479q3 18 3 38q0 85 -55 140.5t-149 55.5q-99 0 -174 -64t-104 -170zM1181 485h-770q0 -4 -0.5 -15.5t-0.5 -15.5q0 -122 66 -186.5t166 -64.5q163 0 218 114h280q-34 -138 -148.5 -227.5t-283.5 -108.5l-66 -101q159 -26 159 -164q0 -96 -72 -154t-191 -58
q-107 0 -186 36l28 133q65 -27 142 -27q44 0 68 15t24 43q0 61 -116 61h-57l17 116l67 102q-178 28 -283.5 151t-105.5 316q0 302 166 489.5t431 187.5q201 0 333 -127t132 -335q0 -82 -17 -180z" />
    <glyph glyph-name="Odieresismacron" unicode="&#x22a;" horiz-adv-x="1617" 
d="M805 -37q-185 0 -328 80t-219.5 219.5t-76.5 313.5q0 157 39 297.5t110.5 250.5t168.5 190.5t218 123t254 42.5q282 0 452 -173t170 -440q0 -197 -60.5 -366t-165 -287t-250 -184.5t-312.5 -66.5zM1283 844q0 165 -89 265t-235 100q-129 0 -236.5 -80.5t-169.5 -221
t-62 -309.5q0 -165 89.5 -265t236.5 -100q129 0 236 79.5t168.5 220t61.5 311.5zM716 1995l36 168h745l-36 -168h-745zM800 1578q-67 0 -110.5 42.5t-43.5 107.5t43.5 107.5t110.5 42.5t110 -42.5t43 -107.5t-43 -107.5t-110 -42.5zM1268 1578q-66 0 -109.5 42.5
t-43.5 107.5t43.5 107.5t109.5 42.5q67 0 110.5 -42.5t43.5 -107.5t-43.5 -107.5t-110.5 -42.5z" />
    <glyph glyph-name="odieresismacron" unicode="&#x22b;" horiz-adv-x="1289" 
d="M588 1251q-63 0 -104.5 42t-41.5 103q0 62 41.5 103.5t104.5 41.5q64 0 105 -41.5t41 -103.5t-41 -103.5t-105 -41.5zM1031 1251q-64 0 -105 41.5t-41 103.5t41 103.5t105 41.5q63 0 104.5 -41.5t41.5 -103.5q0 -61 -41.5 -103t-104.5 -42zM1238 1678h-735l38 180h735z
M438 467q0 -115 55 -183.5t152 -68.5q120 0 209 120.5t89 292.5q0 123 -53 192t-148 69q-132 0 -218 -122t-86 -300zM628 -24q-222 0 -357.5 132.5t-135.5 349.5q0 185 77.5 337.5t221 242t324.5 89.5q222 0 356 -133t134 -350q0 -183 -76.5 -335t-219.5 -242.5t-324 -90.5z
" />
    <glyph glyph-name="Otildemacron" unicode="&#x22c;" horiz-adv-x="1617" 
d="M1459 1985h-745l37 178h745zM1180 1576q-49 0 -93.5 20t-71.5 43.5t-58.5 43.5t-58.5 20q-79 0 -97 -95h-181q17 125 91.5 196.5t175.5 71.5q49 0 93.5 -19.5t71.5 -43.5t58.5 -43.5t58.5 -19.5q79 0 97 95h181q-18 -126 -92 -197.5t-175 -71.5zM805 -37q-185 0 -328 80
t-219.5 219.5t-76.5 313.5q0 157 39 297.5t110.5 250.5t168.5 190.5t218 123t254 42.5q282 0 452 -173t170 -440q0 -197 -60.5 -366t-165 -287t-250 -184.5t-312.5 -66.5zM1283 844q0 165 -89 265t-235 100q-129 0 -236.5 -80.5t-169.5 -221t-62 -309.5q0 -165 89.5 -265
t236.5 -100q129 0 236 79.5t168.5 220t61.5 311.5z" />
    <glyph glyph-name="otildemacron" unicode="&#x22d;" horiz-adv-x="1289" 
d="M977 1247q-46 0 -86 17t-67.5 41t-51 48t-48.5 41t-50 17q-75 0 -94 -124h-184q16 135 90.5 216t180.5 81q46 0 85.5 -17t67 -41t51 -48t48.5 -41t50 -17q76 0 95 124h184q-16 -136 -90.5 -216.5t-180.5 -80.5zM1232 1680h-735l38 180h735zM438 467q0 -115 55 -183.5
t152 -68.5q120 0 209 120.5t89 292.5q0 123 -53 192t-148 69q-132 0 -218 -122t-86 -300zM628 -24q-222 0 -357.5 132.5t-135.5 349.5q0 185 77.5 337.5t221 242t324.5 89.5q222 0 356 -133t134 -350q0 -183 -76.5 -335t-219.5 -242.5t-324 -90.5z" />
    <glyph glyph-name="Odotaccent" unicode="&#x22e;" horiz-adv-x="1617" 
d="M1037 1578q-69 0 -113.5 45t-44.5 113t44.5 113t113.5 45t113 -45t44 -113t-44 -113t-113 -45zM805 -37q-185 0 -328 80t-219.5 219.5t-76.5 313.5q0 157 39 297.5t110.5 250.5t168.5 190.5t218 123t254 42.5q282 0 452 -173t170 -440q0 -197 -60.5 -366t-165 -287
t-250 -184.5t-312.5 -66.5zM1283 844q0 165 -89 265t-235 100q-129 0 -236.5 -80.5t-169.5 -221t-62 -309.5q0 -165 89.5 -265t236.5 -100q129 0 236 79.5t168.5 220t61.5 311.5z" />
    <glyph glyph-name="odotaccent" unicode="&#x22f;" horiz-adv-x="1289" 
d="M820 1274q-68 0 -114.5 47t-46.5 117t46.5 117t114.5 47t114.5 -47t46.5 -117t-46.5 -117t-114.5 -47zM438 467q0 -115 55 -183.5t152 -68.5q120 0 209 120.5t89 292.5q0 123 -53 192t-148 69q-132 0 -218 -122t-86 -300zM628 -24q-222 0 -357.5 132.5t-135.5 349.5
q0 185 77.5 337.5t221 242t324.5 89.5q222 0 356 -133t134 -350q0 -183 -76.5 -335t-219.5 -242.5t-324 -90.5z" />
    <glyph glyph-name="Odotaccentmacron" unicode="&#x230;" horiz-adv-x="1617" 
d="M1462 1995h-746l36 168h745zM1033 1574q-68 0 -112 42.5t-44 107.5q0 64 44 106t112 42t112 -42t44 -106q0 -65 -44 -107.5t-112 -42.5zM805 -37q-185 0 -328 80t-219.5 219.5t-76.5 313.5q0 157 39 297.5t110.5 250.5t168.5 190.5t218 123t254 42.5q282 0 452 -173
t170 -440q0 -197 -60.5 -366t-165 -287t-250 -184.5t-312.5 -66.5zM1283 844q0 165 -89 265t-235 100q-129 0 -236.5 -80.5t-169.5 -221t-62 -309.5q0 -165 89.5 -265t236.5 -100q129 0 236 79.5t168.5 220t61.5 311.5z" />
    <glyph glyph-name="odotaccentmacron" unicode="&#x231;" horiz-adv-x="1289" 
d="M438 467q0 -115 55 -183.5t152 -68.5q120 0 209 120.5t89 292.5q0 123 -53 192t-148 69q-132 0 -218 -122t-86 -300zM628 -24q-222 0 -357.5 132.5t-135.5 349.5q0 185 77.5 337.5t221 242t324.5 89.5q222 0 356 -133t134 -350q0 -183 -76.5 -335t-219.5 -242.5
t-324 -90.5zM811 1251q-66 0 -108.5 42.5t-42.5 106.5q0 65 42.5 108t108.5 43t108 -43t42 -108q0 -64 -42.5 -106.5t-107.5 -42.5zM1238 1678h-735l38 180h735z" />
    <glyph glyph-name="Ymacron" unicode="&#x232;" horiz-adv-x="1451" 
d="M804 0h-304l114 531l-310 912h316l196 -607h18l447 607h330l-697 -924zM1368 1632h-745l37 181h746z" />
    <glyph glyph-name="ymacron" unicode="&#x233;" horiz-adv-x="1208" 
d="M131 -403q-62 0 -132 5l46 235q20 -6 81 -6q151 0 211 122l22 44l-144 1106h297l64 -822h18l405 822h312l-630 -1143q-106 -200 -231.5 -281.5t-318.5 -81.5zM1172 1316h-735l38 180h735z" />
    <glyph glyph-name="dotlessj" unicode="&#x237;" horiz-adv-x="599" 
d="M605 1103l-247 -1158q-33 -154 -139 -236t-270 -83q-61 0 -131 12l48 226q25 -6 63 -6q62 0 96.5 29t48.5 91l240 1125h291z" />
    <glyph glyph-name="circumflex" unicode="&#x2c6;" horiz-adv-x="1071" 
d="M947 1605l200 -354h-250l-104 209h-18l-193 -209h-276l350 354h291z" />
    <glyph glyph-name="caron" unicode="&#x2c7;" horiz-adv-x="1071" 
d="M872 1251h-291l-200 354h249l103 -209h18l194 209h277z" />
    <glyph glyph-name="breve" unicode="&#x2d8;" horiz-adv-x="1072" 
d="M409 1602h205q-2 -16 -2 -29q0 -68 50 -110t132 -42q90 0 144.5 46.5t69.5 134.5h206q-16 -161 -130 -256t-297 -95q-172 0 -277 86.5t-105 218.5q0 26 4 46z" />
    <glyph glyph-name="dotaccent" unicode="&#x2d9;" horiz-adv-x="1071" 
d="M766 1274q-68 0 -114.5 47t-46.5 117t46.5 117t114.5 47t114.5 -47t46.5 -117t-46.5 -117t-114.5 -47z" />
    <glyph glyph-name="ring" unicode="&#x2da;" horiz-adv-x="1071" 
d="M778 1251q-105 0 -175.5 68.5t-70.5 172.5q0 103 70 170.5t176 67.5q105 0 175 -67.5t70 -170.5q0 -104 -70 -172.5t-175 -68.5zM777 1387q46 0 76 29.5t30 74.5q0 44 -30 73.5t-76 29.5t-75.5 -29.5t-29.5 -73.5q0 -46 29.5 -75t75.5 -29z" />
    <glyph glyph-name="ogonek" unicode="&#x2db;" horiz-adv-x="1071" 
d="M610 -282l-33 -161q-36 -12 -100 -12q-118 0 -188 55.5t-70 147.5q0 87 67 173.5t181 134.5l165 -23q-93 -49 -144 -108t-51 -116q0 -93 130 -93q27 0 43 2z" />
    <glyph glyph-name="tilde" unicode="&#x2dc;" horiz-adv-x="1071" 
d="M928 1261q-46 0 -86 17t-67.5 41t-51 48t-48.5 41t-50 17q-75 0 -94 -124h-184q16 135 90.5 216t180.5 81q46 0 85.5 -17t67 -41t51 -48t48.5 -41t50 -17q76 0 95 124h184q-16 -136 -90.5 -216.5t-180.5 -80.5z" />
    <glyph glyph-name="hungarumlaut" unicode="&#x2dd;" horiz-adv-x="1071" 
d="M714 1281l287 353h261l-317 -353h-231zM278 1281l287 353h261l-317 -353h-231z" />
    <glyph glyph-name="gravecmb" unicode="&#x300;" 
d="M310 1281h-265l-250 353h303z" />
    <glyph glyph-name="acutecmb" unicode="&#x301;" 
d="M34 1281l323 353h310l-361 -353h-272z" />
    <glyph glyph-name="circumflexcmb" unicode="&#x302;" 
d="M398 1605l200 -354h-250l-104 209h-18l-193 -209h-276l350 354h291z" />
    <glyph glyph-name="tildecmb" unicode="&#x303;" 
d="M390 1247q-46 0 -86 17t-67.5 41t-51 48t-48.5 41t-50 17q-75 0 -94 -124h-184q16 135 90.5 216t180.5 81q46 0 85.5 -17t67 -41t51 -48t48.5 -41t50 -17q76 0 95 124h184q-16 -136 -90.5 -216.5t-180.5 -80.5z" />
    <glyph glyph-name="macroncmb" unicode="&#x304;" 
d="M571 1316h-735l38 180h735z" />
    <glyph glyph-name="brevecmb" unicode="&#x306;" 
d="M-157 1602h205q-2 -16 -2 -29q0 -68 50 -110t132 -42q90 0 144.5 46.5t69.5 134.5h206q-16 -161 -130 -256t-297 -95q-172 0 -277 86.5t-105 218.5q0 26 4 46z" />
    <glyph glyph-name="dotaccentcmb" unicode="&#x307;" 
d="M230 1274q-68 0 -114.5 47t-46.5 117t46.5 117t114.5 47t114.5 -47t46.5 -117t-46.5 -117t-114.5 -47z" />
    <glyph glyph-name="dieresiscmb" unicode="&#x308;" 
d="M-12 1251q-68 0 -112 43t-44 109t44 108.5t112 42.5q67 0 111 -42.5t44 -108.5t-44 -109t-111 -43zM455 1251q-67 0 -111 43t-44 109t44 108.5t111 42.5q68 0 112 -42.5t44 -108.5t-44 -109t-112 -43z" />
    <glyph glyph-name="hookabovecmb" unicode="&#x309;" 
d="M64 1503l13 154q64 20 137 20q112 0 182 -57t70 -151q0 -88 -58 -154t-166 -102l-82 119q56 17 87 44.5t31 62.5q0 36 -29.5 57t-81.5 21q-58 0 -103 -14z" />
    <glyph glyph-name="ringcmb" unicode="&#x30a;" 
d="M242 1251q-105 0 -175.5 68.5t-70.5 172.5q0 103 70 170.5t176 67.5q105 0 175 -67.5t70 -170.5q0 -104 -70 -172.5t-175 -68.5zM241 1387q46 0 76 29.5t30 74.5q0 44 -30 73.5t-76 29.5t-75.5 -29.5t-29.5 -73.5q0 -46 29.5 -75t75.5 -29z" />
    <glyph glyph-name="hungarumlautcmb" unicode="&#x30b;" 
d="M295 1281l287 353h261l-317 -353h-231zM-141 1281l287 353h261l-317 -353h-231z" />
    <glyph glyph-name="caroncmb" unicode="&#x30c;" 
d="M351 1251h-291l-200 354h249l103 -209h18l194 209h277z" />
    <glyph glyph-name="dblgravecmb" unicode="&#x30f;" 
d="M77 1281h-224l-167 353h254zM513 1281h-224l-167 353h254z" />
    <glyph glyph-name="invertedbrevecmb" unicode="&#x311;" 
d="M630 1251h-205q2 14 2 29q0 68 -50 110t-132 42q-183 0 -214 -181h-206q16 161 130 256t297 95q168 0 275 -86.5t107 -218.5q0 -26 -4 -46z" />
    <glyph glyph-name="horncmb" unicode="&#x31b;" 
d="M-69 910l43 208q23 -20 67 -20t69.5 25.5t39.5 88.5l36 169h230l-48 -224q-29 -135 -109 -204.5t-197 -69.5q-90 0 -131 27z" />
    <glyph glyph-name="dotbelowcmb" unicode="&#x323;" 
d="M-135 -419q-71 0 -114 39.5t-43 100.5t43.5 100t113.5 39t113.5 -39t43.5 -100t-43.5 -100.5t-113.5 -39.5z" />
    <glyph glyph-name="dieresisbelowcmb" unicode="&#x324;" 
d="M-371 -432q-71 0 -114 39t-43 100t43 100t114 39q70 0 113 -39t43 -100t-43 -100t-113 -39zM96 -432q-70 0 -113.5 39t-43.5 100t43.5 100t113.5 39q71 0 114 -39t43 -100t-43 -100t-114 -39z" />
    <glyph glyph-name="ringbelowcmb" unicode="&#x325;" 
d="M-144 -570q-105 0 -175.5 68.5t-70.5 172.5q0 103 70 170.5t176 67.5q105 0 175 -67.5t70 -170.5q0 -104 -70 -172.5t-175 -68.5zM-145 -434q46 0 76 29.5t30 74.5q0 44 -30 73.5t-76 29.5t-75.5 -29.5t-29.5 -73.5q0 -46 29.5 -75t75.5 -29z" />
    <glyph glyph-name="commabelowcmb" unicode="&#x326;" 
d="M-149 -509h-258l172 358h292z" />
    <glyph glyph-name="cedillacmb" unicode="&#x327;" 
d="M-257 -235l17 116l96 146h184l-96 -147q159 -26 159 -164q0 -96 -72 -154t-191 -58q-107 0 -186 36l28 133q65 -27 142 -27q44 0 68 15t24 43q0 61 -116 61h-57z" />
    <glyph glyph-name="ogonekcmb" unicode="&#x328;" 
d="M22 -285l-33 -161q-36 -12 -100 -12q-118 0 -188 55.5t-70 147.5q0 87 67 173.5t181 134.5l165 -23q-93 -49 -144 -108t-51 -116q0 -93 130 -93q27 0 43 2z" />
    <glyph glyph-name="circumflexbelowcmb" unicode="&#x32d;" 
d="M46 -152l198 -280h-264l-103 159h-18l-177 -159h-281l329 280h316z" />
    <glyph glyph-name="brevebelowcmb" unicode="&#x32e;" 
d="M74 -113h207q-23 -145 -135.5 -232t-279.5 -87t-274 86.5t-107 217.5v15h207q4 -66 53 -107.5t127 -41.5q79 0 132.5 39t69.5 110z" />
    <glyph glyph-name="tildebelowcmb" unicode="&#x330;" 
d="M25 -432q-44 0 -83.5 14t-67.5 34t-53 40t-51 34t-51 14q-81 0 -97 -101h-181q18 129 91.5 200t177.5 71q53 0 101 -21t76.5 -46.5t63 -46.5t64.5 -21q82 0 98 106h180q-18 -133 -90.5 -205t-177.5 -72z" />
    <glyph glyph-name="macronbelowcmb" unicode="&#x331;" 
d="M213 -401h-745l37 181h746z" />
    <glyph glyph-name="greekquestionmark" unicode="&#x37e;" horiz-adv-x="712" 
d="M220 -388h-234l213 635h288zM456 711q-78 0 -127.5 49t-49.5 119q0 77 49 128t128 51q78 0 127.5 -49t49.5 -119q0 -77 -49 -128t-128 -51z" />
    <glyph glyph-name="tonosgreek" unicode="&#x384;" horiz-adv-x="939" 
d="M718 1267h-247l165 378h299z" />
    <glyph glyph-name="dieresistonosgreek" unicode="&#x385;" horiz-adv-x="1448" 
d="M1002 1267h-219l95 378h275zM569 1267q-61 0 -99.5 37.5t-38.5 96.5q0 64 43.5 106.5t111.5 42.5q60 0 98.5 -37.5t38.5 -96.5q0 -64 -43 -106.5t-111 -42.5zM1299 1267q-60 0 -98.5 37.5t-38.5 96.5q0 64 43 106.5t111 42.5q61 0 99.5 -37.5t38.5 -96.5
q0 -64 -43.5 -106.5t-111.5 -42.5z" />
    <glyph glyph-name="Alphatonosgreek" unicode="&#x386;" horiz-adv-x="1586" 
d="M1127 0l-35 344h-509l-186 -344h-315l820 1443h349l187 -1443h-311zM1001 1142l-304 -565h381l-58 565h-19zM472 1065h-247l164 378h300z" />
    <glyph glyph-name="anoteleia" unicode="&#x387;" horiz-adv-x="723" 
d="M486 754q-82 0 -132.5 50t-50.5 124q0 80 50 132t133 52q82 0 132 -50t50 -123q0 -81 -49.5 -133t-132.5 -52z" />
    <glyph glyph-name="Epsilontonosgreek" unicode="&#x388;" horiz-adv-x="1749" 
d="M489 1065h-247l164 378h300zM1584 258l-52 -258h-957l307 1443h956l-53 -258h-652l-75 -337h616l-50 -239h-615l-78 -351h653z" />
    <glyph glyph-name="Etatonosgreek" unicode="&#x389;" horiz-adv-x="2080" 
d="M489 1065h-247l164 378h300zM1831 0h-305l129 603h-648l-129 -603h-303l307 1443h304l-125 -582h648l125 582h304z" />
    <glyph glyph-name="Iotatonosgreek" unicode="&#x38a;" horiz-adv-x="1128" 
d="M879 0h-304l307 1443h304zM489 1065h-247l164 378h300z" />
    <glyph glyph-name="Omicrontonosgreek" unicode="&#x38c;" horiz-adv-x="1995" 
d="M1178 -37q-185 0 -328 80t-219.5 219.5t-76.5 313.5q0 157 39 297.5t110.5 250.5t168.5 190.5t218 123t254 42.5q282 0 452 -173t170 -440q0 -197 -60.5 -366t-165 -287t-250 -184.5t-312.5 -66.5zM1656 844q0 165 -89 265t-235 100q-129 0 -236.5 -80.5t-169.5 -221
t-62 -309.5q0 -165 89.5 -265t236.5 -100q129 0 236 79.5t168.5 220t61.5 311.5zM489 1065h-247l164 378h300z" />
    <glyph glyph-name="Upsilontonosgreek" unicode="&#x38e;" horiz-adv-x="1919" 
d="M489 1065h-247l164 378h300zM1272 0h-304l114 531l-310 912h316l196 -607h18l447 607h330l-697 -924z" />
    <glyph glyph-name="Omegatonosgreek" unicode="&#x38f;" horiz-adv-x="2063" 
d="M1280 0l65 312q173 83 267 230t94 336q0 155 -91.5 246t-250.5 91q-207 0 -335 -145.5t-128 -377.5q0 -123 55 -221t161 -159l-65 -312h-576l51 247h286l4 19q-104 68 -160.5 183t-56.5 257q0 228 101.5 405t282.5 273t412 96q283 0 452 -155.5t169 -412.5
q0 -201 -104 -378t-283 -268l-4 -19h297l-51 -247h-592zM489 1065h-247l164 378h300z" />
    <glyph glyph-name="iotadieresistonosgreek" unicode="&#x390;" horiz-adv-x="679" 
d="M575 1103l-153 -721q-7 -32 -7 -61q0 -94 121 -94q60 0 91 4l-47 -225q-70 -10 -158 -10q-155 0 -235 59.5t-80 174.5q0 45 11 96l165 777h292zM569 1267h-219l95 378h275zM136 1267q-61 0 -99.5 37.5t-38.5 96.5q0 64 43.5 106.5t111.5 42.5q60 0 98.5 -37.5t38.5 -96.5
q0 -64 -43 -106.5t-111 -42.5zM866 1267q-60 0 -98.5 37.5t-38.5 96.5q0 64 43 106.5t111 42.5q61 0 99.5 -37.5t38.5 -96.5q0 -64 -43.5 -106.5t-111.5 -42.5z" />
    <glyph glyph-name="Alphagreek" unicode="&#x391;" horiz-adv-x="1501" 
d="M1042 0l-35 344h-509l-186 -344h-315l820 1443h349l187 -1443h-311zM916 1142l-304 -565h381l-58 565h-19z" />
    <glyph glyph-name="Betagreek" unicode="&#x392;" horiz-adv-x="1420" 
d="M791 0h-691l307 1443h589q186 0 299.5 -85.5t113.5 -225.5q0 -142 -91.5 -245.5t-234.5 -123.5l-2 -19q119 -22 188.5 -99t69.5 -189q0 -200 -154 -328t-394 -128zM664 1219l-80 -368h240q124 0 202.5 60t78.5 154q0 75 -55.5 114.5t-160.5 39.5h-225zM452 237h287
q129 0 212 66t83 169q0 84 -60.5 129.5t-173.5 45.5h-259z" />
    <glyph glyph-name="Gammagreek" unicode="&#x393;" horiz-adv-x="1198" 
d="M404 0h-304l307 1443h926l-54 -258h-621z" />
    <glyph glyph-name="Deltagreek" unicode="&#x394;" horiz-adv-x="1454" 
d="M1290 0h-1276l37 176l741 1267h350l184 -1268zM896 1154l-493 -879l-4 -17h616l4 17l-109 879h-14z" />
    <glyph glyph-name="Epsilongreek" unicode="&#x395;" horiz-adv-x="1274" 
d="M1109 258l-52 -258h-957l307 1443h956l-53 -258h-652l-75 -337h616l-50 -239h-615l-78 -351h653z" />
    <glyph glyph-name="Zetagreek" unicode="&#x396;" horiz-adv-x="1384" 
d="M61 0l42 204l915 963l2 18h-689l53 258h1076l-42 -203l-913 -964l-2 -18h724l-53 -258h-1113z" />
    <glyph glyph-name="Etagreek" unicode="&#x397;" horiz-adv-x="1606" 
d="M1356 0h-305l129 603h-648l-129 -603h-303l307 1443h304l-125 -582h648l125 582h304z" />
    <glyph glyph-name="Thetagreek" unicode="&#x398;" horiz-adv-x="1687" 
d="M1150 591h-512l52 252h511zM812 -37q-293 0 -459.5 164.5t-166.5 453.5q0 264 105 468.5t296 317.5t438 113q299 0 465 -163.5t166 -457.5q0 -197 -62 -364t-172 -284t-267.5 -182.5t-342.5 -65.5zM1350 841q0 183 -91 281t-262 98q-144 0 -259.5 -80.5t-180 -223
t-64.5 -319.5q0 -178 91 -276t260 -98q143 0 259 80.5t181.5 222t65.5 315.5z" />
    <glyph glyph-name="Iotagreek" unicode="&#x399;" horiz-adv-x="654" 
d="M404 0h-304l307 1443h304z" />
    <glyph glyph-name="Kappagreek" unicode="&#x39a;" horiz-adv-x="1454" 
d="M402 0h-302l307 1443h301l-136 -635h18l659 635h358l-670 -653l382 -790h-340l-293 606l-192 -182z" />
    <glyph glyph-name="Lambdagreek" unicode="&#x39b;" horiz-adv-x="1475" 
d="M903 1142l-584 -1142h-315l800 1443h349l167 -1443h-311l-87 1142h-19z" />
    <glyph glyph-name="Mugreek" unicode="&#x39c;" horiz-adv-x="1880" 
d="M382 0h-282l307 1443h347l188 -970h18l608 970h368l-307 -1443h-281l207 965h-16l-558 -882h-201l-175 882h-16z" />
    <glyph glyph-name="Nugreek" unicode="&#x39d;" horiz-adv-x="1574" 
d="M393 0h-293l307 1443h231l479 -929h18l202 929h293l-307 -1443h-229l-483 922h-18z" />
    <glyph glyph-name="Xigreek" unicode="&#x39e;" horiz-adv-x="1371" 
d="M374 1443h1087l-54 -265h-1088zM1197 604h-913l51 246h913zM122 265h1087l-54 -265h-1087z" />
    <glyph glyph-name="Omicrongreek" unicode="&#x39f;" horiz-adv-x="1626" 
d="M810 -37q-185 0 -328 80t-219.5 219.5t-76.5 313.5q0 157 39 297.5t110.5 250.5t168.5 190.5t218 123t254 42.5q282 0 452 -173t170 -440q0 -197 -60.5 -366t-165 -287t-250 -184.5t-312.5 -66.5zM1288 844q0 165 -89 265t-235 100q-129 0 -236.5 -80.5t-169.5 -221
t-62 -309.5q0 -165 89.5 -265t236.5 -100q129 0 236 79.5t168.5 220t61.5 311.5z" />
    <glyph glyph-name="Pigreek" unicode="&#x3a0;" horiz-adv-x="1586" 
d="M1336 0h-305l256 1185h-628l-256 -1185h-303l307 1443h1236z" />
    <glyph glyph-name="Rhogreek" unicode="&#x3a1;" horiz-adv-x="1381" 
d="M407 1443h527q214 0 343.5 -115.5t129.5 -306.5q0 -263 -172.5 -418t-451.5 -155h-282l-97 -448h-303zM660 1195l-110 -502h229q145 0 233 81.5t88 217.5q0 99 -62.5 151t-175.5 52h-202z" />
    <glyph glyph-name="Sigmagreek" unicode="&#x3a3;" horiz-adv-x="1384" 
d="M499 272l-3 -14h731l-53 -258h-1113l39 189l480 546l-232 492l44 216h1068l-53 -258h-685l-3 -14l183 -406l-10 -50z" />
    <glyph glyph-name="Taugreek" unicode="&#x3a4;" horiz-adv-x="1352" 
d="M752 0h-304l254 1185h-432l53 258h1168l-53 -258h-432z" />
    <glyph glyph-name="Upsilongreek" unicode="&#x3a5;" horiz-adv-x="1451" 
d="M804 0h-304l114 531l-310 912h316l196 -607h18l447 607h330l-697 -924z" />
    <glyph glyph-name="Phigreek" unicode="&#x3a6;" horiz-adv-x="1888" 
d="M707 -110l31 150q-266 31 -412 186t-146 393q0 157 59 294t166.5 239.5t266.5 165t351 71.5l32 150h281l-33 -156q264 -31 411 -184.5t147 -396.5q0 -157 -59.5 -294t-167 -238.5t-266.5 -164t-350 -71.5l-31 -144h-280zM789 287l183 855q-224 -18 -359.5 -155.5
t-135.5 -360.5q0 -145 81.5 -233t230.5 -106zM1069 281q228 20 361.5 157.5t133.5 358.5q0 146 -82 234t-230 105z" />
    <glyph glyph-name="Chigreek" unicode="&#x3a7;" horiz-adv-x="1494" 
d="M14 0l628 744l-309 699h340l211 -494h18l399 494h338l-635 -732l322 -711h-333l-221 485h-18l-409 -485h-331z" />
    <glyph glyph-name="Psigreek" unicode="&#x3a8;" horiz-adv-x="1813" 
d="M976 0h-288l65 305q-243 21 -367.5 131t-124.5 304q0 62 13 127l121 576h289l-115 -548q-17 -81 -17 -126q0 -103 62.5 -153.5t191.5 -56.5l188 884h289l-191 -892q170 9 257.5 84t120.5 227l122 581h290l-128 -610q-37 -175 -120.5 -287.5t-229.5 -175t-364 -72.5z" />
    <glyph glyph-name="Omegagreek" unicode="&#x3a9;" horiz-adv-x="1666" 
d="M883 0l65 312q173 83 267 230t94 336q0 155 -91.5 246t-250.5 91q-207 0 -335 -145.5t-128 -377.5q0 -123 55 -221t161 -159l-65 -312h-576l51 247h286l4 19q-104 68 -160.5 183t-56.5 257q0 228 101.5 405t282.5 273t412 96q283 0 452 -155.5t169 -412.5
q0 -201 -104 -378t-283 -268l-4 -19h297l-51 -247h-592z" />
    <glyph glyph-name="Iotadieresisgreek" unicode="&#x3aa;" horiz-adv-x="653" 
d="M404 0h-304l307 1443h304zM387 1579q-68 0 -112 43t-44 109t44 108.5t112 42.5q67 0 111 -42.5t44 -108.5t-44 -109t-111 -43zM854 1579q-67 0 -111 43t-44 109t44 108.5t111 42.5q68 0 112 -42.5t44 -108.5t-44 -109t-112 -43z" />
    <glyph glyph-name="Upsilondieresisgreek" unicode="&#x3ab;" horiz-adv-x="1451" 
d="M804 0h-304l114 531l-310 912h316l196 -607h18l447 607h330l-697 -924zM783 1579q-68 0 -112 43t-44 109t44 108.5t112 42.5q67 0 111 -42.5t44 -108.5t-44 -109t-111 -43zM1250 1579q-67 0 -111 43t-44 109t44 108.5t111 42.5q68 0 112 -42.5t44 -108.5t-44 -109
t-112 -43z" />
    <glyph glyph-name="alphatonosgreek" unicode="&#x3ac;" horiz-adv-x="1374" 
d="M475 -17q-167 0 -266 116t-99 312q0 202 69.5 364.5t193 254t276.5 91.5q251 0 322 -225l18 -1l45 208h288l-162 -760q-8 -34 -8 -59q0 -35 19 -49.5t63 -14.5q21 0 56 8l-47 -221q-56 -17 -134 -17q-134 0 -192.5 45t-58.5 148v11l-18 1q-51 -100 -148 -156t-217 -56z
M606 226q132 0 221.5 116t89.5 286q0 117 -54.5 183t-151.5 66q-126 0 -210 -118t-84 -295q0 -109 51.5 -173.5t137.5 -64.5zM882 1267h-247l165 378h299z" />
    <glyph glyph-name="epsilontonosgreek" unicode="&#x3ad;" horiz-adv-x="1203" 
d="M856 1267h-247l165 378h299zM552 -25q-217 0 -341 77t-124 224q0 103 66 177t178 104l4 18q-142 68 -142 200q0 163 140 257t374 94q474 0 505 -363h-291q-14 69 -66 100t-162 31q-95 0 -150 -35.5t-55 -90.5q0 -105 177 -105h148l-44 -216h-171q-97 0 -150 -33t-53 -92
q0 -55 50.5 -85.5t144.5 -30.5q103 0 179 40.5t108 116.5h300q-43 -175 -214.5 -281.5t-410.5 -106.5z" />
    <glyph glyph-name="etatonosgreek" unicode="&#x3ae;" horiz-adv-x="1372" 
d="M810 -345l206 977q8 36 8 75q0 79 -49.5 127.5t-131.5 48.5q-99 0 -169 -62.5t-93 -170.5l-138 -650h-292l161 755q8 40 8 60q0 36 -19 52t-62 16q-35 0 -59 -8l47 221q60 17 146 17q117 0 172 -44t67 -139l3 -22h19q55 105 150 162t217 57q148 0 238.5 -90.5
t90.5 -238.5q0 -59 -14 -127l-215 -1016h-291zM908 1267h-247l165 378h299z" />
    <glyph glyph-name="iotatonosgreek" unicode="&#x3af;" horiz-adv-x="673" 
d="M575 1103l-153 -721q-7 -32 -7 -61q0 -94 121 -94q60 0 91 4l-47 -225q-70 -10 -158 -10q-155 0 -235 59.5t-80 174.5q0 45 11 96l165 777h292zM586 1267h-247l165 378h299z" />
    <glyph glyph-name="upsilondieresistonosgreek" unicode="&#x3b0;" horiz-adv-x="1231" 
d="M832 1267h-219l95 378h275zM399 1267q-61 0 -99.5 37.5t-38.5 96.5q0 64 43.5 106.5t111.5 42.5q60 0 98.5 -37.5t38.5 -96.5q0 -64 -43 -106.5t-111 -42.5zM1129 1267q-60 0 -98.5 37.5t-38.5 96.5q0 64 43 106.5t111 42.5q61 0 99.5 -37.5t38.5 -96.5
q0 -64 -43.5 -106.5t-111.5 -42.5zM892 1103h277q32 -114 32 -281q0 -411 -169 -628.5t-473 -217.5q-204 0 -316 94.5t-112 264.5q0 68 23 183l124 585h275l-128 -608q-14 -66 -14 -119q1 -147 174 -147q111 0 187.5 80t111.5 209.5t35 298.5q0 165 -27 286z" />
    <glyph glyph-name="alphagreek" unicode="&#x3b1;" horiz-adv-x="1374" 
d="M475 -17q-167 0 -266 116t-99 312q0 202 69.5 364.5t193 254t276.5 91.5q251 0 322 -225l18 -1l45 208h288l-162 -760q-8 -34 -8 -59q0 -35 19 -49.5t63 -14.5q21 0 56 8l-47 -221q-56 -17 -134 -17q-134 0 -192.5 45t-58.5 148v11l-18 1q-51 -100 -148 -156t-217 -56z
M606 226q132 0 221.5 116t89.5 286q0 117 -54.5 183t-151.5 66q-126 0 -210 -118t-84 -295q0 -109 51.5 -173.5t137.5 -64.5z" />
    <glyph glyph-name="betagreek" unicode="&#x3b2;" horiz-adv-x="1329" 
d="M277 1017q58 278 191 404.5t373 126.5q200 0 319 -99t119 -265q0 -120 -65.5 -210t-190.5 -141l-4 -19q254 -78 254 -334q0 -217 -143.5 -357t-367.5 -140q-267 0 -350 217h-18l-116 -545h-292zM632 697l46 222h74q115 0 182.5 62t67.5 167q0 77 -45 119.5t-135 42.5
q-97 0 -157.5 -61t-88.5 -190l-108 -502q-13 -53 -13 -96q0 -111 67 -173t184 -62q118 0 193.5 72t75.5 183q0 102 -67.5 159t-188.5 57h-87z" />
    <glyph glyph-name="gammagreek" unicode="&#x3b3;" horiz-adv-x="1211" 
d="M1242 1046q0 -229 -147.5 -485.5t-465.5 -602.5l-64 -298h-292l59 271l-141 1172h298l72 -836h20q181 216 282.5 418.5t101.5 363.5q0 39 -3 54h276q4 -16 4 -57z" />
    <glyph glyph-name="deltagreek" unicode="&#x3b4;" horiz-adv-x="1235" 
d="M578 -24q-223 0 -355.5 120t-132.5 324q0 217 129.5 373.5t346.5 192.5l5 20q-157 88 -157 229q0 144 116.5 228.5t316.5 84.5q123 0 235 -28.5t175 -76.5l-54 -210q-165 94 -337 94q-71 0 -108.5 -26t-37.5 -71q0 -35 26.5 -64t100.5 -71q196 -131 275 -246.5t79 -270.5
q0 -124 -48 -235.5t-131 -192t-198.5 -127.5t-245.5 -47zM593 196q130 0 215 112t85 282q0 108 -55 171t-149 63q-127 0 -212.5 -112.5t-85.5 -286.5q0 -107 54 -168t148 -61z" />
    <glyph glyph-name="epsilongreek" unicode="&#x3b5;" horiz-adv-x="1202" 
d="M552 -24q-217 0 -341 77t-124 224q0 103 66 177t178 104l4 18q-142 68 -142 200q0 163 140 257t374 94q474 0 505 -363h-291q-14 69 -66 100t-162 31q-95 0 -150 -35.5t-55 -90.5q0 -105 177 -105h148l-44 -216h-171q-97 0 -150 -33t-53 -92q0 -55 50.5 -85.5
t144.5 -30.5q103 0 179 40.5t108 116.5h300q-43 -175 -214.5 -281.5t-410.5 -106.5z" />
    <glyph glyph-name="zetagreek" unicode="&#x3b6;" horiz-adv-x="1011" 
d="M740 -395l-200 78q59 67 83 115t24 100q0 47 -31.5 78.5t-120.5 74.5q-218 104 -306 207.5t-88 256.5q0 414 582 746l4 18h-389l52 245h796l11 -207q-364 -182 -560.5 -372t-196.5 -366q0 -96 48.5 -153t187.5 -121q174 -83 234.5 -150t60.5 -171q0 -181 -191 -379z" />
    <glyph glyph-name="etagreek" unicode="&#x3b7;" horiz-adv-x="1372" 
d="M810 -345l206 977q8 36 8 75q0 79 -49.5 127.5t-131.5 48.5q-99 0 -169 -62.5t-93 -170.5l-138 -650h-292l161 755q8 40 8 60q0 36 -19 52t-62 16q-35 0 -59 -8l47 221q60 17 146 17q117 0 172 -44t67 -139l3 -22h19q55 105 150 162t217 57q148 0 238.5 -90.5
t90.5 -238.5q0 -59 -14 -127l-215 -1016h-291z" />
    <glyph glyph-name="thetagreek" unicode="&#x3b8;" horiz-adv-x="1300" 
d="M614 -24q-232 0 -352.5 136t-120.5 398q0 123 27 273q66 374 237 569.5t432 195.5q230 0 350 -136.5t120 -398.5q0 -121 -26 -271q-64 -377 -234 -571.5t-433 -194.5zM625 200q128 0 211 109t130 341h-523q-17 -102 -17 -179q0 -129 49.5 -200t149.5 -71zM483 883h522
q14 86 14 157q0 140 -51 212t-150 72q-244 0 -335 -441z" />
    <glyph glyph-name="iotagreek" unicode="&#x3b9;" horiz-adv-x="674" 
d="M575 1103l-153 -721q-7 -32 -7 -61q0 -94 121 -94q60 0 91 4l-47 -225q-70 -10 -158 -10q-155 0 -235 59.5t-80 174.5q0 45 11 96l165 777h292z" />
    <glyph glyph-name="kappagreek" unicode="&#x3ba;" horiz-adv-x="1237" 
d="M1162 1113q76 0 127 -17l-45 -221q-36 8 -61 8q-38 0 -69 -15.5t-77 -61.5l-187 -184l269 -622h-282l-196 462l-251 -230l-48 -232h-286l233 1103h287l-104 -481h18l339 326q103 101 168 133t165 32z" />
    <glyph glyph-name="lambdagreek" unicode="&#x3bb;" horiz-adv-x="1206" 
d="M1113 215q34 0 55 8l-45 -216q-51 -17 -140 -17q-123 0 -180.5 54t-73.5 184l-53 404h-18l-382 -632h-311l662 1042l-13 83q-19 119 -54.5 155.5t-123.5 36.5q-32 0 -64 -7l47 220q50 18 124 18q85 0 139 -17.5t93 -66t61.5 -125t40.5 -203.5l113 -800q10 -69 36.5 -95
t86.5 -26z" />
    <glyph glyph-name="mugreek" unicode="&#x3bc;" horiz-adv-x="1375" 
d="M-14 -345l307 1448h292l-125 -593q-14 -65 -14 -104q0 -86 45 -131.5t132 -45.5q96 0 171 70t100 182l132 622h291l-162 -760q-7 -28 -7 -55q0 -36 19.5 -52t64.5 -16q28 0 56 6l-46 -223q-52 -13 -134 -13q-236 0 -236 199v6h-18q-20 -39 -47 -74.5t-65.5 -69.5
t-90.5 -54.5t-109 -20.5q-58 0 -101 24t-57 62h-18l-88 -407h-292z" />
    <glyph glyph-name="nugreek" unicode="&#x3bd;" horiz-adv-x="1211" 
d="M1242 1046q0 -222 -138 -466.5t-437 -579.5h-342l-134 1103h298l72 -836h20q180 212 282 417t102 365q0 39 -3 54h276q4 -17 4 -57z" />
    <glyph glyph-name="xigreek" unicode="&#x3be;" horiz-adv-x="1033" 
d="M732 -395l-200 78q55 66 78.5 113t23.5 90q0 52 -32.5 88.5t-119.5 76.5q-230 105 -317 190t-87 204q0 245 314 317l4 17q-148 68 -148 220q0 197 234 262l3 18h-191l50 245h763l12 -226l-169 -16q-208 -20 -305.5 -72.5t-97.5 -140.5q0 -70 71.5 -106t208.5 -36h144
l-48 -234h-201q-154 0 -243.5 -45.5t-89.5 -131.5q0 -59 49 -103.5t188 -109.5q172 -82 232 -149.5t60 -179.5q0 -190 -186 -369z" />
    <glyph glyph-name="omicrongreek" unicode="&#x3bf;" horiz-adv-x="1253" 
d="M606 -24q-219 0 -355 131.5t-136 352.5q0 184 78 335.5t222.5 241.5t328.5 90q216 0 347.5 -134.5t131.5 -344.5q0 -145 -48 -271t-130.5 -213.5t-196.5 -137.5t-242 -50zM619 214q121 0 210.5 120.5t89.5 293.5q0 120 -52 190.5t-145 70.5q-131 0 -217 -122t-86 -296
q0 -121 55.5 -189t144.5 -68z" />
    <glyph glyph-name="pigreek" unicode="&#x3c0;" horiz-adv-x="1488" 
d="M873 309l117 550h-339l-184 -859h-278l184 859h-205l50 244h1330l-50 -244h-229l-109 -506q-9 -40 -9 -58q0 -39 23 -57t73 -18q34 0 58 8l-46 -221q-54 -17 -139 -17q-130 0 -195.5 56t-65.5 159q0 43 14 104z" />
    <glyph glyph-name="rhogreek" unicode="&#x3c1;" horiz-adv-x="1287" 
d="M654 226q127 0 215 114t88 300q0 118 -56.5 183.5t-156.5 65.5q-133 0 -218 -118.5t-85 -303.5q0 -114 57.5 -177.5t155.5 -63.5zM776 1127q224 0 353.5 -127t129.5 -338q0 -187 -74 -343t-201 -246t-279 -90q-116 0 -202 60.5t-113 156.5h-18l-116 -545h-292l184 857
q68 327 219.5 471t408.5 144z" />
    <glyph glyph-name="sigmafinalgreek" unicode="&#x3c2;" horiz-adv-x="1170" 
d="M952 -21q0 -174 -190 -374l-201 78q61 68 84 117t23 95q0 51 -31.5 82.5t-121.5 73.5q-218 102 -305.5 210t-87.5 278q0 123 40.5 229.5t115.5 186.5t190 126t256 46q212 0 337.5 -115.5t130.5 -297.5h-275q-9 78 -63 125.5t-140 47.5q-135 0 -211 -89t-76 -223
q0 -95 49.5 -152.5t178.5 -117.5q175 -82 236 -147.5t61 -178.5z" />
    <glyph glyph-name="sigmagreek" unicode="&#x3c3;" horiz-adv-x="1369" 
d="M597 -24q-222 0 -352.5 127.5t-130.5 345.5q0 137 45 256.5t126 207.5t201.5 139t264.5 51h689l-50 -244h-268l-3 -19q80 -95 80 -223q0 -129 -43 -246t-120 -204.5t-191 -139t-248 -51.5zM613 210q134 0 217.5 116.5t83.5 294.5q0 235 -186 235q-136 0 -224 -117
t-88 -295q0 -234 197 -234z" />
    <glyph glyph-name="taugreek" unicode="&#x3c4;" horiz-adv-x="1140" 
d="M876 232l-47 -225q-61 -11 -169 -11q-154 0 -235 58.5t-81 175.5q0 39 11 96l115 533h-330l51 244h1016l-51 -244h-394l-102 -477q-8 -37 -8 -61q0 -94 122 -94q62 0 102 5z" />
    <glyph glyph-name="upsilongreek" unicode="&#x3c5;" horiz-adv-x="1231" 
d="M892 1103h277q32 -114 32 -281q0 -411 -169 -628.5t-473 -217.5q-204 0 -316 94.5t-112 264.5q0 68 23 183l124 585h275l-128 -608q-14 -66 -14 -119q1 -147 174 -147q111 0 187.5 80t111.5 209.5t35 298.5q0 165 -27 286z" />
    <glyph glyph-name="phigreek" unicode="&#x3c6;" horiz-adv-x="1637" 
d="M539 -345l69 325q-224 18 -357.5 147t-133.5 326t93 351t260.5 239.5t380.5 85.5l57 266h269l-59 -273q221 -17 353.5 -148t132.5 -328q0 -195 -92.5 -348.5t-259 -239t-378.5 -85.5l-67 -318h-268zM659 209l151 691q-186 -4 -297.5 -119t-111.5 -302q0 -118 66.5 -187.5
t191.5 -82.5zM914 202q187 7 297 120t110 299q0 117 -66.5 188t-189.5 83z" />
    <glyph glyph-name="chigreek" unicode="&#x3c7;" horiz-adv-x="1237" 
d="M913 -355q-103 0 -160.5 41.5t-88.5 135.5l-94 286h-18l-330 -453h-290l554 726l-133 387q-24 69 -50.5 92.5t-77.5 23.5q-26 0 -56 -8l46 221q64 16 139 16q101 0 156.5 -42t86.5 -142l98 -306h16l351 480h292l-568 -751l117 -354q25 -76 52.5 -99.5t83.5 -23.5
q30 0 58 7l-47 -220q-54 -17 -137 -17z" />
    <glyph glyph-name="psigreek" unicode="&#x3c8;" horiz-adv-x="1616" 
d="M792 -345h-275l68 320q-224 5 -339.5 96t-115.5 262q0 69 20 161l128 609h275l-124 -582q-19 -89 -19 -136q0 -80 53 -117t173 -40l251 1167h275l-251 -1169q196 3 294 145.5t98 437.5q0 168 -28 294h277q34 -107 34 -276q0 -424 -178 -639.5t-549 -215.5z" />
    <glyph glyph-name="omegagreek" unicode="&#x3c9;" horiz-adv-x="1674" 
d="M1621 644q0 -187 -66.5 -340.5t-183.5 -240.5t-260 -87q-123 0 -191 53t-93 170h-19q-102 -223 -343 -223q-170 0 -261.5 106.5t-91.5 303.5q0 190 77.5 385t206.5 332h288q-136 -155 -212 -337.5t-76 -358.5q0 -85 35 -131.5t100 -46.5q146 0 186 182l81 377h265
l-76 -356q-7 -32 -7 -67q0 -65 33 -100.5t93 -35.5q105 0 169 114t64 306q0 256 -123 454h288q117 -181 117 -459z" />
    <glyph glyph-name="iotadieresisgreek" unicode="&#x3ca;" horiz-adv-x="679" 
d="M243 1251q-68 0 -112 43t-44 109t44 108.5t112 42.5q67 0 111 -42.5t44 -108.5t-44 -109t-111 -43zM710 1251q-67 0 -111 43t-44 109t44 108.5t111 42.5q68 0 112 -42.5t44 -108.5t-44 -109t-112 -43zM575 1103l-153 -721q-7 -32 -7 -61q0 -94 121 -94q60 0 91 4
l-47 -225q-70 -10 -158 -10q-155 0 -235 59.5t-80 174.5q0 45 11 96l165 777h292z" />
    <glyph glyph-name="upsilondieresisgreek" unicode="&#x3cb;" horiz-adv-x="1231" 
d="M536 1251q-68 0 -112 43t-44 109t44 108.5t112 42.5q67 0 111 -42.5t44 -108.5t-44 -109t-111 -43zM1003 1251q-67 0 -111 43t-44 109t44 108.5t111 42.5q68 0 112 -42.5t44 -108.5t-44 -109t-112 -43zM892 1103h277q32 -114 32 -281q0 -411 -169 -628.5t-473 -217.5
q-204 0 -316 94.5t-112 264.5q0 68 23 183l124 585h275l-128 -608q-14 -66 -14 -119q1 -147 174 -147q111 0 187.5 80t111.5 209.5t35 298.5q0 165 -27 286z" />
    <glyph glyph-name="omicrontonosgreek" unicode="&#x3cc;" horiz-adv-x="1253" 
d="M606 -24q-219 0 -355 131.5t-136 352.5q0 184 78 335.5t222.5 241.5t328.5 90q216 0 347.5 -134.5t131.5 -344.5q0 -145 -48 -271t-130.5 -213.5t-196.5 -137.5t-242 -50zM619 214q121 0 210.5 120.5t89.5 293.5q0 120 -52 190.5t-145 70.5q-131 0 -217 -122t-86 -296
q0 -121 55.5 -189t144.5 -68zM875 1267h-247l165 378h299z" />
    <glyph glyph-name="upsilontonosgreek" unicode="&#x3cd;" horiz-adv-x="1231" 
d="M865 1267h-247l165 378h299zM892 1103h277q32 -114 32 -281q0 -411 -169 -628.5t-473 -217.5q-204 0 -316 94.5t-112 264.5q0 68 23 183l124 585h275l-128 -608q-14 -66 -14 -119q1 -147 174 -147q111 0 187.5 80t111.5 209.5t35 298.5q0 165 -27 286z" />
    <glyph glyph-name="omegatonosgreek" unicode="&#x3ce;" horiz-adv-x="1674" 
d="M1621 644q0 -187 -66.5 -340.5t-183.5 -240.5t-260 -87q-123 0 -191 53t-93 170h-19q-102 -223 -343 -223q-170 0 -261.5 106.5t-91.5 303.5q0 190 77.5 385t206.5 332h288q-136 -155 -212 -337.5t-76 -358.5q0 -85 35 -131.5t100 -46.5q146 0 186 182l81 377h265
l-76 -356q-7 -32 -7 -67q0 -65 33 -100.5t93 -35.5q105 0 169 114t64 306q0 256 -123 454h288q117 -181 117 -459zM1097 1266h-247l165 378h299z" />
    <glyph glyph-name="Iocyrillic" unicode="&#x401;" horiz-adv-x="1294" 
d="M723 1579q-68 0 -112 43t-44 109t44 108.5t112 42.5q67 0 111 -42.5t44 -108.5t-44 -109t-111 -43zM1190 1579q-67 0 -111 43t-44 109t44 108.5t111 42.5q68 0 112 -42.5t44 -108.5t-44 -109t-112 -43zM1119 258l-52 -258h-957l307 1443h956l-53 -258h-652l-75 -337h616
l-50 -239h-615l-78 -351h653z" />
    <glyph glyph-name="Djecyrillic" unicode="&#x402;" horiz-adv-x="1802" 
d="M1712 473q0 -110 -43.5 -209.5t-120 -174t-189.5 -118t-245 -43.5q-55 0 -98 4.5t-58 8.5l-16 4l50 244q36 -12 122 -12q125 0 205 74.5t80 183.5q0 94 -58.5 149.5t-170.5 55.5q-96 0 -181.5 -47t-131.5 -111l-104 -482h-304l254 1185h-422l53 258h1148l-53 -258h-422
l-87 -398h15q133 119 326 119q216 0 333.5 -119.5t117.5 -313.5z" />
    <glyph glyph-name="Gjecyrillic" unicode="&#x403;" horiz-adv-x="1224" 
d="M713 1573l343 318h315l-381 -318h-277zM414 0h-304l307 1443h936l-54 -258h-631z" />
    <glyph glyph-name="Ecyrillic" unicode="&#x404;" horiz-adv-x="1558" 
d="M1462 478q-61 -237 -243 -376t-434 -139q-298 0 -454 197t-114 542q32 348 240.5 563t528.5 215q158 0 288.5 -63.5t207 -180t78.5 -262.5v-24h-298q-7 121 -88 191.5t-208 70.5q-148 0 -263.5 -99t-159.5 -262h572l-49 -241h-556q-13 -177 70.5 -279t236.5 -102
q123 0 214 68t134 181h297z" />
    <glyph glyph-name="Dzecyrillic" unicode="&#x405;" horiz-adv-x="1394" 
d="M122 412h292q16 -92 99 -148t201 -56q122 0 198 52t76 137q0 63 -49.5 105.5t-166.5 79.5l-150 47q-160 50 -247.5 152.5t-87.5 241.5q0 130 73.5 234.5t203.5 163.5t291 59q237 0 389.5 -124.5t159.5 -322.5h-285q-14 91 -89.5 146.5t-186.5 55.5q-106 0 -177.5 -50
t-71.5 -126q0 -61 46.5 -105.5t147.5 -76.5l148 -46q184 -58 270 -152t86 -240q0 -214 -165.5 -345t-434.5 -131q-248 0 -402.5 120t-167.5 329z" />
    <glyph glyph-name="Icyrillic" unicode="&#x406;" horiz-adv-x="673" 
d="M414 0h-304l307 1443h304z" />
    <glyph glyph-name="Yicyrillic" unicode="&#x407;" horiz-adv-x="674" 
d="M414 0h-304l307 1443h304zM397 1579q-68 0 -112 43t-44 109t44 108.5t112 42.5q67 0 111 -42.5t44 -108.5t-44 -109t-111 -43zM864 1579q-67 0 -111 43t-44 109t44 108.5t111 42.5q68 0 112 -42.5t44 -108.5t-44 -109t-112 -43z" />
    <glyph glyph-name="Jecyrillic" unicode="&#x408;" horiz-adv-x="1251" 
d="M96 413h293v-9q1 -77 49.5 -122t130.5 -45q167 0 212 209l213 997h302l-222 -1042q-44 -213 -176.5 -325.5t-341.5 -112.5q-210 0 -338 116.5t-123 302.5q0 21 1 31z" />
    <glyph glyph-name="Ljecyrillic" unicode="&#x409;" horiz-adv-x="2243" 
d="M634 573q-31 -118 -64.5 -205.5t-80 -162t-103 -121t-133 -72t-172.5 -25.5q-67 0 -106 13l56 272q37 -8 66 -8q51 0 92 24t72.5 70.5t54 102.5t43.5 133l224 849h993l-99 -459h207q228 0 360 -116t132 -320q0 -236 -169 -392t-443 -156h-599l254 1185h-418zM1621 736
h-195l-107 -491h238q136 0 225 77.5t89 195.5q0 107 -66.5 162.5t-183.5 55.5z" />
    <glyph glyph-name="Njecyrillic" unicode="&#x40a;" horiz-adv-x="2267" 
d="M997 0l132 620h-583l-133 -620h-303l307 1443h304l-123 -571h583l123 571h304l-123 -571h231q218 0 346.5 -102t128.5 -276q0 -214 -163 -354t-432 -140h-599zM1351 245h243q131 0 210.5 60.5t79.5 156.5q0 84 -60 125.5t-165 41.5h-224z" />
    <glyph glyph-name="Tshecyrillic" unicode="&#x40b;" horiz-adv-x="1814" 
d="M1169 640q-93 0 -176 -44.5t-136 -113.5l-104 -482h-304l254 1185h-422l53 258h1148l-53 -258h-422l-87 -397h17q147 118 337 118q159 0 261.5 -71t136 -191.5t0.5 -272.5l-79 -371h-304l80 373q27 122 -25 194.5t-175 72.5z" />
    <glyph glyph-name="Kjecyrillic" unicode="&#x40c;" horiz-adv-x="1459" 
d="M1501 1891l-381 -318h-277l343 318h315zM1615 1443l-744 -726l456 -717h-341l-396 598h-47l-129 -598h-304l307 1443h304l-129 -605h46l619 605h358z" />
    <glyph glyph-name="Ushortcyrillic" unicode="&#x40e;" horiz-adv-x="1427" 
d="M643 1915h219q-13 -72 22.5 -114.5t106.5 -42.5q70 0 122.5 42.5t68.5 114.5h218q-32 -154 -147.5 -238t-281.5 -84q-173 0 -266 91t-62 231zM315 -13q-82 0 -117 14l52 255q27 -9 84 -9q134 0 221 101l-243 1095h317l140 -786h18l468 786h329l-674 -1048
q-67 -104 -125.5 -174.5t-129.5 -126t-154.5 -81.5t-185.5 -26z" />
    <glyph glyph-name="Dzhecyrillic" unicode="&#x40f;" horiz-adv-x="1609" 
d="M588 0h-478l307 1443h302l-254 -1184h633l254 1184h304l-307 -1443h-478l-61 -285h-283z" />
    <glyph glyph-name="Acyrillic" unicode="&#x410;" horiz-adv-x="1521" 
d="M1052 0l-35 344h-509l-186 -344h-315l820 1443h349l187 -1443h-311zM926 1142l-304 -565h381l-58 565h-19z" />
    <glyph glyph-name="Becyrillic" unicode="&#x411;" horiz-adv-x="1401" 
d="M710 0h-599l306 1443h965l-54 -258h-659l-62 -281h223q228 0 360 -103.5t132 -284.5q0 -223 -169 -369.5t-443 -146.5zM465 245h238q136 0 225 68.5t89 171.5q0 89 -64 135.5t-177 46.5h-218z" />
    <glyph glyph-name="Vecyrillic" unicode="&#x412;" horiz-adv-x="1441" 
d="M802 0h-691l307 1443h589q186 0 299.5 -85.5t113.5 -225.5q0 -142 -91.5 -245.5t-234.5 -123.5l-2 -19q119 -22 188.5 -99t69.5 -189q0 -200 -154 -328t-394 -128zM675 1219l-80 -368h240q124 0 202.5 60t78.5 154q0 75 -55.5 114.5t-160.5 39.5h-225zM463 237h287
q129 0 212 66t83 169q0 84 -60.5 129.5t-173.5 45.5h-259z" />
    <glyph glyph-name="Gecyrillic" unicode="&#x413;" horiz-adv-x="1224" 
d="M414 0h-304l307 1443h936l-54 -258h-631z" />
    <glyph glyph-name="Decyrillic" unicode="&#x414;" horiz-adv-x="1601" 
d="M616 612q-35 -126 -72.5 -205.5t-90.5 -130.5l-4 -18h586l201 928h-457zM239 0l-61 -285h-274l114 543h101q83 51 131.5 137.5t90.5 241.5l224 806h1028l-254 -1185h180l-114 -543h-273l61 285h-954z" />
    <glyph glyph-name="Iecyrillic" unicode="&#x415;" horiz-adv-x="1294" 
d="M1119 258l-52 -258h-957l307 1443h956l-53 -258h-652l-75 -337h616l-50 -239h-615l-78 -351h653z" />
    <glyph glyph-name="Zhecyrillic" unicode="&#x416;" horiz-adv-x="2173" 
d="M945 598l-597 -598h-368l741 762l-369 681h318l325 -609h48l131 609h297l-131 -609h49l585 609h358l-709 -735l401 -708h-341l-341 598h-50l-128 -598h-297l128 598h-50z" />
    <glyph glyph-name="Zecyrillic" unicode="&#x417;" horiz-adv-x="1363" 
d="M533 616l50 244h202q120 0 197 57.5t77 147.5q0 81 -54 127t-155 46q-107 0 -187 -55t-106 -148h-279q48 207 208.5 326t393.5 119q227 0 353.5 -104t126.5 -268q0 -146 -95 -244.5t-250 -122.5l-5 -18q123 -21 191.5 -96t68.5 -194q0 -198 -169 -334t-443 -136
q-258 0 -399.5 127t-133.5 337h286q-2 -95 64.5 -154t191.5 -59q130 0 211 62.5t81 158.5q0 90 -61 135.5t-178 45.5h-187z" />
    <glyph glyph-name="Iicyrillic" unicode="&#x418;" horiz-adv-x="1629" 
d="M1071 0l208 959h-18l-858 -959h-293l307 1443h298l-208 -961h18l858 961h293l-307 -1443h-298z" />
    <glyph glyph-name="Iishortcyrillic" unicode="&#x419;" horiz-adv-x="1629" 
d="M724 1915h219q-13 -72 22.5 -114.5t106.5 -42.5q70 0 122.5 42.5t68.5 114.5h218q-32 -154 -147.5 -238t-281.5 -84q-173 0 -266 91t-62 231zM1071 0l208 959h-18l-858 -959h-293l307 1443h298l-208 -961h18l858 961h293l-307 -1443h-298z" />
    <glyph glyph-name="Kacyrillic" unicode="&#x41a;" horiz-adv-x="1464" 
d="M1615 1443l-744 -726l456 -717h-341l-396 598h-47l-129 -598h-304l307 1443h304l-129 -605h46l619 605h358z" />
    <glyph glyph-name="Elcyrillic" unicode="&#x41b;" horiz-adv-x="1534" 
d="M1274 0h-304l253 1185h-422l-167 -612q-39 -147 -83 -249t-108.5 -181t-154 -117.5t-207.5 -38.5q-67 0 -106 13l56 272q37 -8 66 -8q97 0 158 85.5t104 244.5l224 849h998z" />
    <glyph glyph-name="Emcyrillic" unicode="&#x41c;" horiz-adv-x="1900" 
d="M392 0h-282l307 1443h347l188 -970h18l608 970h368l-307 -1443h-281l207 965h-16l-558 -882h-201l-175 882h-16z" />
    <glyph glyph-name="Encyrillic" unicode="&#x41d;" horiz-adv-x="1626" 
d="M1366 0h-305l129 603h-648l-129 -603h-303l307 1443h304l-125 -582h648l125 582h304z" />
    <glyph glyph-name="Ocyrillic" unicode="&#x41e;" horiz-adv-x="1654" 
d="M820 -37q-185 0 -328 80t-219.5 219.5t-76.5 313.5q0 157 39 297.5t110.5 250.5t168.5 190.5t218 123t254 42.5q282 0 452 -173t170 -440q0 -197 -60.5 -366t-165 -287t-250 -184.5t-312.5 -66.5zM1298 844q0 165 -89 265t-235 100q-129 0 -236.5 -80.5t-169.5 -221
t-62 -309.5q0 -165 89.5 -265t236.5 -100q129 0 236 79.5t168.5 220t61.5 311.5z" />
    <glyph glyph-name="Pecyrillic" unicode="&#x41f;" horiz-adv-x="1609" 
d="M1349 0h-302l253 1184h-633l-253 -1184h-304l307 1443h1239z" />
    <glyph glyph-name="Ercyrillic" unicode="&#x420;" horiz-adv-x="1401" 
d="M417 1443h527q214 0 343.5 -115.5t129.5 -306.5q0 -263 -172.5 -418t-451.5 -155h-282l-97 -448h-303zM670 1195l-110 -502h229q145 0 233 81.5t88 217.5q0 99 -62.5 151t-175.5 52h-202z" />
    <glyph glyph-name="Escyrillic" unicode="&#x421;" horiz-adv-x="1561" 
d="M795 -39q-271 0 -431 170.5t-160 459.5q0 256 99 459t276 316.5t400 113.5q256 0 422.5 -147t166.5 -373v-17h-298q-9 124 -91 196.5t-215 72.5q-127 0 -231.5 -79t-164.5 -218t-60 -307q0 -176 86 -278t234 -102q123 0 213.5 63.5t127.5 175.5h301q-54 -234 -234.5 -370
t-440.5 -136z" />
    <glyph glyph-name="Tecyrillic" unicode="&#x422;" horiz-adv-x="1373" 
d="M762 0h-304l254 1185h-432l53 258h1168l-53 -258h-432z" />
    <glyph glyph-name="Ucyrillic" unicode="&#x423;" horiz-adv-x="1427" 
d="M315 -13q-82 0 -117 14l52 255q27 -9 84 -9q134 0 221 101l-243 1095h317l140 -786h18l468 786h329l-674 -1048q-67 -104 -125.5 -174.5t-129.5 -126t-154.5 -81.5t-185.5 -26z" />
    <glyph glyph-name="Efcyrillic" unicode="&#x424;" horiz-adv-x="1866" 
d="M1001 -31h-299l33 154q-255 10 -402.5 148t-147.5 365q0 297 222 486.5t583 201.5l32 150h299l-32 -150q255 -10 402.5 -148.5t147.5 -366.5q0 -295 -222 -484.5t-583 -201.5zM495 647q0 -122 77.5 -194t215.5 -79l153 700q-195 -11 -320.5 -130t-125.5 -297zM1530 794
q0 126 -77.5 199t-216.5 80l-153 -699q195 10 321 128.5t126 291.5z" />
    <glyph glyph-name="Xacyrillic" unicode="&#x425;" horiz-adv-x="1514" 
d="M24 0l628 744l-309 699h340l211 -494h18l399 494h338l-635 -732l322 -711h-333l-221 485h-18l-409 -485h-331z" />
    <glyph glyph-name="Tsecyrillic" unicode="&#x426;" horiz-adv-x="1664" 
d="M1468 -285h-273l61 285h-1146l308 1443h302l-254 -1184h633l254 1184h303l-254 -1185h180z" />
    <glyph glyph-name="Checyrillic" unicode="&#x427;" horiz-adv-x="1520" 
d="M1260 0h-302l131 612h-18q-161 -118 -356 -118q-239 0 -360 159t-68 409l81 381h302l-82 -383q-29 -137 28 -217t196 -80q110 0 200 44t142 116l111 520h302z" />
    <glyph glyph-name="Shacyrillic" unicode="&#x428;" horiz-adv-x="2098" 
d="M110 0l307 1443h304l-254 -1185h408l254 1185h304l-254 -1185h408l254 1185h304l-307 -1443h-1728z" />
    <glyph glyph-name="Shchacyrillic" unicode="&#x429;" horiz-adv-x="2154" 
d="M1958 -285h-274l61 285h-1634l307 1443h304l-255 -1185h408l255 1185h304l-255 -1185h408l255 1185h304l-255 -1185h180z" />
    <glyph glyph-name="Hardsigncyrillic" unicode="&#x42a;" horiz-adv-x="1605" 
d="M926 0h-599l254 1186h-335l53 257h639l-99 -459h207q228 0 360 -116t132 -320q0 -236 -169 -392t-443 -156zM983 736h-195l-107 -491h238q136 0 225 77.5t89 195.5q0 107 -66.5 162.5t-183.5 55.5z" />
    <glyph glyph-name="Yericyrillic" unicode="&#x42b;" horiz-adv-x="1934" 
d="M1674 0h-304l307 1443h304zM767 736h-195l-107 -491h238q136 0 225 77.5t89 195.5q0 107 -66.5 162.5t-183.5 55.5zM110 0l307 1443h304l-99 -459h207q228 0 360.5 -116t132.5 -320q0 -236 -169.5 -392t-442.5 -156h-600z" />
    <glyph glyph-name="Softsigncyrillic" unicode="&#x42c;" horiz-adv-x="1388" 
d="M767 736h-195l-107 -491h238q136 0 225 77.5t89 195.5q0 107 -66.5 162.5t-183.5 55.5zM110 0l307 1443h304l-99 -459h207q228 0 360.5 -116t132.5 -320q0 -236 -169.5 -392t-442.5 -156h-600z" />
    <glyph glyph-name="Ereversedcyrillic" unicode="&#x42d;" horiz-adv-x="1557" 
d="M727 -37q-244 0 -404.5 142t-168.5 373h298q12 -114 92 -180.5t202 -66.5q156 0 271.5 103.5t157.5 275.5h-575l51 241h554q7 170 -75.5 266.5t-233.5 96.5q-127 0 -219 -70.5t-136 -193.5h-297q60 249 243 389.5t441 140.5q297 0 453 -197t114 -542q-32 -348 -240 -563
t-528 -215z" />
    <glyph glyph-name="IUcyrillic" unicode="&#x42e;" horiz-adv-x="2210" 
d="M1396 227q125 0 231 83t167 223t61 302q0 176 -86.5 278.5t-225.5 102.5q-126 0 -232 -80.5t-167 -219.5t-61 -304q0 -179 86.5 -282t226.5 -103zM596 861h211q71 279 272 449t477 170q270 0 438.5 -171t168.5 -455q0 -247 -98 -450.5t-276 -322t-401 -118.5
q-276 0 -444.5 168.5t-168.5 461.5v10h-232l-130 -603h-303l307 1443h304z" />
    <glyph glyph-name="IAcyrillic" unicode="&#x42f;" horiz-adv-x="1453" 
d="M834 738h212l100 460h-248q-136 0 -225 -73t-89 -184q0 -99 66.5 -151t183.5 -52zM825 507l-451 -507h-361l498 562q-111 49 -171.5 142.5t-60.5 219.5q0 108 45 203.5t124.5 165t195.5 110t252 40.5h604l-307 -1443h-304l109 507h-173z" />
    <glyph glyph-name="acyrillic" unicode="&#x430;" horiz-adv-x="1222" 
d="M544 202q93 0 165 52t90 132l21 95l-228 -8q-100 -4 -156.5 -43t-56.5 -104q0 -55 46 -89.5t119 -34.5zM421 -17q-140 0 -234 86t-94 215q0 168 129.5 266.5t361.5 105.5l274 9l15 68q5 25 5 40q0 57 -49 90.5t-133 33.5q-147 0 -192 -98h-275q35 151 167.5 239.5
t320.5 88.5q202 0 325 -89.5t123 -235.5q0 -50 -9 -89l-151 -713h-283l29 136h-18q-47 -71 -131 -112t-181 -41z" />
    <glyph glyph-name="becyrillic" unicode="&#x431;" horiz-adv-x="1310" 
d="M736 838q-130 0 -213 -108.5t-83 -269.5q0 -114 57 -179.5t157 -65.5q120 0 205.5 105.5t85.5 256.5q0 122 -55.5 191.5t-153.5 69.5zM907 1472l148 6q77 3 151.5 14t110 19.5t37.5 10.5l-48 -235q-10 -4 -29.5 -11t-92 -20t-159.5 -16l-143 -5q-94 -3 -165 -28.5
t-121.5 -74t-85.5 -109.5t-65 -149h18q128 190 355 190q199 0 312.5 -124t113.5 -326q0 -135 -42.5 -253t-120 -205t-194 -137t-256.5 -50q-200 0 -328 120t-145 322q-13 161 42 379q40 164 94 281.5t136.5 208.5t201 138.5t275.5 53.5z" />
    <glyph glyph-name="vecyrillic" unicode="&#x432;" horiz-adv-x="1229" 
d="M77 0l234 1103h531q157 0 244.5 -66.5t87.5 -183.5q0 -97 -74.5 -171t-181.5 -90l-4 -18q98 -11 153.5 -67.5t55.5 -141.5q0 -161 -132 -263t-350 -102h-564zM656 482h-188l-63 -290h204q98 0 158 46.5t60 119.5q0 124 -171 124zM737 911h-177l-56 -254h171
q95 0 147.5 42.5t52.5 106.5q0 105 -138 105z" />
    <glyph glyph-name="gecyrillic" unicode="&#x433;" horiz-adv-x="998" 
d="M1020 874h-463l-187 -874h-293l234 1103h756z" />
    <glyph glyph-name="decyrillic" unicode="&#x434;" horiz-adv-x="1370" 
d="M839 229l140 646h-339l-101 -345q-54 -187 -137 -283l-3 -18h440zM168 -285h-267l109 514h85q118 62 189 321l156 553h877l-186 -874h164l-108 -514h-266l61 285h-753z" />
    <glyph glyph-name="iecyrillic" unicode="&#x435;" horiz-adv-x="1268" 
d="M632 -24q-218 0 -353 127t-135 347q0 302 166 489.5t431 187.5q201 0 333 -127t132 -335q0 -82 -17 -180h-770q0 -4 -0.5 -15.5t-0.5 -15.5q0 -122 66 -186.5t166 -64.5q163 0 218 114h280q-38 -154 -176.5 -247.5t-339.5 -93.5zM451 669h479q3 18 3 38q0 85 -55 140.5
t-149 55.5q-99 0 -174 -64t-104 -170z" />
    <glyph glyph-name="zhecyrillic" unicode="&#x436;" horiz-adv-x="1767" 
d="M1877 1103l-493 -535l270 -568h-319l-223 462h-54l-99 -462h-287l99 462h-58l-403 -462h-346l533 613l-237 490h296l203 -434h55l92 434h287l-93 -434h52l391 434h334z" />
    <glyph glyph-name="zecyrillic" unicode="&#x437;" horiz-adv-x="1190" 
d="M1086 363q-2 -165 -144 -276t-364 -111q-206 0 -335 110.5t-132 289.5h276q5 -78 58 -120t139 -42q91 0 148.5 40t58.5 106q2 54 -37.5 80.5t-122.5 26.5h-154l42 196h146q85 0 131.5 37t47.5 91q2 50 -33.5 77t-108.5 27q-169 0 -233 -151h-274q55 178 196 280.5
t350 102.5q190 0 296.5 -79t104.5 -212q-1 -89 -61.5 -157.5t-149.5 -86.5l-4 -19q79 -22 120 -76.5t39 -133.5z" />
    <glyph glyph-name="iicyrillic" unicode="&#x438;" horiz-adv-x="1340" 
d="M366 0h-289l234 1103h287l-147 -675h18l590 675h288l-234 -1103h-287l148 685h-18z" />
    <glyph glyph-name="iishortcyrillic" unicode="&#x439;" horiz-adv-x="1340" 
d="M526 1616h215q-15 -81 17.5 -132.5t105.5 -51.5q75 0 130.5 52t72.5 132h218q-34 -162 -148 -256t-297 -94q-168 0 -257.5 98.5t-56.5 251.5zM366 0h-289l234 1103h287l-147 -675h18l590 675h288l-234 -1103h-287l148 685h-18z" />
    <glyph glyph-name="kacyrillic" unicode="&#x43a;" horiz-adv-x="1196" 
d="M1304 1103l-528 -527l306 -576h-324l-240 457h-50l-98 -457h-293l234 1103h293l-92 -430h47l410 430h335z" />
    <glyph glyph-name="elcyrillic" unicode="&#x43b;" horiz-adv-x="1273" 
d="M552 517q-39 -142 -80 -236.5t-98.5 -163t-132.5 -99.5t-177 -31q-55 0 -92 13l53 256q24 -7 62 -7q68 0 119 72.5t91 218.5l153 563h830l-234 -1103h-293l187 874h-287z" />
    <glyph glyph-name="emcyrillic" unicode="&#x43c;" horiz-adv-x="1652" 
d="M351 0h-274l234 1103h377l136 -706h18l443 706h374l-234 -1103h-276l156 731h-18l-423 -669h-203l-135 669h-19z" />
    <glyph glyph-name="encyrillic" unicode="&#x43d;" horiz-adv-x="1322" 
d="M77 0l234 1103h293l-90 -423h432l90 423h293l-234 -1103h-293l97 451h-432l-97 -451h-293z" />
    <glyph glyph-name="ocyrillic" unicode="&#x43e;" horiz-adv-x="1320" 
d="M454 467q0 -115 55 -183.5t152 -68.5q120 0 209 120.5t89 292.5q0 123 -53 192t-148 69q-132 0 -218 -122t-86 -300zM644 -24q-222 0 -357.5 132.5t-135.5 349.5q0 185 77.5 337.5t221 242t324.5 89.5q222 0 356 -133t134 -350q0 -183 -76.5 -335t-219.5 -242.5
t-324 -90.5z" />
    <glyph glyph-name="pecyrillic" unicode="&#x43f;" horiz-adv-x="1312" 
d="M792 0l187 874h-422l-187 -874h-293l234 1103h1008l-234 -1103h-293z" />
    <glyph glyph-name="ercyrillic" unicode="&#x440;" horiz-adv-x="1348" 
d="M685 230q131 0 221 120.5t90 298.5q0 111 -56 171t-150 60q-131 0 -223.5 -122.5t-92.5 -292.5q0 -111 58 -173t153 -62zM295 -345h-292l309 1448h283l-33 -153h18q59 80 146 125.5t194 45.5q167 0 272.5 -115.5t105.5 -306.5q0 -203 -73 -367t-199.5 -256.5
t-281.5 -92.5q-118 0 -201.5 59.5t-111.5 157.5h-18z" />
    <glyph glyph-name="escyrillic" unicode="&#x441;" horiz-adv-x="1230" 
d="M1207 725h-275q-8 71 -61.5 116.5t-130.5 45.5q-137 0 -221 -116.5t-84 -288.5q0 -127 55 -196t160 -69q75 0 132.5 43.5t89.5 115.5h279q-57 -189 -191 -294.5t-330 -105.5q-236 0 -359 130t-123 368q0 136 42.5 255.5t119 207t189.5 138.5t247 51q204 0 327 -110
t134 -291z" />
    <glyph glyph-name="tecyrillic" unicode="&#x442;" horiz-adv-x="1056" 
d="M1160 1103l-47 -229h-326l-187 -874h-293l187 874h-327l47 229h946z" />
    <glyph glyph-name="ucyrillic" unicode="&#x443;" horiz-adv-x="1228" 
d="M141 -403q-62 0 -132 5l46 235q20 -6 81 -6q151 0 211 122l22 44l-144 1106h297l64 -822h18l405 822h312l-630 -1143q-106 -200 -231.5 -281.5t-318.5 -81.5z" />
    <glyph glyph-name="efcyrillic" unicode="&#x444;" horiz-adv-x="1726" 
d="M854 -345h-289l70 327q-223 7 -359 134t-136 339q0 139 49.5 259t142 209.5t233 142.5t312.5 56l71 335h289l-72 -335q223 -8 359 -134.5t136 -339.5q0 -139 -49.5 -259t-141.5 -209.5t-232.5 -142t-312.5 -55.5zM1362 623q0 125 -66 196.5t-180 74.5l-147 -685
q123 5 214.5 67t135 153t43.5 194zM439 480q0 -125 65.5 -196t179.5 -75l147 685q-93 -4 -169 -41t-124 -95t-73.5 -129.5t-25.5 -148.5z" />
    <glyph glyph-name="hacyrillic" unicode="&#x445;" horiz-adv-x="1211" 
d="M616 354h-18l-277 -354h-319l463 552l-231 551h318l129 -358h18l270 358h325l-466 -554l235 -549h-307z" />
    <glyph glyph-name="tsecyrillic" unicode="&#x446;" horiz-adv-x="1373" 
d="M1190 -285h-266l61 285h-908l234 1103h293l-187 -874h422l187 874h293l-187 -874h166z" />
    <glyph glyph-name="checyrillic" unicode="&#x447;" horiz-adv-x="1260" 
d="M1033 0h-293l99 467h-18q-123 -119 -291 -119q-179 0 -266 121.5t-45 324.5l65 309h293l-64 -297q-21 -99 17.5 -153t131.5 -54q72 0 130.5 32t97.5 77l84 395h293z" />
    <glyph glyph-name="shacyrillic" unicode="&#x448;" horiz-adv-x="1809" 
d="M77 0l234 1103h294l-187 -874h313l186 874h293l-186 -874h313l186 874h293l-234 -1103h-1505z" />
    <glyph glyph-name="shchacyrillic" unicode="&#x449;" horiz-adv-x="1865" 
d="M1681 -285h-266l61 285h-1399l234 1103h294l-187 -874h313l186 874h293l-186 -874h313l186 874h293l-186 -874h159z" />
    <glyph glyph-name="hardsigncyrillic" unicode="&#x44a;" horiz-adv-x="1348" 
d="M755 0h-507l187 874h-283l47 229h576l-68 -318h192q172 0 274 -89t102 -233q0 -198 -146.5 -330.5t-373.5 -132.5zM829 559h-168l-72 -330h168q97 0 160 58.5t63 142.5q0 60 -40 94.5t-111 34.5z" />
    <glyph glyph-name="yericyrillic" unicode="&#x44b;" horiz-adv-x="1642" 
d="M1122 0l234 1103h293l-234 -1103h-293zM656 559h-166l-72 -330h166q97 0 160 58.5t63 142.5q0 60 -40 94.5t-111 34.5zM77 0l234 1103h293l-68 -318h190q172 0 274 -89t102 -233q0 -198 -146.5 -330.5t-373.5 -132.5h-505z" />
    <glyph glyph-name="softsigncyrillic" unicode="&#x44c;" horiz-adv-x="1175" 
d="M656 559h-166l-72 -330h166q97 0 160 58.5t63 142.5q0 60 -40 94.5t-111 34.5zM77 0l234 1103h293l-68 -318h190q172 0 274 -89t102 -233q0 -198 -146.5 -330.5t-373.5 -132.5h-505z" />
    <glyph glyph-name="ereversedcyrillic" unicode="&#x44d;" horiz-adv-x="1256" 
d="M174 725q53 191 190 296.5t342 105.5q221 0 348.5 -128.5t127.5 -349.5q0 -193 -73 -345t-211.5 -240t-319.5 -88q-212 0 -330.5 107t-126.5 293h275q6 -73 56.5 -116.5t132.5 -43.5q108 0 184.5 70t97.5 179h-405l41 196h390q1 106 -56 165.5t-156 59.5
q-80 0 -140 -42.5t-94 -118.5h-273z" />
    <glyph glyph-name="iucyrillic" unicode="&#x44e;" horiz-adv-x="1820" 
d="M1132 -31q-214 0 -343.5 122.5t-139.5 331.5q0 5 0.5 14.5t0.5 13.5h-183l-97 -451h-293l234 1103h293l-90 -423h164q57 202 210.5 324.5t368.5 122.5q222 0 352 -134t130 -360q0 -187 -73 -337t-212.5 -238.5t-321.5 -88.5zM1155 215q115 0 200 114.5t85 281.5
q0 129 -54.5 203.5t-149.5 74.5q-128 0 -209 -118.5t-81 -293.5q0 -120 55.5 -191t153.5 -71z" />
    <glyph glyph-name="iacyrillic" unicode="&#x44f;" horiz-adv-x="1211" 
d="M644 567h169l68 308h-169q-98 0 -159.5 -51.5t-61.5 -127.5q0 -60 40.5 -94.5t112.5 -34.5zM693 0l77 356h-107l-320 -356h-348l379 410q-84 39 -130.5 110t-46.5 165q0 84 34.5 159t98.5 133t163 92t220 34h507l-234 -1103h-293z" />
    <glyph glyph-name="iocyrillic" unicode="&#x451;" horiz-adv-x="1268" 
d="M632 -24q-218 0 -353 127t-135 347q0 302 166 489.5t431 187.5q201 0 333 -127t132 -335q0 -82 -17 -180h-770q0 -4 -0.5 -15.5t-0.5 -15.5q0 -122 66 -186.5t166 -64.5q163 0 218 114h280q-38 -154 -176.5 -247.5t-339.5 -93.5zM451 669h479q3 18 3 38q0 85 -55 140.5
t-149 55.5q-99 0 -174 -64t-104 -170zM565 1251q-68 0 -112 43t-44 109t44 108.5t112 42.5q67 0 111 -42.5t44 -108.5t-44 -109t-111 -43zM1032 1251q-67 0 -111 43t-44 109t44 108.5t111 42.5q68 0 112 -42.5t44 -108.5t-44 -109t-112 -43z" />
    <glyph glyph-name="djecyrillic" unicode="&#x452;" horiz-adv-x="1362" 
d="M580 944h18q127 183 346 183q149 0 244.5 -90t95.5 -238q0 -57 -14 -125l-152 -717q-70 -331 -425 -331q-97 0 -115 3l49 230q6 -1 51 -1q127 0 152 118l139 654q8 36 9 73q1 84 -52.5 132t-137.5 48q-97 0 -170 -60.5t-98 -172.5l-138 -650h-292l269 1260h-177l33 158
h177l21 97h291l-21 -97h218l-33 -158h-219z" />
    <glyph glyph-name="gjecyrillic" unicode="&#x453;" horiz-adv-x="1006" 
d="M561 1281l323 353h310l-361 -353h-272zM1025 874h-463l-187 -874h-293l234 1103h756z" />
    <glyph glyph-name="ecyrillic" unicode="&#x454;" horiz-adv-x="1233" 
d="M1154 376q-57 -189 -191 -294.5t-330 -105.5q-237 0 -361 130.5t-124 367.5q0 136 43 255.5t120 207t190.5 138.5t247.5 51q204 0 327 -110t134 -291h-275q-8 71 -61.5 116.5t-130.5 45.5q-105 0 -181 -63t-98 -161h407l-40 -196h-395q-2 -118 54 -184t163 -66
q75 0 132.5 43.5t89.5 115.5h279z" />
    <glyph glyph-name="dzecyrillic" unicode="&#x455;" horiz-adv-x="1166" 
d="M93 318h281q12 -57 68 -93t137 -36q85 0 136.5 32t51.5 85q0 36 -25.5 61t-87.5 45l-172 60q-132 45 -196 117.5t-64 180.5q0 161 126.5 259t330.5 98q200 0 322.5 -89.5t133.5 -238.5h-267q-10 52 -61.5 83.5t-127.5 31.5q-77 0 -126.5 -32t-49.5 -82q0 -36 29 -62
t93 -47l179 -63q134 -46 194.5 -115t60.5 -175q0 -162 -133 -262t-348 -100q-212 0 -345.5 94.5t-139.5 247.5z" />
    <glyph glyph-name="icyrillic" unicode="&#x456;" horiz-adv-x="620" 
d="M88 0l235 1103h293l-235 -1103h-293zM534 1257q-77 0 -124.5 40.5t-47.5 102.5q0 65 47.5 108t124.5 43t124.5 -40t47.5 -102q0 -65 -47.5 -108.5t-124.5 -43.5z" />
    <glyph glyph-name="yicyrillic" unicode="&#x457;" horiz-adv-x="608" 
d="M98 0l234 1103h291l-234 -1103h-291zM307 1251q-68 0 -112 43t-44 109t44 108.5t112 42.5q67 0 111 -42.5t44 -108.5t-44 -109t-111 -43zM774 1251q-67 0 -111 43t-44 109t44 108.5t111 42.5q68 0 112 -42.5t44 -108.5t-44 -109t-112 -43z" />
    <glyph glyph-name="jecyrillic" unicode="&#x458;" horiz-adv-x="604" 
d="M616 1103l-247 -1158q-33 -154 -139 -236t-270 -83q-61 0 -131 12l48 226q25 -6 63 -6q62 0 96.5 29t48.5 91l240 1125h291zM535 1257q-77 0 -124.5 40.5t-47.5 102.5q0 65 47.5 108t124.5 43t124.5 -40t47.5 -102q0 -65 -47.5 -108.5t-124.5 -43.5z" />
    <glyph glyph-name="ljecyrillic" unicode="&#x459;" horiz-adv-x="1850" 
d="M64 -13q-55 0 -92 13l53 256q24 -7 62 -7q130 0 208 283l155 571h830l-69 -318h190q172 0 274 -89t102 -233q0 -198 -146.5 -330.5t-373.5 -132.5h-505l187 874h-286l-101 -358q-39 -143 -80 -238t-98 -163t-132.5 -98t-177.5 -30zM1331 559h-166l-72 -330h166
q97 0 160 58.5t63 142.5q0 60 -40 94.5t-111 34.5z" />
    <glyph glyph-name="njecyrillic" unicode="&#x45a;" horiz-adv-x="1899" 
d="M1136 224h166q98 0 158.5 46t60.5 112q0 53 -38 81.5t-108 28.5h-180zM370 0h-293l234 1103h293l-84 -392h427l84 392h293l-83 -389h187q180 0 284 -84.5t104 -219.5q0 -173 -143 -291.5t-371 -118.5h-505l104 487h-427z" />
    <glyph glyph-name="tshecyrillic" unicode="&#x45b;" horiz-adv-x="1356" 
d="M575 937h18q119 187 343 187q154 0 248.5 -90.5t94.5 -226.5q0 -58 -14 -131l-142 -676h-291l132 628q10 48 10 84q0 78 -53.5 124.5t-139.5 46.5q-98 0 -170.5 -62.5t-93.5 -161.5l-140 -659h-292l269 1260h-172l33 158h172l21 97h292l-21 -97h217l-33 -158h-218z" />
    <glyph glyph-name="kjecyrillic" unicode="&#x45c;" horiz-adv-x="1199" 
d="M1278 1634l-361 -353h-272l323 353h310zM1304 1103l-528 -527l306 -576h-324l-240 457h-50l-98 -457h-293l234 1103h293l-92 -430h47l410 430h335z" />
    <glyph glyph-name="ushortcyrillic" unicode="&#x45e;" horiz-adv-x="1228" 
d="M474 1616h215q-15 -81 17.5 -132.5t105.5 -51.5q75 0 130.5 52t72.5 132h218q-34 -162 -148 -256t-297 -94q-168 0 -257.5 98.5t-56.5 251.5zM141 -403q-62 0 -132 5l46 235q20 -6 81 -6q151 0 211 122l22 44l-144 1106h297l64 -822h18l405 822h312l-630 -1143
q-106 -200 -231.5 -281.5t-318.5 -81.5z" />
    <glyph glyph-name="dzhecyrillic" unicode="&#x45f;" horiz-adv-x="1312" 
d="M1085 0h-371l-61 -285h-266l61 285h-371l234 1103h293l-187 -874h422l187 874h293z" />
    <glyph glyph-name="Geupturncyrillic" unicode="&#x490;" horiz-adv-x="1225" 
d="M668 1185l-253 -1185h-305l307 1443h653l60 285h283l-113 -543h-632z" />
    <glyph glyph-name="geupturncyrillic" unicode="&#x491;" horiz-adv-x="998" 
d="M1020 874h-463l-187 -874h-293l234 1103h490l61 285h266z" />
    <glyph glyph-name="baht" unicode="&#xe3f;" horiz-adv-x="1415" 
d="M909 1214l-76 -359q99 13 157.5 70t58.5 140q0 125 -140 149zM789 646l-87 -409q122 2 199.5 67.5t77.5 167.5q0 77 -48.5 122t-141.5 52zM423 237h138l87 410h-136zM635 1219l-80 -368h136l79 368h-135zM1019 763l-2 -19q118 -23 188.5 -100t70.5 -188
q0 -200 -151.5 -328t-387.5 -128h-86l-29 -138h-141l29 138h-433l307 1443h433l31 145h141l-31 -145q175 -4 281.5 -89t106.5 -222q0 -142 -92 -245.5t-235 -123.5z" />
    <glyph glyph-name="Aringbelow" unicode="&#x1e00;" horiz-adv-x="1501" 
d="M1042 0l-35 344h-509l-186 -344h-315l820 1443h349l187 -1443h-311zM916 1142l-304 -565h381l-58 565h-19zM608 -570q-105 0 -175.5 68.5t-70.5 172.5q0 103 70 170.5t176 67.5q105 0 175 -67.5t70 -170.5q0 -104 -70 -172.5t-175 -68.5zM607 -434q46 0 76 29.5t30 74.5
q0 44 -30 73.5t-76 29.5t-75.5 -29.5t-29.5 -73.5q0 -46 29.5 -75t75.5 -29z" />
    <glyph glyph-name="aringbelow" unicode="&#x1e01;" horiz-adv-x="1202" 
d="M534 202q93 0 165 52t90 132l21 95l-228 -8q-100 -4 -156.5 -43t-56.5 -104q0 -55 46 -89.5t119 -34.5zM411 -17q-140 0 -234 86t-94 215q0 168 129.5 266.5t361.5 105.5l274 9l15 68q5 25 5 40q0 57 -49 90.5t-133 33.5q-147 0 -192 -98h-275q35 151 167.5 239.5
t320.5 88.5q202 0 325 -89.5t123 -235.5q0 -50 -9 -89l-151 -713h-283l29 136h-18q-47 -71 -131 -112t-181 -41zM497 -570q-105 0 -175.5 68.5t-70.5 172.5q0 103 70 170.5t176 67.5q105 0 175 -67.5t70 -170.5q0 -104 -70 -172.5t-175 -68.5zM496 -434q46 0 76 29.5
t30 74.5q0 44 -30 73.5t-76 29.5t-75.5 -29.5t-29.5 -73.5q0 -46 29.5 -75t75.5 -29z" />
    <glyph glyph-name="Bdotaccent" unicode="&#x1e02;" horiz-adv-x="1420" 
d="M919 1579q-69 0 -113.5 45t-44.5 113t44.5 113t113.5 45t113 -45t44 -113t-44 -113t-113 -45zM791 0h-691l307 1443h589q186 0 299.5 -85.5t113.5 -225.5q0 -142 -91.5 -245.5t-234.5 -123.5l-2 -19q119 -22 188.5 -99t69.5 -189q0 -200 -154 -328t-394 -128zM664 1219
l-80 -368h240q124 0 202.5 60t78.5 154q0 75 -55.5 114.5t-160.5 39.5h-225zM452 237h287q129 0 212 66t83 169q0 84 -60.5 129.5t-173.5 45.5h-259z" />
    <glyph glyph-name="bdotaccent" unicode="&#x1e03;" horiz-adv-x="1339" 
d="M608 1660q-69 0 -113.5 45t-44.5 113t44.5 113t113.5 45t113 -45t44 -113t-44 -113t-113 -45zM747 -17q-117 0 -208.5 60t-119.5 157h-18l-43 -200h-283l324 1524h291l-122 -575l19 1q117 171 332 171q167 0 272 -115.5t105 -306.5q0 -202 -72.5 -366.5t-198.5 -257
t-278 -92.5zM683 230q131 0 221 120.5t90 298.5q0 111 -56 171t-150 60q-131 0 -223.5 -122.5t-92.5 -292.5q0 -111 58 -173t153 -62z" />
    <glyph glyph-name="Bdotbelow" unicode="&#x1e04;" horiz-adv-x="1420" 
d="M515 -419q-71 0 -114 39.5t-43 100.5t43.5 100t113.5 39t113.5 -39t43.5 -100t-43.5 -100.5t-113.5 -39.5zM791 0h-691l307 1443h589q186 0 299.5 -85.5t113.5 -225.5q0 -142 -91.5 -245.5t-234.5 -123.5l-2 -19q119 -22 188.5 -99t69.5 -189q0 -200 -154 -328t-394 -128
zM664 1219l-80 -368h240q124 0 202.5 60t78.5 154q0 75 -55.5 114.5t-160.5 39.5h-225zM452 237h287q129 0 212 66t83 169q0 84 -60.5 129.5t-173.5 45.5h-259z" />
    <glyph glyph-name="bdotbelow" unicode="&#x1e05;" horiz-adv-x="1339" 
d="M516 -416q-71 0 -114 39.5t-43 100.5t43.5 100t113.5 39t113.5 -39t43.5 -100t-43.5 -100.5t-113.5 -39.5zM747 -17q-117 0 -208.5 60t-119.5 157h-18l-43 -200h-283l324 1524h291l-122 -575l19 1q117 171 332 171q167 0 272 -115.5t105 -306.5q0 -202 -72.5 -366.5
t-198.5 -257t-278 -92.5zM683 230q131 0 221 120.5t90 298.5q0 111 -56 171t-150 60q-131 0 -223.5 -122.5t-92.5 -292.5q0 -111 58 -173t153 -62z" />
    <glyph glyph-name="Blinebelow" unicode="&#x1e06;" horiz-adv-x="1420" 
d="M791 0h-691l307 1443h589q186 0 299.5 -85.5t113.5 -225.5q0 -142 -91.5 -245.5t-234.5 -123.5l-2 -19q119 -22 188.5 -99t69.5 -189q0 -200 -154 -328t-394 -128zM664 1219l-80 -368h240q124 0 202.5 60t78.5 154q0 75 -55.5 114.5t-160.5 39.5h-225zM452 237h287
q129 0 212 66t83 169q0 84 -60.5 129.5t-173.5 45.5h-259zM863 -401h-745l37 181h746z" />
    <glyph glyph-name="blinebelow" unicode="&#x1e07;" horiz-adv-x="1339" 
d="M864 -398h-745l37 181h746zM747 -17q-117 0 -208.5 60t-119.5 157h-18l-43 -200h-283l324 1524h291l-122 -575l19 1q117 171 332 171q167 0 272 -115.5t105 -306.5q0 -202 -72.5 -366.5t-198.5 -257t-278 -92.5zM683 230q131 0 221 120.5t90 298.5q0 111 -56 171t-150 60
q-131 0 -223.5 -122.5t-92.5 -292.5q0 -111 58 -173t153 -62z" />
    </font>
</defs>
</svg>
